<svg xmlns="http://www.w3.org/2000/svg" viewBox="0 0 216.879 227.24">
  <defs>
    <style>
      .cls-1 {
        fill: #fff;
      }

      .cls-12, .cls-2 {
        fill: #d6cfc5;
      }

      .cls-2 {
        opacity: 0.5;
      }

      .cls-3 {
        fill: #ed2227;
      }

      .cls-4 {
        fill: #2d1211;
      }

      .cls-5, .cls-8 {
        fill: #cd8648;
      }

      .cls-15, .cls-5, .cls-9 {
        stroke: #2d1211;
        stroke-width: 4px;
      }

      .cls-13, .cls-15, .cls-5, .cls-9 {
        stroke-miterlimit: 10;
      }

      .cls-6 {
        fill: #fff0ce;
      }

      .cls-7 {
        fill: #ebcd96;
      }

      .cls-9 {
        fill: none;
      }

      .cls-10 {
        fill: #492e1b;
        opacity: 0.2;
      }

      .cls-11, .cls-13 {
        fill: #fba919;
      }

      .cls-13 {
        stroke: #808285;
      }

      .cls-14 {
        fill: #070807;
      }

      .cls-15 {
        fill: #edce96;
      }

      .cls-16 {
        fill: #00aeef;
      }

      .cls-17 {
        fill: #aa6629;
      }

      .cls-18 {
        fill: #d8c9a9;
      }

      .cls-19 {
        fill: #ceb389;
      }

      .cls-20 {
        fill: #dbcbac;
      }

      .cls-21 {
        fill: #87481f;
      }
    </style>
  </defs>
  <g id="Group_529" data-name="Group 529" transform="translate(0 0.11)">
    <circle id="Ellipse_298" data-name="Ellipse 298" class="cls-1" cx="108.44" cy="108.44" r="108.44" transform="translate(0 10.25)"/>
    <ellipse id="Ellipse_299" data-name="Ellipse 299" class="cls-2" cx="75.388" cy="13.97" rx="75.388" ry="13.97" transform="translate(55.37 181.13)"/>
    <g id="Group_515" data-name="Group 515" transform="translate(74.025 145.353)">
      <g id="Group_514" data-name="Group 514">
        <g id="Group_513" data-name="Group 513">
          <path id="Path_554" data-name="Path 554" class="cls-3" d="M134.451,220.844,133,211.985H102.337l-1.533,8.859H89.9L97.907,172.8h10.9l-4.941,29.729h27.6L126.529,172.8h10.9l8.007,48.044Z" transform="translate(-87.344 -170.67)"/>
          <path id="Path_555" data-name="Path 555" class="cls-4" d="M135.2,174.559l7.326,43.7h-6.644l-1.448-8.859H100.1l-1.448,8.859H92.011l7.326-43.7h6.644L101.041,204.2h32.54l-4.941-29.644H135.2m3.578-4.259H123.529l.852,4.941,4.089,24.7H105.981l4.089-24.7.852-4.941H95.674l-.6,3.578-7.326,43.7-.852,4.941h15.248l.6-3.578.852-5.281h27.089l.852,5.281.6,3.578h15.248l-.852-4.941-7.326-43.7-.426-3.578Z" transform="translate(-86.9 -170.3)"/>
        </g>
      </g>
    </g>
    <path id="Path_556" data-name="Path 556" class="cls-5" d="M136.5,150.062c18.911,17.207,8.944,51.537,8.944,51.537h0a5.766,5.766,0,0,0,5.963,5.707l18.059-.6a4.145,4.145,0,0,0,2.044-7.667l-5.622-3.407a1.23,1.23,0,0,1-.341-1.874c3.918-4.77,17.974-24.363,7.667-50.685a.768.768,0,0,1-.085-.426C171.851,95.118,158.222,72.8,158.222,72.8" transform="translate(-20.223 -10.502)"/>
    <path id="Path_557" data-name="Path 557" class="cls-5" d="M188.563,113.985A56.974,56.974,0,0,1,168.118,95.5L148.1,109.981c18.059,17.548,39.355,14.567,39.355,14.567Z" transform="translate(-21.942 -13.865)"/>
    <path id="Path_558" data-name="Path 558" class="cls-6" d="M89.215,113.685s.256,42,34.926,42.592c23.085.341,38.248-49.748,38.248-49.748L151.4,74.5l-7.667,7.411L84.7,83.359Z" transform="translate(-12.549 -10.754)"/>
    <path id="Path_559" data-name="Path 559" class="cls-7" d="M88.3,95.67s27.855,37.481,53.07,16.185l5.367-2.811s-1.022-10.733-3.663-18.144" transform="translate(-13.082 -13.184)"/>
    <g id="Group_516" data-name="Group 516" transform="translate(112.954 64.598)">
      <path id="Path_560" data-name="Path 560" class="cls-8" d="M172.637,133.255c-.085,5.707-1.789,11.841-6.3,15.418a20.918,20.918,0,0,1-8.263,3.493c-8.433,2.13-16.952,2.726-25.47,3.748,8.178-2.726,28.877-32.285,17.122-67.3,0,0,7.581-13.118,8.007-13.118.341.085,3.663,5.111,3.663,5.111l.426,1.533-.085-.085a.3.3,0,0,0,.085.17l1.193,3.918a17.879,17.879,0,0,0-1.193-3.918l-.085-.17c5.281,5.281,8.007,23.766,9.115,31.092A124.153,124.153,0,0,1,172.637,133.255Z" transform="translate(-132.6 -75.5)"/>
    </g>
    <path id="Path_561" data-name="Path 561" class="cls-8" d="M166.985,83.37a.3.3,0,0,0-.085-.17l.085.085Z" transform="translate(-24.727 -12.043)"/>
    <g id="Group_517" data-name="Group 517" transform="translate(108.525 145.012)">
      <path id="Path_562" data-name="Path 562" class="cls-8" d="M127.4,170.5c1.533-.17,2.981-.426,4.515-.6A12.887,12.887,0,0,1,127.4,170.5Z" transform="translate(-127.4 -169.9)"/>
    </g>
    <g id="Group_518" data-name="Group 518" transform="translate(142.173 71.157)">
      <path id="Path_563" data-name="Path 563" class="cls-8" d="M166.985,83.37a.3.3,0,0,0-.085-.17l.085.085Z" transform="translate(-166.9 -83.2)"/>
    </g>
    <g id="Group_519" data-name="Group 519" transform="translate(55.796 105.486)">
      <path id="Path_564" data-name="Path 564" class="cls-8" d="M88.585,129.463S95.74,159.874,119,163.537l-9.37,2.3L65.5,158.852,68.481,123.5Z" transform="translate(-65.5 -123.5)"/>
    </g>
    <path id="Path_565" data-name="Path 565" class="cls-9" d="M176.907,142.807C175.63,95.1,162,72.7,162,72.7" transform="translate(-24.001 -10.487)"/>
    <path id="Path_566" data-name="Path 566" class="cls-9" d="M67.2,162" transform="translate(-9.956 -23.718)"/>
    <path id="Path_567" data-name="Path 567" class="cls-10" d="M169.288,148.788s-3.152-5.111-16.441.852c0,0,3.152-6.559,8.263-8.263,0,0,0-27.855-6.559-43.444,0,0-14.226,19.848-49.151.6l20.1,2.811,10.818-2.3,10.222-7.667L156.17,80.3l4,10.818,5.707,21.552,2.215,25.3Z" transform="translate(-15.616 -11.613)"/>
    <g id="Group_522" data-name="Group 522" transform="translate(36.582 85.809)">
      <path id="Path_568" data-name="Path 568" class="cls-11" d="M88.279,183.391c-17.207,4.344-35.181-8.007-40.207-27.6s4.856-39.1,22.063-43.444a30.011,30.011,0,0,1,23.341,3.918,12.172,12.172,0,0,0,14.055-.681,13.6,13.6,0,0,1,5.281-2.726c9.711-2.47,20.444,6.644,23.937,20.359s-1.618,26.833-11.33,29.3a14.09,14.09,0,0,1-5.963.17,12.073,12.073,0,0,0-12.692,6.048A29.075,29.075,0,0,1,88.279,183.391Z" transform="translate(-43.51 -102.04)"/>
      <path id="Path_569" data-name="Path 569" class="cls-12" d="M127.293,146.226,123.8,132.511,203.192,113.6,206,124.759Z" transform="translate(-54.923 -102.356)"/>
      <circle id="Ellipse_300" data-name="Ellipse 300" class="cls-4" cx="11.33" cy="11.33" r="11.33" transform="translate(51.755 27.6)"/>
      <g id="Group_520" data-name="Group 520" transform="translate(23.899 13.715)">
        <line id="Line_59" data-name="Line 59" class="cls-13" x1="122.495" y2="31.263" transform="translate(0.596 2.385)"/>
        <line id="Line_60" data-name="Line 60" class="cls-13" x1="122.495" y2="31.177"/>
        <line id="Line_61" data-name="Line 61" class="cls-13" x1="122.495" y2="31.177" transform="translate(1.789 7.326)"/>
        <line id="Line_62" data-name="Line 62" class="cls-13" x1="122.495" y2="31.177" transform="translate(1.193 4.856)"/>
      </g>
      <path id="Path_570" data-name="Path 570" class="cls-14" d="M70.06,164.723l-4.174-16.441a2.363,2.363,0,0,1,1.7-2.9h.085a2.363,2.363,0,0,1,2.9,1.7l4.174,16.441a2.363,2.363,0,0,1-1.7,2.9h-.085A2.326,2.326,0,0,1,70.06,164.723Z" transform="translate(-46.331 -107.053)"/>
      <path id="Path_571" data-name="Path 571" class="cls-11" d="M214.8,128.24l-4.6-17.889,21.3-5.452,5.452,8.178-.937,9.711Z" transform="translate(-67.724 -101.067)"/>
      <g id="Group_521" data-name="Group 521">
        <path id="Path_572" data-name="Path 572" class="cls-4" d="M206.716,104.233l5.537,8.093-.937,9.8-21.3,5.452-.852-3.407-51.792,14.055c.681,11.074-4.259,20.615-12.352,22.659a14.8,14.8,0,0,1-3.322.426,13.868,13.868,0,0,1-2.641-.256,9.352,9.352,0,0,0-2.13-.17,12.193,12.193,0,0,0-10.478,6.3A30.107,30.107,0,0,1,87.8,181.836a28.185,28.185,0,0,1-7.07.852c-14.822,0-28.877-11.5-33.137-28.452-5.026-19.592,4.856-39.1,22.063-43.444a28.185,28.185,0,0,1,7.07-.852A30.774,30.774,0,0,1,93.08,114.8a12.471,12.471,0,0,0,6.644,1.874,11.459,11.459,0,0,0,7.411-2.641,13.6,13.6,0,0,1,5.281-2.726,14.7,14.7,0,0,1,3.237-.426c7.155,0,14.311,5.707,18.4,14.4l52.218-12.352-.767-3.152,21.211-5.537m1.448-3.833-2.3.6-21.3,5.452-3.322.852.767,3.152-46.17,10.818c-4.855-8.518-12.522-13.885-20.189-13.885a16.3,16.3,0,0,0-4.089.511,17.042,17.042,0,0,0-6.644,3.407,8.1,8.1,0,0,1-5.2,1.874,9.949,9.949,0,0,1-4.856-1.363,34.57,34.57,0,0,0-18.144-5.367,30.446,30.446,0,0,0-7.837,1.022,33.4,33.4,0,0,0-21.552,17.8,42.6,42.6,0,0,0-2.981,29.815,43.739,43.739,0,0,0,13.715,22.318A35.322,35.322,0,0,0,80.814,186.1a30.446,30.446,0,0,0,7.837-1.022,33.469,33.469,0,0,0,20.785-16.27,8.872,8.872,0,0,1,7.5-4.6,9.388,9.388,0,0,1,1.533.17,14.67,14.67,0,0,0,3.322.341,16.3,16.3,0,0,0,4.089-.511c8.859-2.3,14.822-11.67,14.992-23.34L186.7,128.34v.085l.852,3.322,3.322-.852,21.3-5.452,2.3-.6.256-2.385.937-9.8.085-1.193-.681-1.022-5.537-8.093-1.363-1.959Z" transform="translate(-42.944 -100.4)"/>
      </g>
    </g>
    <path id="Path_573" data-name="Path 573" class="cls-15" d="M196,127.218s-1.278-4.685.681-5.026c4.259-.767,9.541,8.178,4.855,15.589-5.111,8.007-20.018,0-17.292-3.237.681-1.107,6.644-.937,6.644-.937s-2.3-5.281-.937-7.241C191.313,124.322,196,127.218,196,127.218Z" transform="translate(-27.248 -17.813)"/>
    <g id="Group_524" data-name="Group 524" transform="translate(57.891 67.664)">
      <path id="Path_574" data-name="Path 574" class="cls-8" d="M89.307,139.922s-23-13.033-21.126-37.226L78.659,79.1l8.689,13.544S84.366,112.918,98.933,129.1Z" transform="translate(-67.977 -79.1)"/>
      <path id="Path_575" data-name="Path 575" class="cls-9" d="M88.438,140.085a47.532,47.532,0,0,1-14.4-13.715,33.641,33.641,0,0,1-2.47-4.174,36.023,36.023,0,0,1,3.237-36.8l3.748-5.2" transform="translate(-67.96 -79.263)"/>
      <path id="Path_576" data-name="Path 576" class="cls-4" d="M102.3,132.852s-4.77-1.789-9.8-19.252c0,0,.256,16.441,7.155,21.381Z" transform="translate(-71.596 -84.211)"/>
      <g id="Group_523" data-name="Group 523" transform="translate(21.045 50.567)">
        <path id="Path_577" data-name="Path 577" class="cls-15" d="M105.984,144.713s4.856-.341,4.515-2.3c-.681-4.259-10.818-6.389-16.27.511-5.878,7.5,6.559,18.911,8.689,15.333.852-1.022-1.278-6.559-1.278-6.559s5.793.426,7.155-1.533C110.328,148.12,105.984,144.713,105.984,144.713Z" transform="translate(-92.665 -138.462)"/>
      </g>
    </g>
    <g id="Group_525" data-name="Group 525" transform="translate(154.864 5.65)">
      <path id="Path_578" data-name="Path 578" class="cls-16" d="M190.815,61.814a6.749,6.749,0,0,1-6.3-3.578c-1.533-3.407.511-7.667,4.685-9.626a9.884,9.884,0,0,1,4.089-.937h.767V18.967L224.548,9V47.163c-.085,2.811-2.13,5.537-5.2,6.985a9.884,9.884,0,0,1-4.089.937,6.749,6.749,0,0,1-6.3-3.578c-1.533-3.407.511-7.667,4.685-9.626a9.884,9.884,0,0,1,4.089-.937h.767V24.163l-18.4,5.963V54.4c-.256,2.726-2.3,5.2-5.2,6.559A12.116,12.116,0,0,1,190.815,61.814Z" transform="translate(-182.125 -6.7)"/>
      <path id="Path_579" data-name="Path 579" class="cls-4" d="M222.433,10.985V46.677a6.759,6.759,0,0,1-4.174,5.537,8.167,8.167,0,0,1-3.322.767,4.872,4.872,0,0,1-4.685-2.641c-1.193-2.556.511-5.793,3.833-7.326a8.167,8.167,0,0,1,3.322-.767,6.11,6.11,0,0,1,2.47.511V21.378l-21.807,7.07v25.3a6.984,6.984,0,0,1-4.174,5.2,8.167,8.167,0,0,1-3.322.767,4.872,4.872,0,0,1-4.685-2.641c-1.193-2.556.511-5.793,3.833-7.326a8.167,8.167,0,0,1,3.322-.767,6.111,6.111,0,0,1,2.47.511V19.844l26.918-8.859M225.84,6.3l-4.515,1.448-27.089,8.859-2.385.767V45.655a10.267,10.267,0,0,0-3.833,1.022c-5.111,2.3-7.5,7.581-5.537,11.841a8.33,8.33,0,0,0,7.837,4.6,11.723,11.723,0,0,0,4.77-1.022,10.285,10.285,0,0,0,6.133-7.922c0-.341.085-.6.085-.852V31L216.3,26.148V38.926a10.267,10.267,0,0,0-3.833,1.022c-5.111,2.3-7.5,7.581-5.537,11.841a8.33,8.33,0,0,0,7.837,4.6,11.723,11.723,0,0,0,4.77-1.022,10.159,10.159,0,0,0,6.218-8.433V6.3Z" transform="translate(-181.799 -6.3)"/>
    </g>
    <g id="Group_527" data-name="Group 527" transform="translate(64.548 1.915)">
      <g id="Group_526" data-name="Group 526">
        <path id="Path_580" data-name="Path 580" class="cls-6" d="M146.5,26.861s2.3-7.411,4.941-11.585c2.726-4.174-5.793-7.5-14.4-8.263,0,0-20.274-11.415-40.8-.085,0,0-9.455.17-13.2,7.07-3.748,6.985-6.644,23.255-6.644,23.255S70.43,72.69,95.559,83.594s34.67,4.685,34.67,4.685,16.185-8.348,21.041-20.87C151.184,67.409,160.469,46.028,146.5,26.861Z" transform="translate(-75.775 -1.915)"/>
        <path id="Path_581" data-name="Path 581" class="cls-8" d="M116.871,2.8s4.43,6.389,1.278,9.2C115,14.726,106.99,19.241,107.416,28.355s2.9,11.244-3.152,14.652l-1.448.511S92.168,45.051,90.89,55.7s10.052,29.048,26.833,32.626l-14.907-1.619s-12.437-4.174-16.867-9.8c0,0-8.348-9.03-9.8-20.444S79.56,22.307,79.56,22.307L83.9,12.085l6.559-3.833,6.815-1.874,11.5-3.493Z" transform="translate(-75.791 -2.046)"/>
        <path id="Path_582" data-name="Path 582" class="cls-17" d="M103.1,47.978s6.73.085,7.752-3.322l-2.9-.256S107.956,46.615,103.1,47.978Z" transform="translate(-79.823 -8.209)"/>
        <path id="Path_583" data-name="Path 583" d="M109.313,35.8c.426-.085.937.341,1.193.6,1.193,1.193,1.278,2.981,1.278,4.77,0,1.448-.511,3.152-2.215,3.493-2.385.341-2.47-1.022-2.47-3.322C107.013,39.035,107.439,35.968,109.313,35.8Z" transform="translate(-80.414 -6.933)"/>
        <path id="Path_584" data-name="Path 584" class="cls-18" d="M146.025,18.1a15.11,15.11,0,0,0-6.133,13.8c.681,9.541,2.726,18.57.426,23.085,0,0,5.281-.341,6.474-9.8,0,0,9.8,5.878,1.363,37.4l1.278.767s9.03-6.3,9.8-10.137l3.578-9.541.852-10.648L162.466,42.8l-3.918-8.944-4.174-8.007Z" transform="translate(-85.267 -4.313)"/>
        <path id="Path_585" data-name="Path 585" class="cls-19" d="M145.2,44.6h0a3.47,3.47,0,0,0,2.3,2.641,21.084,21.084,0,0,1,4.259,2.726s-1.448-3.237-3.237-4.515Z" transform="translate(-86.061 -8.239)"/>
        <path id="Path_586" data-name="Path 586" d="M147.112,36s1.278-.426,2.044,2.385c.681,2.726.341,7.241-2.13,6.389s-2.13-4.089-2.13-4.089S144.727,36.166,147.112,36Z" transform="translate(-86.014 -6.961)"/>
        <path id="Path_587" data-name="Path 587" class="cls-1" d="M147.781,38.419s-.17.937.17.937c.426,0,.767-.426.767-1.278a1.3,1.3,0,0,0-.852-1.278C147.781,36.885,147.525,36.8,147.781,38.419Z" transform="translate(-86.427 -7.083)"/>
        <path id="Path_588" data-name="Path 588" class="cls-8" d="M141.967,6.9s-.937,4.259,1.363,6.73,9.626,8.518,11.415,14.311l2.47-2.981,4.941-10.818-2.981-3.578L147.93,7.922Z" transform="translate(-85.554 -2.653)"/>
        <path id="Path_589" data-name="Path 589" class="cls-17" d="M83.944,23.081l.17-.17L84.8,22.4l7.752,5.963S80.707,34.837,78.833,61.414L77.3,60.392l.511-22.148,3.067-11.755" transform="translate(-76.001 -4.95)"/>
        <path id="Path_590" data-name="Path 590" class="cls-4" d="M83.337,22l1.789,1.193S82.23,26.43,80.1,33.585l.767-11.5Z" transform="translate(-76.416 -4.89)"/>
        <path id="Path_591" data-name="Path 591" class="cls-20" d="M129.856,73.148s.17-2.3-4.089-3.578c-4.174-1.278-4.344-1.789-4.174-2.9a5.433,5.433,0,0,1,1.959-1.193c1.448-.6,2.726-2.385,5.2-2.385h.17a4.531,4.531,0,0,1,3.322,1.022c1.448,1.278,3.152.511,3.918,2.215S130.622,68.719,129.856,73.148Z" transform="translate(-82.557 -10.976)"/>
        <path id="Path_592" data-name="Path 592" class="cls-4" d="M129.444,72.7c0,1.533,1.874,8.263-1.789,9.541a9.723,9.723,0,0,1-7.155-.426s3.578,2.385,9.8,2.3c6.133-.17,9.03-3.578,9.03-3.578s-5.622,2.47-7.326.937C130.467,80.2,130.978,75.511,129.444,72.7Z" transform="translate(-82.401 -12.402)"/>
        <path id="Path_593" data-name="Path 593" class="cls-19" d="M126.781,66.241a3.142,3.142,0,0,1,2.9-.852c1.874.341,2.3.767,4.089.767s2.3.511,2.3.511l-4.344,2.385a3.016,3.016,0,0,1-2.385,1.278c-1.448-.085-2.385-1.022-3.237-1.022s-4.6-2.215-4.6-2.215S122.522,66.071,126.781,66.241Z" transform="translate(-82.549 -11.31)"/>
        <path id="Path_594" data-name="Path 594" class="cls-4" d="M132.9,69.08a3.906,3.906,0,0,1,4.941-2.215C137.756,66.865,136.733,68.995,132.9,69.08Z" transform="translate(-84.238 -11.508)"/>
        <path id="Path_595" data-name="Path 595" class="cls-4" d="M121.6,67.265s3.493-1.107,5.111,1.874C126.711,69.139,123.474,69.65,121.6,67.265Z" transform="translate(-82.564 -11.567)"/>
        <path id="Path_596" data-name="Path 596" class="cls-9" d="M146.5,26.861s2.3-7.411,4.941-11.585c2.726-4.174-5.793-7.5-14.4-8.263,0,0-20.274-11.415-40.8-.085,0,0-9.455.17-13.2,7.07-3.748,6.985-6.644,23.255-6.644,23.255S70.43,72.69,95.559,83.594s34.67,4.685,34.67,4.685,16.185-8.348,21.041-20.87C151.184,67.409,160.469,46.028,146.5,26.861Z" transform="translate(-75.775 -1.915)"/>
        <path id="Path_597" data-name="Path 597" class="cls-21" d="M83.9,21.235s2.641-8.348,16.7-2.044a4.351,4.351,0,0,0-3.578,2.13c-1.193,2.13-2.044,5.963-3.493,6.218C93.526,27.539,88.841,26.516,83.9,21.235Z" transform="translate(-76.979 -4.125)"/>
        <path id="Path_598" data-name="Path 598" class="cls-4" d="M150.126,82.8s-.511,9.455-1.533,11.33L140.5,98.3C140.585,98.389,147.23,95.918,150.126,82.8Z" transform="translate(-85.364 -13.898)"/>
        <path id="Path_599" data-name="Path 599" class="cls-1" d="M110.185,38.617s-.085-1.278-.085-1.363c0-.511.511-.17.681.085.426.6.511,1.874-.256,2.215C109.93,39.809,110.185,38.617,110.185,38.617Z" transform="translate(-80.86 -7.111)"/>
      </g>
    </g>
    <g id="Group_528" data-name="Group 528" transform="translate(69.678 143.306)">
      <path id="Path_600" data-name="Path 600" class="cls-5" d="M81.8,182.381h0a14.2,14.2,0,0,0,16.441,13.8l39.951-7.922,3.407,7.5a3.088,3.088,0,0,0,5.878-1.278l-.17-12.607a8.484,8.484,0,0,0-7.667-8.348l-42.166-5.537A14.161,14.161,0,0,0,81.8,182.381Z" transform="translate(-81.797 -167.898)"/>
      <path id="Path_601" data-name="Path 601" class="cls-10" d="M82.7,184.4s2.726,8.774,15.248,6.474c12.437-2.215,40.633-5.707,40.633-5.707l1.022,4.515-41.229,9.03-10.733-1.874-4.77-6.985Z" transform="translate(-81.93 -170.342)"/>
    </g>
  </g>
</svg>
