<svg xmlns="http://www.w3.org/2000/svg" viewBox="0 0 229.251 226.986">
  <defs>
    <style>
      .cls-1, .cls-17 {
        fill: #fff;
      }

      .cls-2 {
        fill: #d6cfc5;
        opacity: 0.5;
      }

      .cls-3, .cls-5 {
        fill: #cd8648;
      }

      .cls-4, .cls-7, .cls-8 {
        fill: none;
      }

      .cls-4 {
        stroke: #00aeef;
        stroke-linecap: round;
        stroke-width: 6px;
      }

      .cls-18, .cls-4, .cls-5, .cls-8 {
        stroke-miterlimit: 10;
      }

      .cls-18, .cls-5, .cls-8 {
        stroke: #2d1211;
        stroke-width: 4px;
      }

      .cls-6 {
        fill: #fff0ce;
      }

      .cls-9 {
        fill: #aa6629;
      }

      .cls-10 {
        fill: #d8c9a9;
      }

      .cls-11 {
        fill: #ceb389;
      }

      .cls-12 {
        fill: #2d1211;
      }

      .cls-13 {
        fill: #dbcbac;
      }

      .cls-14 {
        fill: #87481f;
      }

      .cls-15 {
        fill: #4ab04d;
      }

      .cls-16 {
        fill: #414042;
      }

      .cls-17 {
        opacity: 0.05;
      }

      .cls-18 {
        fill: #edce96;
      }

      .cls-19 {
        fill: #f4f0eb;
      }

      .cls-20 {
        fill: #492e1b;
        opacity: 0.2;
      }
    </style>
  </defs>
  <g id="Group_559" data-name="Group 559" transform="translate(-0.039 0.01)">
    <circle id="Ellipse_301" data-name="Ellipse 301" class="cls-1" cx="108.359" cy="108.359" r="108.359" transform="translate(0.4 10.259)"/>
    <ellipse id="Ellipse_302" data-name="Ellipse 302" class="cls-2" cx="84.269" cy="16.173" rx="84.269" ry="16.173" transform="translate(60.751 177.351)"/>
    <path id="Path_604" data-name="Path 604" class="cls-3" d="M193.285,83.37a.3.3,0,0,0-.085-.17l.085.085Z" transform="translate(-28.687 -12.08)"/>
    <g id="Group_547" data-name="Group 547" transform="translate(3.039 62.182)">
      <line id="Line_67" data-name="Line 67" class="cls-4" x2="20.429" transform="translate(27.834)"/>
      <line id="Line_68" data-name="Line 68" class="cls-4" x2="46.816" transform="translate(63.585)"/>
      <line id="Line_69" data-name="Line 69" class="cls-4" x2="20.429" transform="translate(0 15.832)"/>
      <line id="Line_70" data-name="Line 70" class="cls-4" x2="46.816" transform="translate(35.751 15.832)"/>
      <line id="Line_71" data-name="Line 71" class="cls-4" x2="20.429" transform="translate(98.74 17.024)"/>
      <line id="Line_72" data-name="Line 72" class="cls-4" x2="23.238" transform="translate(134.491 17.024)"/>
      <line id="Line_73" data-name="Line 73" class="cls-4" x2="66.905" transform="translate(24.43 32.857)"/>
      <line id="Line_74" data-name="Line 74" class="cls-4" x2="46.816" transform="translate(106.656 32.857)"/>
    </g>
    <g id="Group_548" data-name="Group 548" transform="translate(96.927 110.957)">
      <line id="Line_75" data-name="Line 75" class="cls-4" x2="15.747" transform="translate(21.365)"/>
      <line id="Line_76" data-name="Line 76" class="cls-4" x2="36.006" transform="translate(48.859)"/>
      <line id="Line_77" data-name="Line 77" class="cls-4" x2="10.725" transform="translate(95.676)"/>
      <line id="Line_78" data-name="Line 78" class="cls-4" x2="15.747" transform="translate(0 15.918)"/>
      <line id="Line_79" data-name="Line 79" class="cls-4" x2="36.006" transform="translate(27.494 15.918)"/>
      <line id="Line_80" data-name="Line 80" class="cls-4" x2="15.662" transform="translate(75.928 17.024)"/>
      <line id="Line_81" data-name="Line 81" class="cls-4" x2="22.387" transform="translate(103.336 17.024)"/>
      <line id="Line_82" data-name="Line 82" class="cls-4" x2="15.662" transform="translate(54.562 32.942)"/>
      <line id="Line_83" data-name="Line 83" class="cls-4" x2="19.322" transform="translate(81.971 32.942)"/>
    </g>
    <g id="Group_549" data-name="Group 549" transform="translate(31.724 110.957)">
      <line id="Line_84" data-name="Line 84" class="cls-4" x1="15.662" transform="translate(102.23 32.942)"/>
      <line id="Line_85" data-name="Line 85" class="cls-4" x1="36.006" transform="translate(54.477 32.942)"/>
      <line id="Line_86" data-name="Line 86" class="cls-4" x1="10.81" transform="translate(32.857 32.942)"/>
      <line id="Line_87" data-name="Line 87" class="cls-4" x1="15.662" transform="translate(123.595 17.024)"/>
      <line id="Line_88" data-name="Line 88" class="cls-4" x1="36.006" transform="translate(75.842 17.024)"/>
      <line id="Line_89" data-name="Line 89" class="cls-4" x1="15.662" transform="translate(47.753 15.918)"/>
      <line id="Line_90" data-name="Line 90" class="cls-4" x1="35.921" transform="translate(0 15.918)"/>
      <line id="Line_91" data-name="Line 91" class="cls-4" x1="15.662" transform="translate(69.118)"/>
      <line id="Line_92" data-name="Line 92" class="cls-4" x1="35.921" transform="translate(21.365)"/>
    </g>
    <g id="Group_550" data-name="Group 550" transform="translate(164.513 71.12)">
      <path id="Path_605" data-name="Path 605" class="cls-3" d="M193.285,83.37a.3.3,0,0,0-.085-.17l.085.085Z" transform="translate(-193.2 -83.2)"/>
    </g>
    <path id="Path_606" data-name="Path 606" class="cls-5" d="M106.657,84.31,80.781,193.35,69.715,198.2a3.69,3.69,0,0,0,1.447,7.065H87.675a11.227,11.227,0,0,0,7.831-3.235l27.834-27.92a25.183,25.183,0,0,1,17.875-7.405h9.7a25.173,25.173,0,0,1,17.45,6.98h0a25.7,25.7,0,0,1,6.554,10.385l4.341,13.279a6.315,6.315,0,0,0,5.958,4.341h18.471a3.325,3.325,0,0,0,1.788-6.129l-10.044-6.469.766-9.534A62.587,62.587,0,0,0,192.459,153l-5.448-14.641a45.178,45.178,0,0,1,.6-33.2l18.216-43.922a6.422,6.422,0,0,0-3.916-8.6h0a6.436,6.436,0,0,0-7.065,2.213l-7.15,9.363-17.109,8" transform="translate(-9.986 -7.487)"/>
    <path id="Path_607" data-name="Path 607" class="cls-6" d="M120.111,93.6s-8.086,37.283,20,60.1a15.783,15.783,0,0,0,20.684-.681c8.938-8.427,19.408-29.962,14.215-63.415" transform="translate(-17.652 -13.032)"/>
    <path id="Path_608" data-name="Path 608" class="cls-3" d="M105.022,84l6.639,6.554L109.7,110.813l13.449,8.257-1.277,15.407s-35.751-3.32-37.708-15.662S96.17,87.149,105.022,84Z" transform="translate(-12.436 -12.199)"/>
    <g id="Group_551" data-name="Group 551" transform="translate(97.367 26.574)">
      <path id="Path_609" data-name="Path 609" class="cls-7" d="M138.562,32.768c-1.873-1.277-5.192-1.7-11.151-1.873-3.916-.085-9.363-.17-11.662,2.809-2.894,3.745-1.107,13.96,2.724,16.428,6.895,4.426,14.556,2.468,18.3-1.107,1.788-1.7,3.66-3.745,4.171-8.938a18.912,18.912,0,0,0-.17-4.426A5.386,5.386,0,0,0,138.562,32.768Z" transform="translate(-114.317 -30.867)"/>
      <path id="Path_610" data-name="Path 610" class="cls-7" d="M162.274,32.768c1.873-1.277,5.192-1.7,11.151-1.873,3.916-.085,9.363-.17,11.662,2.809,2.894,3.745,1.107,13.96-2.724,16.428-6.895,4.426-14.556,2.468-18.3-1.107-1.788-1.7-3.66-3.745-4.171-8.938a18.91,18.91,0,0,1,.17-4.426A5.386,5.386,0,0,1,162.274,32.768Z" transform="translate(-121.091 -30.867)"/>
    </g>
    <path id="Path_611" data-name="Path 611" class="cls-8" d="M126.1,119.947A7.88,7.88,0,0,1,129,128.714h0a7.924,7.924,0,0,1-8.172,5.7c-12-.766-36.687-4-37.027-18.471C83.373,96.794,105.5,83.6,105.5,83.6l11.066,2.128" transform="translate(-12.408 -12.139)"/>
    <path id="Path_612" data-name="Path 612" class="cls-8" d="M93.5,162" transform="translate(-13.853 -23.805)"/>
    <g id="Group_553" data-name="Group 553" transform="translate(86.946 2.015)">
      <g id="Group_552" data-name="Group 552">
        <path id="Path_613" data-name="Path 613" class="cls-6" d="M172.746,26.857s2.3-7.405,4.937-11.576-5.7-7.405-14.385-8.172c0,0-20.259-11.406-40.773-.085,0,0-9.448.17-13.194,7.065-3.745,6.98-6.639,23.238-6.639,23.238s-5.958,35.24,19.152,46.221,34.644,4.682,34.644,4.682,16.173-8.342,21.025-20.855C177.513,67.375,186.706,46.01,172.746,26.857Z" transform="translate(-102.075 -2.015)"/>
        <path id="Path_614" data-name="Path 614" class="cls-3" d="M143.126,2.8s4.426,6.384,1.277,9.193c-3.149,2.724-11.151,7.235-10.725,16.343s2.894,11.236-3.149,14.641l-1.447.511s-10.64,1.532-11.917,12.172,9.959,29.026,26.728,32.516L129,86.559s-12.428-4.171-16.854-9.789c0,0-8.342-9.023-9.789-20.429s3.4-34.133,3.4-34.133L110.1,11.993l6.469-3.745,6.81-1.873,11.491-3.49Z" transform="translate(-102.076 -2.132)"/>
        <path id="Path_615" data-name="Path 615" class="cls-9" d="M129.4,47.975s6.725.085,7.746-3.32l-2.894-.255S134.252,46.613,129.4,47.975Z" transform="translate(-106.141 -8.321)"/>
        <path id="Path_616" data-name="Path 616" d="M135.613,35.8c.426-.085.936.34,1.192.6,1.192,1.192,1.277,2.979,1.277,4.767,0,1.447-.511,3.149-2.213,3.49-2.383.34-2.468-1.021-2.468-3.32S133.826,35.968,135.613,35.8Z" transform="translate(-106.736 -7.04)"/>
        <path id="Path_617" data-name="Path 617" class="cls-10" d="M172.42,18.1a15.1,15.1,0,0,0-6.129,13.79c.681,9.534,2.724,18.556.426,23.068,0,0,5.277-.34,6.469-9.789,0,0,9.789,5.873,1.362,37.368l1.277.766s9.023-6.3,9.789-10.129l3.575-9.534L190.04,53l-1.192-10.214-3.916-8.938-4.171-8Z" transform="translate(-111.623 -4.408)"/>
        <path id="Path_618" data-name="Path 618" class="cls-11" d="M171.5,44.6h0a3.467,3.467,0,0,0,2.3,2.639,21.067,21.067,0,0,1,4.256,2.724s-1.447-3.235-3.235-4.511Z" transform="translate(-112.405 -8.351)"/>
        <path id="Path_619" data-name="Path 619" d="M173.41,36s1.277-.426,2.043,2.383c.681,2.724.34,7.235-2.128,6.384s-2.128-4.086-2.128-4.086S171.027,36.166,173.41,36Z" transform="translate(-112.358 -7.067)"/>
        <path id="Path_620" data-name="Path 620" class="cls-1" d="M174.171,38.417s-.17.936.17.936c.426,0,.766-.426.766-1.277a1.3,1.3,0,0,0-.851-1.277C174.086,36.885,173.83,36.8,174.171,38.417Z" transform="translate(-112.777 -7.191)"/>
        <path id="Path_621" data-name="Path 621" class="cls-3" d="M168.267,6.9s-.936,4.256,1.362,6.725,9.619,8.512,11.406,14.3l2.469-2.979,4.937-10.81-2.979-3.575L174.225,7.921Z" transform="translate(-111.896 -2.742)"/>
        <path id="Path_622" data-name="Path 622" class="cls-9" d="M110.225,23.081l.17-.17.681-.511,7.746,5.958s-11.832,6.469-13.7,33.027L103.5,60.364l.511-22.131,3.064-11.747" transform="translate(-102.287 -5.048)"/>
        <path id="Path_623" data-name="Path 623" class="cls-12" d="M109.735,22l1.788,1.192s-2.894,3.235-5.022,10.385L107.266,22Z" transform="translate(-102.733 -4.988)"/>
        <path id="Path_624" data-name="Path 624" class="cls-13" d="M156.149,73.141s.17-2.3-4.086-3.575c-4.171-1.277-4.341-1.788-4.171-2.894a5.429,5.429,0,0,1,1.958-1.192c1.447-.6,2.724-2.383,5.192-2.383h.17a4.527,4.527,0,0,1,3.32,1.021c1.447,1.277,3.149.511,3.916,2.213S156.916,68.714,156.149,73.141Z" transform="translate(-108.886 -11.1)"/>
        <path id="Path_625" data-name="Path 625" class="cls-12" d="M155.738,72.7c0,1.532,1.873,8.257-1.788,9.534a10.222,10.222,0,0,1-7.15-.426s3.575,2.383,9.789,2.3c6.129-.17,9.023-3.575,9.023-3.575s-5.618,2.468-7.32.936C156.759,80.191,157.27,75.509,155.738,72.7Z" transform="translate(-108.73 -12.532)"/>
        <path id="Path_626" data-name="Path 626" class="cls-11" d="M153.077,66.241a3.139,3.139,0,0,1,2.894-.851c1.873.34,2.3.766,4.086.766s2.3.511,2.3.511l-4.341,2.383a3.014,3.014,0,0,1-2.383,1.277c-1.447-.085-2.383-1.021-3.235-1.021s-4.6-2.213-4.6-2.213S148.821,66.07,153.077,66.241Z" transform="translate(-108.879 -11.435)"/>
        <path id="Path_627" data-name="Path 627" class="cls-12" d="M159.2,69.078a3.9,3.9,0,0,1,4.937-2.213S163.116,68.993,159.2,69.078Z" transform="translate(-110.575 -11.634)"/>
        <path id="Path_628" data-name="Path 628" class="cls-12" d="M148,67.265s3.49-1.107,5.107,1.873C153.107,69.138,149.788,69.648,148,67.265Z" transform="translate(-108.908 -11.694)"/>
        <path id="Path_629" data-name="Path 629" class="cls-8" d="M172.746,26.857s2.3-7.405,4.937-11.576-5.7-7.405-14.385-8.172c0,0-20.259-11.406-40.773-.085,0,0-9.448.17-13.194,7.065-3.745,6.98-6.639,23.238-6.639,23.238s-5.958,35.24,19.152,46.221,34.644,4.682,34.644,4.682,16.173-8.342,21.025-20.855C177.513,67.375,186.706,46.01,172.746,26.857Z" transform="translate(-102.075 -2.015)"/>
        <path id="Path_630" data-name="Path 630" class="cls-14" d="M110.3,21.232s2.639-8.342,16.684-2.043a4.348,4.348,0,0,0-3.575,2.128c-1.192,2.128-2.043,5.958-3.49,6.214C119.834,27.531,115.152,26.509,110.3,21.232Z" transform="translate(-103.299 -4.22)"/>
        <path id="Path_631" data-name="Path 631" class="cls-12" d="M176.519,82.8s-.511,9.448-1.532,11.321L166.9,98.292C166.9,98.377,173.625,95.909,176.519,82.8Z" transform="translate(-111.72 -14.035)"/>
        <path id="Path_632" data-name="Path 632" class="cls-1" d="M136.485,38.616s-.085-1.277-.085-1.362c0-.511.511-.17.681.085.426.6.511,1.873-.255,2.213C136.23,39.807,136.485,38.616,136.485,38.616Z" transform="translate(-107.182 -7.219)"/>
      </g>
    </g>
    <g id="Group_554" data-name="Group 554" transform="translate(110.376 94.188)">
      <path id="Path_633" data-name="Path 633" class="cls-15" d="M137.2,140.12a5.7,5.7,0,0,1-5.7-5.7V117.9a5.7,5.7,0,0,1,5.7-5.7h1.617a5.7,5.7,0,0,1,5.7,5.7v16.513a5.7,5.7,0,0,1-5.7,5.7Z" transform="translate(-129.883 -110.583)"/>
      <path id="Path_634" data-name="Path 634" class="cls-12" d="M138.623,113.7a4,4,0,0,1,4,4v16.513a4,4,0,0,1-4,4h-1.617a4,4,0,0,1-4-4V117.705a4,4,0,0,1,4-4h1.617m0-3.4h-1.617a7.411,7.411,0,0,0-7.405,7.405v16.513a7.411,7.411,0,0,0,7.405,7.406h1.617a7.411,7.411,0,0,0,7.405-7.406V117.705a7.465,7.465,0,0,0-7.405-7.405Z" transform="translate(-129.6 -110.3)"/>
    </g>
    <g id="Group_555" data-name="Group 555" transform="translate(172.743 34.263)">
      <path id="Path_635" data-name="Path 635" class="cls-15" d="M222.674,68.443a5.733,5.733,0,0,1-4.511-2.128l-11.917-13.96a6.115,6.115,0,0,1-1.447-4.341,5.773,5.773,0,0,1,2.043-4.086l.851-.681a5.964,5.964,0,0,1,3.83-1.447,5.734,5.734,0,0,1,4.511,2.128l11.917,13.96a6.115,6.115,0,0,1,1.447,4.341,5.773,5.773,0,0,1-2.043,4.086L226.5,67A5.964,5.964,0,0,1,222.674,68.443Z" transform="translate(-203.155 -40.183)"/>
      <path id="Path_636" data-name="Path 636" class="cls-12" d="M211.322,43.3a4.193,4.193,0,0,1,3.235,1.532L226.474,58.8a4.2,4.2,0,0,1-.511,5.958l-.851.681a4.164,4.164,0,0,1-5.958-.511L207.237,51.051a4.2,4.2,0,0,1,.511-5.958l.851-.681a3.726,3.726,0,0,1,2.724-1.107m0-3.4h0a7.583,7.583,0,0,0-4.937,1.873l-.851.681a7.712,7.712,0,0,0-2.639,5.192,7.966,7.966,0,0,0,1.788,5.618L216.6,67.224a7.482,7.482,0,0,0,10.725.851l.851-.681a7.676,7.676,0,0,0,.851-10.81l-11.917-13.96a7.382,7.382,0,0,0-5.788-2.724Z" transform="translate(-202.87 -39.9)"/>
    </g>
    <g id="Group_558" data-name="Group 558" transform="translate(82.031 18.601)">
      <path id="Path_637" data-name="Path 637" d="M122.041,59.655,110.72,51.739a7.645,7.645,0,0,1-3.32-6.384V37.949a7.725,7.725,0,0,1,3.4-6.384L121.019,24.5Z" transform="translate(-97.952 -21.946)"/>
      <g id="Group_557" data-name="Group 557" transform="translate(15.577)">
        <g id="Group_556" data-name="Group 556" transform="translate(0 0.085)">
          <path id="Path_638" data-name="Path 638" d="M162.182,60.841a12.507,12.507,0,0,1-8.767-3.575l-1.958-1.958a1.439,1.439,0,0,0-2.043,0l-1.958,1.958a12.358,12.358,0,0,1-8.767,3.575h-8.172A15.948,15.948,0,0,1,114.6,44.923V37.518A15.948,15.948,0,0,1,130.518,21.6h39.666A15.948,15.948,0,0,1,186.1,37.518v7.405a15.948,15.948,0,0,1-15.918,15.918Z" transform="translate(-114.6 -21.6)"/>
          <path id="Path_639" data-name="Path 639" class="cls-16" d="M183.647,38.1V45.5a12.569,12.569,0,0,1-12.6,12.6h-8.172a9.019,9.019,0,0,1-6.384-2.639L154.536,53.5a4.727,4.727,0,0,0-6.725,0l-1.958,1.958a9.019,9.019,0,0,1-6.384,2.639H131.3a12.569,12.569,0,0,1-12.6-12.6V38.1a12.569,12.569,0,0,1,12.6-12.6h39.666A12.588,12.588,0,0,1,183.647,38.1Z" transform="translate(-115.21 -22.18)"/>
          <path id="Path_640" data-name="Path 640" class="cls-17" d="M181.1,29.826a74.766,74.766,0,0,1-29.452,5.618A76.631,76.631,0,0,1,122.2,29.826a12.578,12.578,0,0,1,9.619-4.426h39.666A12.578,12.578,0,0,1,181.1,29.826Z" transform="translate(-115.731 -22.165)"/>
          <path id="Path_641" data-name="Path 641" class="cls-17" d="M135.762,25.4,125.633,56.639a13,13,0,0,1-5.533-5.788l8.086-25.025a13.62,13.62,0,0,1,3.32-.426Z" transform="translate(-115.418 -22.165)"/>
          <path id="Path_642" data-name="Path 642" class="cls-17" d="M155.63,25.4l-10.3,31.835a8.843,8.843,0,0,1-3.916.936h-8.172A16.529,16.529,0,0,1,131.2,58l10.555-32.516H155.63Z" transform="translate(-117.07 -22.165)"/>
        </g>
        <rect id="Rectangle_1583" data-name="Rectangle 1583" class="cls-15" width="9.874" height="3.32" transform="translate(17.365)"/>
        <rect id="Rectangle_1584" data-name="Rectangle 1584" class="cls-15" width="9.874" height="3.32" transform="translate(44.603)"/>
      </g>
      <path id="Path_643" data-name="Path 643" d="M107.706,48.391H99.024A2.689,2.689,0,0,1,96.3,45.667V43.624A2.689,2.689,0,0,1,99.024,40.9h8.6a2.689,2.689,0,0,1,2.724,2.724v2.043A2.671,2.671,0,0,1,107.706,48.391Z" transform="translate(-96.3 -24.387)"/>
    </g>
    <path id="Path_644" data-name="Path 644" class="cls-18" d="M218.736,55.4s-4.767.766-4.937-1.192c-.255-4.341,9.193-8.6,16-3.064,7.406,6.044-2.3,19.833-5.192,16.854-1.021-.766-.17-6.725-.17-6.725s-5.533,1.7-7.235.085C215.331,59.737,218.736,55.4,218.736,55.4Z" transform="translate(-31.752 -6.918)"/>
    <path id="Path_645" data-name="Path 645" class="cls-18" d="M138.912,135.977s4.6,1.447,3.83,3.235c-1.7,4-12,3.66-15.662-4.341-4-8.682,10.81-16.854,12-12.853.6,1.192-2.809,6.129-2.809,6.129s5.7.936,6.554,3.149C143.934,133.679,138.912,135.977,138.912,135.977Z" transform="translate(-18.748 -17.7)"/>
    <path id="Path_646" data-name="Path 646" class="cls-12" d="M127.768,122.5s-7.491-2.469-12.768-12a19.8,19.8,0,0,0,10.981,15.492Z" transform="translate(-17.052 -16.142)"/>
    <path id="Path_647" data-name="Path 647" class="cls-8" d="M136.878,141.84h0a5.088,5.088,0,0,1-1.532,3.66l-1.192,1.192a7.5,7.5,0,0,1-10.555,0l-.255-.255a20.693,20.693,0,0,1-6.044-14.556v-7.916a3.052,3.052,0,0,1,3.064-3.064h0a3.052,3.052,0,0,1,3.064,3.064" transform="translate(-17.394 -17.689)"/>
    <path id="Path_648" data-name="Path 648" class="cls-19" d="M127.6,144.3" transform="translate(-18.927 -21.171)"/>
    <path id="Path_649" data-name="Path 649" class="cls-8" d="M225.133,71.342v4.6a3.755,3.755,0,0,1-6.469,2.639l-10.81-10.725A2.842,2.842,0,0,1,209.812,63h0" transform="translate(-30.743 -9.074)"/>
    <path id="Path_650" data-name="Path 650" class="cls-20" d="M121.3,93.8s16.428,16.428,38.3,16.173c0,0,17.024,1.277,22.557-34.474L173.9,88.268,159.689,99.93l-13.023,1.277-19.578-4.682Z" transform="translate(-17.989 -10.934)"/>
    <path id="Path_651" data-name="Path 651" class="cls-20" d="M215.859,71.3s-11.321,28.686-18.131,38.56,1.107,30.643,3.66,34.3,15.066,39.751,6.554,47.412l-3.149,2.3s18.131,4.852,18.982,8.767l1.958-1.958-11.321-8.767.6-22.387-2.554-13.023-8.767-23.578.255-16.428L215.859,85l4.256-11.321Z" transform="translate(-28.96 -10.309)"/>
  </g>
</svg>
