<svg xmlns="http://www.w3.org/2000/svg" viewBox="0 0 219.48 259.858">
  <defs>
    <style>
      .cls-1 {
        fill: #fff;
      }

      .cls-2 {
        fill: #ed1c24;
      }

      .cls-3 {
        fill: #2d1211;
      }

      .cls-15, .cls-4 {
        fill: #492e1b;
      }

      .cls-4 {
        opacity: 0.1;
      }

      .cls-5 {
        fill: #61c8d4;
      }

      .cls-6 {
        fill: #cd8648;
      }

      .cls-7 {
        fill: #fff0ce;
      }

      .cls-8 {
        fill: #aa6629;
      }

      .cls-9 {
        fill: #d8c9a9;
      }

      .cls-10 {
        fill: #ceb389;
      }

      .cls-11 {
        fill: #dbcbac;
      }

      .cls-12 {
        fill: #87481f;
      }

      .cls-13 {
        fill: #d1d3d4;
      }

      .cls-14 {
        fill: #c42127;
      }

      .cls-15 {
        opacity: 0.2;
      }

      .cls-16 {
        fill: #edce96;
      }
    </style>
  </defs>
  <g id="Group_429" data-name="Group 429" transform="translate(0 -15)">
    <g id="Group_428" data-name="Group 428" transform="translate(0)">
      <ellipse id="Ellipse_295" data-name="Ellipse 295" class="cls-1" cx="109.001" cy="109.001" rx="109.001" ry="109.001" transform="translate(1.477 56.855)"/>
      <g id="Group_414" data-name="Group 414">
        <g id="Group_413" data-name="Group 413">
          <g id="Group_410" data-name="Group 410" transform="translate(30.59 70.812)">
            <line id="Line_41" data-name="Line 41" class="cls-2" y1="148.989" transform="translate(1.713)"/>
            <rect id="Rectangle_1560" data-name="Rectangle 1560" class="cls-3" width="3.425" height="148.989"/>
          </g>
          <g id="Group_411" data-name="Group 411" transform="translate(17.746 218.088)">
            <line id="Line_42" data-name="Line 42" class="cls-2" x2="43.669" transform="translate(0 1.713)"/>
            <rect id="Rectangle_1561" data-name="Rectangle 1561" class="cls-3" width="43.669" height="3.425"/>
          </g>
          <g id="Group_412" data-name="Group 412" transform="translate(0 15)">
            <path id="Path_155" data-name="Path 155" class="cls-1" d="M63.051,73.326H2L10.563,2H54.488Z" transform="translate(-0.266 -0.287)"/>
            <path id="Path_156" data-name="Path 156" class="cls-3" d="M62.76,74.751H1.709a1.541,1.541,0,0,1-1.284-.6A1.662,1.662,0,0,1,0,72.782L8.559,1.541A1.752,1.752,0,0,1,10.271,0H54.2A1.752,1.752,0,0,1,55.91,1.541l8.563,71.326a1.662,1.662,0,0,1-.428,1.37A1.47,1.47,0,0,1,62.76,74.751ZM3.678,71.326h57.2l-8.134-67.9H11.813Z" transform="translate(0.025)"/>
          </g>
        </g>
        <path id="Path_157" data-name="Path 157" class="cls-4" d="M48.9,2.6l4.453,70.47,16.44.257L62.771,2Z" transform="translate(-7.007 13.713)"/>
      </g>
      <path id="Path_158" data-name="Path 158" class="cls-5" d="M71.076,189.7s-11.988,3.768-15.841,19.18-29.969,67.473,73.21,64.9,90.506-24.061,92.219-45.039-17.724-37.418-17.724-37.418Z" transform="translate(-7.092 -27.268)"/>
      <path id="Path_159" data-name="Path 159" class="cls-3" d="M121.148,275.381c-34.678,0-57.369-6.764-67.387-20.122-10.618-14.043-5.052-31.767-1.8-42.3a43.74,43.74,0,0,0,1.37-4.8c4.024-16.183,16.44-20.208,16.954-20.379l.257-.086H70.8l132.463,1.627.428.428c.856.685,20.036,17.3,18.324,38.874-.171,2.226-.171,4.538-.171,6.85-.086,19.266-.171,37.5-93.674,39.816C125.772,275.381,123.46,275.381,121.148,275.381Zm-50.091-84.17c-1.713.6-11.131,4.709-14.471,17.9-.343,1.37-.856,3.083-1.456,4.966-3.083,9.933-8.306,26.544,1.284,39.217,10.018,13.272,34.165,19.608,71.669,18.666,41.015-1.028,66.959-5.138,79.546-12.673,10.7-6.422,10.7-14.471,10.789-23.718a66.51,66.51,0,0,1,.257-7.107c1.456-18.067-13.786-32.966-16.611-35.62Z" transform="translate(-6.816 -26.981)"/>
      <path id="Path_160" data-name="Path 160" class="cls-6" d="M83.405,212.854s-26.544,50.776,54.8,35.791c0,0,83.485,18.581,61.394-34.935l-53.43-3.511Z" transform="translate(-11.372 -30.215)"/>
      <path id="Path_161" data-name="Path 161" class="cls-3" d="M167.03,251.285c-1.37,0-2.654,0-4.11-.086a158.869,158.869,0,0,1-25.088-3c-15.926,2.911-28.77,3.511-38.446,1.8,6.764.6,17.468-1.37,38.189-5.223l.342-.086.342.086c.428.086,45.81,9.933,59.339-6.165,4.966-5.908,4.966-14.728.171-26.458l-5.651-13.529-105.405,4.2L84.744,211.3l-.086.171c-.086.171-8.391,16.354-.6,26.8,4.11,5.48,6.593,8.905,10.532,10.618-5.908-1.8-10.361-4.624-13.358-8.563-8.563-11.559-.771-28.085.257-30.14l2.483-10.532,1.284-.086L194.345,195.2l6.508,15.755c5.309,12.929,5.138,23.033-.685,29.969C194.43,247.774,183.213,251.285,167.03,251.285Z" transform="translate(-11.084 -28.059)"/>
      <g id="Group_415" data-name="Group 415" transform="translate(83.448 45.899)">
        <path id="Path_162" data-name="Path 162" class="cls-7" d="M170.466,80.69s2.312-7.449,4.966-11.645c2.74-4.2-5.823-7.535-14.471-8.306,0,0-20.379-11.474-41.015-.086,0,0-9.5.171-13.272,7.107S100,91.137,100,91.137,94,126.586,119.262,137.546s34.85,4.709,34.85,4.709,16.269-8.391,21.15-20.978C175.261,121.448,184.594,99.871,170.466,80.69Z" transform="translate(-97.71 -53.894)"/>
        <path id="Path_163" data-name="Path 163" class="cls-6" d="M140.769,56.5s4.453,6.422,1.284,9.248-11.217,7.278-10.789,16.44,2.911,11.3-3.168,14.728l-1.456.514s-10.7,1.541-11.988,12.244,10.018,29.2,26.886,32.709l-14.984-1.627s-12.5-4.2-16.954-9.847c0,0-8.391-9.076-9.847-20.55s3.425-34.336,3.425-34.336l4.367-10.275,6.508-3.768L120.9,60.1l11.559-3.511Z" transform="translate(-97.726 -54.021)"/>
        <path id="Path_164" data-name="Path 164" class="cls-8" d="M126.8,101.7s6.764.086,7.792-3.339l-2.911-.257C131.6,98.014,131.681,100.326,126.8,101.7Z" transform="translate(-101.653 -60)"/>
        <path id="Path_165" data-name="Path 165" d="M133.025,89.5c.428-.086.942.343,1.2.6,1.2,1.2,1.284,3,1.284,4.8,0,1.456-.514,3.168-2.226,3.511-2.4.343-2.483-1.028-2.483-3.339C130.713,92.666,131.141,89.669,133.025,89.5Z" transform="translate(-102.226 -58.763)"/>
        <path id="Path_166" data-name="Path 166" class="cls-9" d="M169.757,71.8a15.188,15.188,0,0,0-6.165,13.871c.685,9.59,2.74,18.666.428,23.2,0,0,5.309-.343,6.508-9.847,0,0,9.847,5.908,1.37,37.59l1.284.771s9.076-6.336,9.847-10.189l3.6-9.59.856-10.7-1.2-10.275-3.939-8.991-4.2-8.049Z" transform="translate(-106.934 -56.22)"/>
        <path id="Path_167" data-name="Path 167" class="cls-10" d="M168.9,98.2h0a3.488,3.488,0,0,0,2.312,2.654,21.192,21.192,0,0,1,4.281,2.74s-1.456-3.254-3.254-4.538Z" transform="translate(-107.704 -60.015)"/>
        <path id="Path_168" data-name="Path 168" d="M170.824,89.7s1.284-.428,2.055,2.4c.685,2.74.342,7.278-2.141,6.422s-2.141-4.11-2.141-4.11S168.426,89.782,170.824,89.7Z" transform="translate(-107.658 -58.789)"/>
        <path id="Path_169" data-name="Path 169" class="cls-1" d="M171.478,92.127s-.171.942.171.942c.428,0,.771-.428.771-1.284a1.307,1.307,0,0,0-.856-1.284C171.392,90.586,171.221,90.5,171.478,92.127Z" transform="translate(-108.056 -58.908)"/>
        <path id="Path_170" data-name="Path 170" class="cls-6" d="M165.668,60.6s-.942,4.281,1.37,6.764,9.676,8.563,11.474,14.385l2.483-3,4.966-10.874-3-3.6-11.3-2.654Z" transform="translate(-107.212 -54.61)"/>
        <path id="Path_171" data-name="Path 171" class="cls-8" d="M107.664,76.785l.257-.171.6-.514,7.792,5.994s-11.9,6.508-13.786,33.223l-1.627-1.028.514-22.263L104.5,80.21" transform="translate(-97.93 -56.838)"/>
        <path id="Path_172" data-name="Path 172" class="cls-3" d="M107.054,75.7l1.8,1.2s-2.911,3.254-5.052,10.446l.771-11.645Z" transform="translate(-98.347 -56.781)"/>
        <path id="Path_173" data-name="Path 173" class="cls-11" d="M153.5,126.8s.171-2.312-4.11-3.6-4.367-1.8-4.2-2.911a5.462,5.462,0,0,1,1.969-1.2c1.456-.6,2.74-2.4,5.223-2.4h.171a4.554,4.554,0,0,1,3.339,1.028c1.456,1.284,3.168.514,3.939,2.226S154.354,122.433,153.5,126.8Z" transform="translate(-104.29 -62.671)"/>
        <path id="Path_174" data-name="Path 174" class="cls-3" d="M153.191,126.4c0,1.541,1.884,8.306-1.8,9.59a9.773,9.773,0,0,1-7.193-.428s3.6,2.4,9.847,2.312c6.165-.171,9.076-3.6,9.076-3.6s-5.651,2.483-7.364.942C154.218,133.935,154.646,129.226,153.191,126.4Z" transform="translate(-104.154 -64.069)"/>
        <path id="Path_175" data-name="Path 175" class="cls-10" d="M150.509,119.846a3.158,3.158,0,0,1,2.911-.856c1.884.342,2.312.771,4.11.771s2.312.514,2.312.514l-4.367,2.4a3.032,3.032,0,0,1-2.4,1.284c-1.456-.086-2.4-1.028-3.254-1.028S145.2,120.7,145.2,120.7,146.227,119.76,150.509,119.846Z" transform="translate(-104.298 -62.995)"/>
        <path id="Path_176" data-name="Path 176" class="cls-3" d="M156.6,122.793a3.926,3.926,0,0,1,4.966-2.226C161.481,120.481,160.453,122.707,156.6,122.793Z" transform="translate(-105.936 -63.201)"/>
        <path id="Path_177" data-name="Path 177" class="cls-3" d="M145.3,120.966s3.511-1.113,5.138,1.884C150.438,122.85,147.1,123.364,145.3,120.966Z" transform="translate(-104.312 -63.258)"/>
        <path id="Path_178" data-name="Path 178" class="cls-3" d="M144.755,145.648c-5.823,0-14.471-1.456-26.373-6.593-10.874-4.709-17.81-14.642-20.122-28.685a65.123,65.123,0,0,1-.171-19.694c.086-.685,2.911-16.783,6.85-23.975,3.768-6.936,12.244-7.878,14.3-8.049,19.865-10.7,39.131-1.284,42.042.171,6.165.6,13.871,2.654,15.755,6.508a4.232,4.232,0,0,1-.342,4.367c-2.055,3.168-3.853,8.391-4.538,10.446,13.7,19.523,4.881,40.843,4.453,41.7-4.881,12.673-20.636,21.15-21.835,21.835C154.174,144.021,151.092,145.648,144.755,145.648Zm-5.394-88.537a38.471,38.471,0,0,0-18.838,4.8l-.342.171h-.428c-.086,0-8.563.257-11.816,6.251-3.6,6.679-6.422,22.691-6.422,22.862a64.125,64.125,0,0,0,.171,18.666c2.141,12.929,8.22,21.663,18.067,25.945,23.718,10.361,33.137,4.881,33.223,4.881l.171-.086c.171-.086,15.755-8.306,20.293-20.036.086-.257,8.734-20.978-4.538-39.131l-.514-.685.257-.856c.086-.343,2.4-7.706,5.223-12.073a.979.979,0,0,0,.171-1.028c-.856-1.713-6.079-3.939-13.358-4.624h-.342L160,61.992A47.624,47.624,0,0,0,139.361,57.111Z" transform="translate(-97.431 -53.605)"/>
        <path id="Path_179" data-name="Path 179" class="cls-12" d="M107.6,74.958s2.654-8.391,16.783-2.055a4.374,4.374,0,0,0-3.6,2.141c-1.2,2.141-2.055,5.994-3.511,6.251C117.276,81.294,112.566,80.266,107.6,74.958Z" transform="translate(-98.893 -56.038)"/>
        <path id="Path_180" data-name="Path 180" class="cls-3" d="M173.876,136.5s-.514,9.5-1.541,11.388l-8.134,4.2C164.286,152.084,170.964,149.6,173.876,136.5Z" transform="translate(-107.029 -65.52)"/>
        <path id="Path_181" data-name="Path 181" class="cls-1" d="M133.886,92.225s-.086-1.284-.086-1.37c0-.514.514-.171.685.086.428.6.514,1.884-.257,2.226C133.629,93.51,133.886,92.225,133.886,92.225Z" transform="translate(-102.659 -58.921)"/>
      </g>
      <g id="Group_426" data-name="Group 426" transform="translate(50.539 101.894)">
        <g id="Group_423" data-name="Group 423" transform="translate(10.791)">
          <g id="Group_416" data-name="Group 416" transform="translate(3.671 0.021)">
            <path id="Path_182" data-name="Path 182" class="cls-1" d="M77.9,123.569,88.175,121s40.415,6.593,53.088,24.831l-2.141,2.569-4.11-.771Z" transform="translate(-76.177 -119.309)"/>
            <path id="Path_183" data-name="Path 183" class="cls-3" d="M138.833,149.829h-.342l-4.11-.771c-.086,0-.257-.086-.342-.086L76.926,124.912A1.61,1.61,0,0,1,75.9,123.2a1.747,1.747,0,0,1,1.284-1.541l10.275-2.569a.945.945,0,0,1,.685,0,157.73,157.73,0,0,1,22.091,5.651c15.841,5.309,26.715,11.988,32.2,19.951a1.675,1.675,0,0,1-.086,2.055l-2.141,2.569A2.427,2.427,0,0,1,138.833,149.829Zm-3.6-4.11,3,.6.6-.771c-12.33-15.926-47.094-22.434-50.947-23.119l-4.966,1.2Z" transform="translate(-75.887 -119.025)"/>
          </g>
          <g id="Group_417" data-name="Group 417" transform="translate(67.076)">
            <path id="Path_184" data-name="Path 184" class="cls-13" d="M215.263,123.569,204.988,121s-40.415,6.593-53.088,24.831l2.141,2.569,4.11-.771Z" transform="translate(-150.219 -119.287)"/>
            <path id="Path_185" data-name="Path 185" class="cls-3" d="M153.758,149.825a1.674,1.674,0,0,1-1.284-.6l-2.141-2.569a1.675,1.675,0,0,1-.086-2.055c5.48-7.878,16.269-14.556,32.2-19.951A157.729,157.729,0,0,1,204.534,119h.685l10.275,2.569a1.747,1.747,0,0,1,1.284,1.541,1.61,1.61,0,0,1-1.028,1.713l-57.2,24.061a.515.515,0,0,1-.342.086l-4.11.771A.647.647,0,0,1,153.758,149.825Zm0-4.367.6.771,3-.6,52.232-22.006-4.966-1.2C200.852,123.11,166,129.618,153.758,145.458Z" transform="translate(-149.937 -119)"/>
          </g>
          <g id="Group_422" data-name="Group 422" transform="translate(0 0.279)">
            <g id="Group_420" data-name="Group 420">
              <g id="Group_418" data-name="Group 418" transform="translate(0 0.037)">
                <path id="Path_186" data-name="Path 186" class="cls-2" d="M133.367,147.273,73.6,121.5v71.669l59.767,30.825" transform="translate(-71.887 -119.675)"/>
                <path id="Path_187" data-name="Path 187" class="cls-3" d="M132.223,225.143,72.542,194.4a1.617,1.617,0,0,1-.942-1.541V121.108a1.682,1.682,0,0,1,.771-1.456A1.841,1.841,0,0,1,74,119.481l59.767,25.773-1.37,3.168L75.025,123.677v68.158l58.825,30.311Z" transform="translate(-71.6 -119.369)"/>
              </g>
              <g id="Group_419" data-name="Group 419" transform="translate(75.008)">
                <path id="Path_188" data-name="Path 188" class="cls-14" d="M160.1,147.273,219.867,121.5v71.669L160.1,223.994" transform="translate(-159.329 -119.638)"/>
                <path id="Path_189" data-name="Path 189" class="cls-3" d="M160.741,225.137l-1.541-3.083,58.825-30.311V123.671l-57.369,24.746-1.37-3.168,59.767-25.773a1.607,1.607,0,0,1,1.627.171,1.682,1.682,0,0,1,.771,1.456v71.754a1.8,1.8,0,0,1-.942,1.541Z" transform="translate(-159.2 -119.326)"/>
              </g>
            </g>
            <g id="Group_421" data-name="Group 421" transform="translate(59.424 25.495)">
              <rect id="Rectangle_1562" data-name="Rectangle 1562" class="cls-2" width="14.984" height="77.149" transform="translate(1.713 1.713)"/>
              <path id="Path_190" data-name="Path 190" class="cls-3" d="M157.7,229.674H142.713A1.718,1.718,0,0,1,141,227.961V150.813a1.718,1.718,0,0,1,1.713-1.713H157.7a1.718,1.718,0,0,1,1.713,1.713v77.149A1.718,1.718,0,0,1,157.7,229.674Zm-13.272-3.425h11.559V152.525H144.425Z" transform="translate(-141 -149.1)"/>
            </g>
          </g>
        </g>
        <path id="Path_191" data-name="Path 191" class="cls-15" d="M81.55,158.7s15.241,2.141,4.281,9.248c0,0,8.991,6.85-1.541,9.248,0,0,5.309,9.248-3.6,8.563L74.7,185.33V163.923Z" transform="translate(-61.255 -124.707)"/>
        <g id="Group_424" data-name="Group 424" transform="translate(0 29.113)">
          <path id="Path_192" data-name="Path 192" class="cls-16" d="M73.073,171.684s6.422,5.651,4.8,7.621c-.6,4.11-17.125-1.027-16.868-10.1.343-15.926,18.666-16.7,18.752-11.217.342,1.713-5.651,4.538-5.651,4.538s7.193,1.627,7.364,4.709C81.892,170.485,73.073,171.684,73.073,171.684Z" transform="translate(-59.285 -153.274)"/>
          <path id="Path_193" data-name="Path 193" class="cls-3" d="M74.84,182.2h-.856C68.675,181.77,58.828,176.8,59,168.926,59.257,157.2,68.247,153,74.241,153h0c4.024,0,6.85,1.884,6.936,4.624.171,1.37-.942,2.74-3.168,4.281,2.312,1.028,4.709,2.569,4.881,4.966.343,3.168-3.425,4.8-6.593,5.651,3.6,3.853,3.511,6.079,2.826,7.278C78.865,180.657,78.009,182.2,74.84,182.2Zm-.685-25.773c-8.391,0-11.645,7.535-11.816,12.587-.086,4.367,4.8,7.278,6.336,8.049,3.425,1.8,6.422,1.969,7.193,1.627l.086-.342.171-.171c-.171-.942-2.226-3.511-4.453-5.48l-2.826-2.483,3.682-.514c3.511-.514,6.764-1.8,6.936-2.569-.086-1.028-3.083-2.569-6.079-3.254l-4.8-1.113,4.453-2.141a18.321,18.321,0,0,0,4.709-3.083c-.086-.514-1.541-1.113-3.6-1.113Z" transform="translate(-58.997 -153)"/>
        </g>
        <path id="Path_194" data-name="Path 194" class="cls-15" d="M217.216,158.7s-15.241,2.141-4.281,9.248c0,0-8.991,6.85,1.541,9.248,0,0-5.309,9.248,3.6,8.563l5.994-.428V163.923Z" transform="translate(-80.555 -124.707)"/>
        <g id="Group_425" data-name="Group 425" transform="translate(133.043 29.113)">
          <path id="Path_195" data-name="Path 195" class="cls-16" d="M224.789,171.684s-6.422,5.651-4.8,7.621c.6,4.11,17.125-1.027,16.868-10.1-.342-15.926-18.666-16.7-18.752-11.217-.342,1.713,5.651,4.538,5.651,4.538s-7.193,1.627-7.364,4.709C215.969,170.485,224.789,171.684,224.789,171.684Z" transform="translate(-214.663 -153.274)"/>
          <path id="Path_196" data-name="Path 196" class="cls-3" d="M222.445,182.2c-3.083,0-4.024-1.541-4.281-2.483-.685-1.2-.771-3.425,2.826-7.278-3.168-.856-6.936-2.483-6.593-5.651.171-2.312,2.569-3.939,4.881-4.881-2.226-1.456-3.254-2.911-3.083-4.281.086-2.74,2.911-4.624,6.936-4.624h0c5.994,0,14.9,4.281,15.241,15.926.171,7.878-9.676,12.844-14.984,13.272Zm-1.028-3.511c.771.342,3.768.171,7.193-1.627,1.541-.771,6.422-3.682,6.336-8.049-.086-5.052-3.339-12.587-11.816-12.587h0c-2.055,0-3.425.685-3.511,1.284a18.321,18.321,0,0,0,4.709,3.083l4.453,2.141-4.8,1.113c-3.083.685-5.994,2.226-6.079,3.168.171.856,3.425,2.141,6.936,2.654l3.682.514-2.826,2.483c-2.226,1.969-4.281,4.538-4.453,5.48l.171.171Z" transform="translate(-214.375 -153)"/>
        </g>
      </g>
      <g id="Group_427" data-name="Group 427" transform="translate(97.283 196.599)">
        <path id="Path_197" data-name="Path 197" class="cls-3" d="M124.558,233.539c-7.278-1.027-10.96.856-10.96.856s-.428-2.74,4.453-4.453S124.558,233.539,124.558,233.539Z" transform="translate(-113.589 -229.603)"/>
        <path id="Path_198" data-name="Path 198" class="cls-3" d="M177,233.539c7.278-1.027,10.96.856,10.96.856s.428-2.74-4.453-4.453S177,233.539,177,233.539Z" transform="translate(-122.704 -229.603)"/>
      </g>
      <path id="Path_199" data-name="Path 199" class="cls-3" d="M157.891,254.37l-3.425-.428,1.713.257-1.713-.257a13.828,13.828,0,0,0-5.566-11.9l2.055-2.74A17.154,17.154,0,0,1,157.891,254.37Z" transform="translate(-21.382 -34.398)"/>
      <path id="Path_200" data-name="Path 200" class="cls-15" d="M155.868,240.4s3.853,1.027,6.679,5.994,19.009,8.391,19.009,8.391l-22.091.685-2.74-1.884L154.84,244l-2.74-2.74Z" transform="translate(-21.842 -34.556)"/>
      <path id="Path_201" data-name="Path 201" class="cls-15" d="M79.5,216.766s-4.281-5.138-13.272-5.566c0,0,11.559,4.11,12.159,13.015a15.081,15.081,0,0,0-14.556-1.027s11.131,1.884,13.272,5.994c0,0-8.991-.171-13.7,5.994,0,0,12.844-3.6,14.556.171" transform="translate(-9.092 -30.359)"/>
      <path id="Path_202" data-name="Path 202" class="cls-15" d="M221.5,216.766s4.281-5.138,13.272-5.566c0,0-11.559,4.11-12.159,13.015a15.081,15.081,0,0,1,14.556-1.027s-11.131,1.884-13.272,5.994c0,0,8.991-.171,13.7,5.994,0,0-12.844-3.6-14.556.171" transform="translate(-31.818 -30.359)"/>
      <path id="Path_203" data-name="Path 203" class="cls-15" d="M206.2,216.423s10.1,16.1.856,30.654l3.6.171s10.275-5.138,10.7-10.275-4.281-26.373-4.281-26.373Z" transform="translate(-29.618 -30.273)"/>
      <path id="Path_204" data-name="Path 204" class="cls-15" d="M115.676,258.526l-9.076,8.306,20.55-5.994-2.312,7.706,7.963-7.706,1.456,8.563,5.138-11.131,2.826,10.789,2.569-8.819,10.275,6.85-2.226-7.449,13.957,5.737-4.024-6.251,14.9,7.107-4.281-7.706L143.676,255.7Z" transform="translate(-15.301 -36.755)"/>
      <path id="Path_205" data-name="Path 205" class="cls-15" d="M222.766,207.472l1.113-.771,4.11-3,.771-9.5s15.413,11.988,15.413,24.4-.428,30.4-.428,30.4-10.7,16.269-26.544,17.553c0,0,20.122-10.275,19.266-29.113-.856-18.067-17.039-26.03-17.039-26.03" transform="translate(-31.199 -27.915)"/>
    </g>
    <path id="Path_206" data-name="Path 206" class="cls-3" d="M84.841,245.5s6.508,12.33,33.48,10.189l4.024,2.141s-27.4,4.966-39.645-9.248" transform="translate(-11.866 -35.289)"/>
  </g>
</svg>
