<svg xmlns="http://www.w3.org/2000/svg" viewBox="0 0 228.53 226.635">
  <defs>
    <style>
      .cls-1, .cls-10, .cls-20 {
        fill: #fff;
      }

      .cls-2 {
        fill: #d6cfc5;
      }

      .cls-2, .cls-20 {
        opacity: 0.5;
      }

      .cls-3 {
        fill: #2d1211;
      }

      .cls-4, .cls-8 {
        fill: #cd8648;
      }

      .cls-5, .cls-6 {
        fill: none;
      }

      .cls-10, .cls-13, .cls-6, .cls-8 {
        stroke: #2d1211;
        stroke-miterlimit: 10;
        stroke-width: 4px;
      }

      .cls-7 {
        fill: #f4f0eb;
      }

      .cls-9 {
        fill: #492e1b;
        opacity: 0.2;
      }

      .cls-11 {
        fill: #4ab04d;
      }

      .cls-12 {
        fill: #8dc73f;
      }

      .cls-13 {
        fill: #edce96;
      }

      .cls-14 {
        fill: #fff0ce;
      }

      .cls-15 {
        fill: #aa6629;
      }

      .cls-16 {
        fill: #d8c9a9;
      }

      .cls-17 {
        fill: #ceb389;
      }

      .cls-18 {
        fill: #dbcbac;
      }

      .cls-19 {
        fill: #87481f;
      }

      .cls-21 {
        fill: #ee252c;
      }

      .cls-22 {
        fill: #fba919;
      }

      .cls-23 {
        fill: #0392b2;
      }

      .cls-24 {
        fill: #00aeef;
      }
    </style>
  </defs>
  <g id="Group_579" data-name="Group 579" transform="translate(0 0.11)">
    <circle id="Ellipse_303" data-name="Ellipse 303" class="cls-1" cx="108.148" cy="108.148" r="108.148" transform="translate(0 10.228)"/>
    <ellipse id="Ellipse_304" data-name="Ellipse 304" class="cls-2" cx="84.106" cy="16.142" rx="84.106" ry="16.142" transform="translate(60.318 176.995)"/>
    <rect id="Rectangle_1585" data-name="Rectangle 1585" class="cls-3" width="98.548" height="10.789" transform="translate(12.064 107.332)"/>
    <rect id="Rectangle_1586" data-name="Rectangle 1586" class="cls-3" width="51.568" height="8.496" transform="translate(32.719 116.434) rotate(90)"/>
    <path id="Path_652" data-name="Path 652" class="cls-1" d="M51.9,165.1v.17h0Z" transform="translate(-7.808 -24.55)"/>
    <path id="Path_653" data-name="Path 653" class="cls-4" d="M192.985,83.37a.3.3,0,0,0-.085-.17l.085.085Z" transform="translate(-29.021 -12.229)"/>
    <g id="Group_560" data-name="Group 560" transform="translate(163.879 70.971)">
      <path id="Path_654" data-name="Path 654" class="cls-4" d="M192.985,83.37a.3.3,0,0,0-.085-.17l.085.085Z" transform="translate(-192.9 -83.2)"/>
    </g>
    <g id="Group_561" data-name="Group 561" transform="translate(96.864 26.511)">
      <path id="Path_655" data-name="Path 655" class="cls-5" d="M138.215,32.764c-1.869-1.274-5.182-1.7-11.129-1.869-3.908-.085-9.345-.17-11.639,2.8-2.888,3.738-1.1,13.933,2.719,16.4,6.881,4.418,14.527,2.464,18.265-1.1,1.784-1.7,3.653-3.738,4.163-8.92a18.874,18.874,0,0,0-.17-4.418A5.376,5.376,0,0,0,138.215,32.764Z" transform="translate(-114.017 -30.867)"/>
      <path id="Path_656" data-name="Path 656" class="cls-5" d="M161.87,32.764c1.869-1.274,5.182-1.7,11.129-1.869,3.908-.085,9.345-.17,11.639,2.8,2.888,3.738,1.1,13.933-2.719,16.4-6.881,4.418-14.527,2.464-18.265-1.1-1.784-1.7-3.653-3.738-4.163-8.92a18.875,18.875,0,0,1,.17-4.418A5.376,5.376,0,0,1,161.87,32.764Z" transform="translate(-120.851 -30.867)"/>
    </g>
    <path id="Path_657" data-name="Path 657" class="cls-6" d="M93.2,162" transform="translate(-14.021 -24.084)"/>
    <path id="Path_658" data-name="Path 658" class="cls-7" d="M127.2,144.3" transform="translate(-19.137 -21.421)"/>
    <path id="Path_659" data-name="Path 659" class="cls-8" d="M106.734,72.7S94.5,87.992,94.5,142.618c0,0,2.549,45.451,11.469,60.743l-5.862,1.444c-4.163,1.019-3.4,7.221.85,7.221l26.591.17a6.09,6.09,0,0,0,6.117-5.437l2.8-31.434h12.319l2.8,31.518a6.09,6.09,0,0,0,6.117,5.437h28.205a3.653,3.653,0,0,0,1.1-7.136l-4.163-1.359s6.372-44.007,5.947-59.384v-1.784C187.526,95.043,173.933,72.7,173.933,72.7" transform="translate(-14.217 -10.649)"/>
    <path id="Path_660" data-name="Path 660" class="cls-9" d="M202.119,177.7l-.425,11.044-4.5,31.688-7.391,2.8,1.7-3.993c2.549-10.11,3.313-28.205,3.568-39.759Z" transform="translate(-28.554 -26.446)"/>
    <path id="Path_661" data-name="Path 661" class="cls-4" d="M192.985,83.37a.3.3,0,0,0-.085-.17l.085.085Z" transform="translate(-29.021 -12.229)"/>
    <g id="Group_562" data-name="Group 562" transform="translate(130.322 144.627)">
      <path id="Path_662" data-name="Path 662" class="cls-4" d="M153.4,170.495c1.529-.17,2.973-.425,4.5-.595A12.853,12.853,0,0,1,153.4,170.495Z" transform="translate(-153.4 -169.9)"/>
    </g>
    <g id="Group_563" data-name="Group 563" transform="translate(163.879 70.971)">
      <path id="Path_663" data-name="Path 663" class="cls-4" d="M192.985,83.37a.3.3,0,0,0-.085-.17l.085.085Z" transform="translate(-192.9 -83.2)"/>
    </g>
    <path id="Path_664" data-name="Path 664" class="cls-10" d="M220.677,77.7A57.851,57.851,0,0,1,195.7,89.254l5.437,24.127c23.193-9.685,28.8-30.414,28.8-30.414Z" transform="translate(-29.442 -11.402)"/>
    <g id="Group_565" data-name="Group 565" transform="translate(176.028 10.483)">
      <path id="Path_665" data-name="Path 665" class="cls-1" d="M253.128,102.472a19.105,19.105,0,1,1-29.649-9.345l-7.986-24.382-1.529.51a4.1,4.1,0,0,1-5.1-2.549h0a4.1,4.1,0,0,1,2.549-5.1l14.952-4.842a4.1,4.1,0,0,1,5.1,2.549h0a4.1,4.1,0,0,1-2.549,5.1l-1.529.51L235.372,89.3A19.032,19.032,0,0,1,253.128,102.472Z" transform="translate(-207.422 -18.706)"/>
      <g id="Group_564" data-name="Group 564">
        <path id="Path_666" data-name="Path 666" class="cls-6" d="M253.128,102.472a19.105,19.105,0,1,1-29.649-9.345l-7.986-24.382-1.529.51a4.1,4.1,0,0,1-5.1-2.549h0a4.1,4.1,0,0,1,2.549-5.1l14.952-4.842a4.1,4.1,0,0,1,5.1,2.549h0a4.1,4.1,0,0,1-2.549,5.1l-1.529.51L235.372,89.3A19.032,19.032,0,0,1,253.128,102.472Z" transform="translate(-207.422 -18.706)"/>
        <path id="Path_667" data-name="Path 667" class="cls-11" d="M251.995,117.7a14.7,14.7,0,1,1-29.395,0c0,1.869,6.627,3.4,14.7,3.4S251.995,119.569,251.995,117.7Z" transform="translate(-209.517 -27.902)"/>
        <path id="Path_668" data-name="Path 668" class="cls-12" d="M251.995,117.1c0,1.869-6.627,3.4-14.7,3.4-8.156,0-14.7-1.529-14.7-3.4s6.627-3.4,14.7-3.4S251.995,115.229,251.995,117.1Z" transform="translate(-209.517 -27.3)"/>
        <circle id="Ellipse_305" data-name="Ellipse 305" class="cls-12" cx="2.973" cy="2.973" r="2.973" transform="translate(3.653 26.336)"/>
        <circle id="Ellipse_306" data-name="Ellipse 306" class="cls-12" cx="4.418" cy="4.418" r="4.418" transform="translate(10.45 11.894)"/>
        <circle id="Ellipse_307" data-name="Ellipse 307" class="cls-12" cx="2.973" cy="2.973" r="2.973"/>
      </g>
    </g>
    <path id="Path_669" data-name="Path 669" class="cls-13" d="M227.381,76.274s-4.673-1.189-3.993-3.058c1.529-4.078,11.809-4.163,15.8,3.653,4.333,8.5-10.025,17.246-11.469,13.338-.595-1.1,2.549-6.2,2.549-6.2s-5.777-.68-6.711-2.8C222.538,78.823,227.381,76.274,227.381,76.274Z" transform="translate(-33.597 -10.315)"/>
    <path id="Path_670" data-name="Path 670" class="cls-9" d="M201.248,90.485l3.653,13a7.748,7.748,0,0,0,9.09,4.5l-11.894,6.8L197,90.4h4.248Z" transform="translate(-29.638 -13.312)"/>
    <g id="Group_566" data-name="Group 566" transform="translate(96.864 26.511)">
      <path id="Path_671" data-name="Path 671" class="cls-5" d="M138.215,32.764c-1.869-1.274-5.182-1.7-11.129-1.869-3.908-.085-9.345-.17-11.639,2.8-2.888,3.738-1.1,13.933,2.719,16.4,6.881,4.418,14.527,2.464,18.265-1.1,1.784-1.7,3.653-3.738,4.163-8.92a18.874,18.874,0,0,0-.17-4.418A5.376,5.376,0,0,0,138.215,32.764Z" transform="translate(-114.017 -30.867)"/>
      <path id="Path_672" data-name="Path 672" class="cls-5" d="M161.87,32.764c1.869-1.274,5.182-1.7,11.129-1.869,3.908-.085,9.345-.17,11.639,2.8,2.888,3.738,1.1,13.933-2.719,16.4-6.881,4.418-14.527,2.464-18.265-1.1-1.784-1.7-3.653-3.738-4.163-8.92a18.875,18.875,0,0,1,.17-4.418A5.376,5.376,0,0,1,161.87,32.764Z" transform="translate(-120.851 -30.867)"/>
    </g>
    <path id="Path_673" data-name="Path 673" class="cls-6" d="M188,72.7s13.593,22.343,14.867,69.918" transform="translate(-28.284 -10.649)"/>
    <path id="Path_674" data-name="Path 674" class="cls-6" d="M93.2,162" transform="translate(-14.021 -24.084)"/>
    <path id="Path_675" data-name="Path 675" class="cls-14" d="M119.809,93.593s-8.071,37.21,19.965,59.979a15.752,15.752,0,0,0,20.644-.68c8.92-8.411,19.37-29.9,14.188-63.292" transform="translate(-17.863 -13.192)"/>
    <path id="Path_676" data-name="Path 676" class="cls-10" d="M102.314,81s-16.4,39.08-8.5,97.1h34.832L132.9,98.841" transform="translate(-13.791 -11.898)"/>
    <path id="Path_677" data-name="Path 677" class="cls-10" d="M185.283,72.8s24.3,46.046,16.4,104.07H167.7l-5.1-80.113" transform="translate(-24.462 -10.664)"/>
    <g id="Group_571" data-name="Group 571" transform="translate(86.463 1.915)">
      <g id="Group_568" data-name="Group 568">
        <g id="Group_567" data-name="Group 567">
          <path id="Path_678" data-name="Path 678" class="cls-14" d="M172.309,26.794S174.6,19.4,177.237,15.24c2.719-4.163-5.777-7.476-14.357-8.241,0,0-20.219-11.384-40.694-.085,0,0-9.43.17-13.168,7.051-3.738,6.966-6.627,23.193-6.627,23.193S96.444,72.5,121.506,83.375s34.577,4.673,34.577,4.673,16.142-8.326,20.984-20.814C176.982,67.233,186.242,45.909,172.309,26.794Z" transform="translate(-101.775 -1.915)"/>
          <path id="Path_679" data-name="Path 679" class="cls-4" d="M142.761,2.8s4.418,6.372,1.274,9.175-11.129,7.221-10.7,16.311S136.219,39.5,130.188,42.9l-1.444.51s-10.619,1.529-11.894,12.149,10.025,28.97,26.761,32.538l-14.867-1.614s-12.4-4.163-16.821-9.77c0,0-8.326-9.005-9.77-20.389s3.4-34.067,3.4-34.067l4.333-10.195,6.457-3.738,6.8-1.869L134.605,2.97Z" transform="translate(-101.791 -2.048)"/>
          <path id="Path_680" data-name="Path 680" class="cls-15" d="M129.1,47.968s6.711.085,7.731-3.313l-2.888-.255S133.942,46.609,129.1,47.968Z" transform="translate(-105.886 -8.306)"/>
          <path id="Path_681" data-name="Path 681" d="M135.307,35.8c.425-.085.935.34,1.189.595,1.189,1.189,1.274,2.973,1.274,4.758,0,1.444-.51,3.143-2.209,3.483-2.379.34-2.464-1.019-2.464-3.313C133.013,39.026,133.438,35.968,135.307,35.8Z" transform="translate(-106.486 -7.011)"/>
          <path id="Path_682" data-name="Path 682" class="cls-16" d="M172.008,18.1a15.069,15.069,0,0,0-6.117,13.763c.68,9.515,2.719,18.52.425,23.023,0,0,5.267-.34,6.457-9.77,0,0,9.77,5.862,1.359,37.3l1.274.765s9.005-6.287,9.77-10.11l3.568-9.515.85-10.619L188.4,42.737l-3.908-8.92-4.163-7.986Z" transform="translate(-111.414 -4.35)"/>
          <path id="Path_683" data-name="Path 683" class="cls-17" d="M171.2,44.6h0a3.46,3.46,0,0,0,2.294,2.634,21.027,21.027,0,0,1,4.248,2.719s-1.444-3.228-3.228-4.5Z" transform="translate(-112.22 -8.337)"/>
          <path id="Path_684" data-name="Path 684" d="M173.106,36s1.274-.425,2.039,2.379c.68,2.719.34,7.221-2.124,6.372s-2.124-4.078-2.124-4.078S170.727,36.166,173.106,36Z" transform="translate(-112.172 -7.039)"/>
          <path id="Path_685" data-name="Path 685" class="cls-1" d="M173.78,38.414s-.17.935.17.935c.425,0,.765-.425.765-1.274a1.3,1.3,0,0,0-.85-1.274C173.78,36.885,173.526,36.8,173.78,38.414Z" transform="translate(-112.591 -7.163)"/>
          <path id="Path_686" data-name="Path 686" class="cls-4" d="M167.967,6.9s-.935,4.248,1.359,6.711,9.6,8.5,11.384,14.273l2.464-2.973L188.1,14.121l-2.973-3.568L173.914,7.919Z" transform="translate(-111.705 -2.665)"/>
          <path id="Path_687" data-name="Path 687" class="cls-15" d="M109.911,23.08l.17-.17.68-.51,7.731,5.947S106.683,34.8,104.814,61.31L103.2,60.29l.51-22.088,3.058-11.724" transform="translate(-101.989 -4.997)"/>
          <path id="Path_688" data-name="Path 688" class="cls-3" d="M109.328,22l1.784,1.189s-2.888,3.228-5.012,10.365L106.865,22Z" transform="translate(-102.426 -4.936)"/>
          <path id="Path_689" data-name="Path 689" class="cls-18" d="M155.833,73.121s.17-2.294-4.078-3.568-4.333-1.784-4.163-2.888a5.419,5.419,0,0,1,1.954-1.189c1.444-.595,2.719-2.379,5.182-2.379h.17a4.519,4.519,0,0,1,3.313,1.019c1.444,1.274,3.143.51,3.908,2.209S156.6,68.7,155.833,73.121Z" transform="translate(-108.661 -11.116)"/>
          <path id="Path_690" data-name="Path 690" class="cls-3" d="M155.42,72.7c0,1.529,1.869,8.241-1.784,9.515a9.7,9.7,0,0,1-7.136-.425s3.568,2.379,9.77,2.294c6.117-.17,9.005-3.568,9.005-3.568s-5.607,2.464-7.306.935C156.44,80.176,156.95,75.5,155.42,72.7Z" transform="translate(-108.504 -12.564)"/>
          <path id="Path_691" data-name="Path 691" class="cls-17" d="M152.767,66.239a3.133,3.133,0,0,1,2.888-.85c1.869.34,2.294.765,4.078.765s2.294.51,2.294.51l-4.333,2.379a3.008,3.008,0,0,1-2.379,1.274c-1.444-.085-2.379-1.019-3.228-1.019s-4.588-2.209-4.588-2.209S148.519,66.069,152.767,66.239Z" transform="translate(-108.654 -11.455)"/>
          <path id="Path_692" data-name="Path 692" class="cls-3" d="M158.9,69.074a3.9,3.9,0,0,1,4.927-2.209C163.742,66.865,162.723,68.989,158.9,69.074Z" transform="translate(-110.369 -11.656)"/>
          <path id="Path_693" data-name="Path 693" class="cls-3" d="M147.6,67.264s3.483-1.1,5.1,1.869C152.7,69.133,149.469,69.643,147.6,67.264Z" transform="translate(-108.669 -11.716)"/>
          <path id="Path_694" data-name="Path 694" class="cls-6" d="M172.309,26.794S174.6,19.4,177.237,15.24c2.719-4.163-5.777-7.476-14.357-8.241,0,0-20.219-11.384-40.694-.085,0,0-9.43.17-13.168,7.051-3.738,6.966-6.627,23.193-6.627,23.193S96.444,72.5,121.506,83.375s34.577,4.673,34.577,4.673,16.142-8.326,20.984-20.814C176.982,67.233,186.242,45.909,172.309,26.794Z" transform="translate(-101.775 -1.915)"/>
          <path id="Path_695" data-name="Path 695" class="cls-19" d="M109.9,21.223s2.634-8.326,16.651-2.039a4.34,4.34,0,0,0-3.568,2.124c-1.189,2.124-2.039,5.947-3.483,6.2C119.5,27.51,114.827,26.49,109.9,21.223Z" transform="translate(-102.997 -4.159)"/>
          <path id="Path_696" data-name="Path 696" class="cls-3" d="M176.1,82.8s-.51,9.43-1.529,11.3L166.5,98.262C166.585,98.347,173.211,95.883,176.1,82.8Z" transform="translate(-111.513 -14.084)"/>
          <path id="Path_697" data-name="Path 697" class="cls-1" d="M136.185,38.612s-.085-1.274-.085-1.359c0-.51.51-.17.68.085.425.595.51,1.869-.255,2.209C135.93,39.8,136.185,38.612,136.185,38.612Z" transform="translate(-106.939 -7.191)"/>
        </g>
      </g>
      <g id="Group_570" data-name="Group 570" transform="translate(10.556 27.258)">
        <path id="Path_698" data-name="Path 698" class="cls-3" d="M123.545,38.594l-9.09-2.294-.255,3.4,8.156,5.437" transform="translate(-114.2 -34.346)"/>
        <path id="Path_699" data-name="Path 699" class="cls-20" d="M125,40.773l9.09,19.285,5.522-1.019L129.248,37.8l-4.078,1.444Z" transform="translate(-115.825 -34.572)"/>
        <path id="Path_700" data-name="Path 700" class="cls-20" d="M164.2,40.973l9.175,19.37,5.522-1.1L168.448,38l-3.993,1.529Z" transform="translate(-121.722 -34.602)"/>
        <g id="Group_569" data-name="Group 569" transform="translate(7.646)">
          <circle id="Ellipse_308" data-name="Ellipse 308" class="cls-6" cx="12.998" cy="12.998" r="12.998"/>
          <circle id="Ellipse_309" data-name="Ellipse 309" class="cls-6" cx="12.998" cy="12.998" r="12.998" transform="translate(33.133)"/>
          <path id="Path_701" data-name="Path 701" class="cls-6" d="M153.8,49.079s3.653-2.8,7.051,0" transform="translate(-127.804 -36.081)"/>
        </g>
      </g>
    </g>
    <path id="Path_702" data-name="Path 702" class="cls-9" d="M145.733,108.7l9.855.85-22.343,22.683c-10.959,9.26-18.69,1.274-20.3-.68a1.886,1.886,0,0,1-.34-.425s7.391,1.954,15.037-3.993,18.1-18.435,18.1-18.435" transform="translate(-16.94 -16.065)"/>
    <path id="Path_703" data-name="Path 703" class="cls-9" d="M121,93.765s16.4,16.4,38.23,16.142c0,0,16.991,1.274,22.513-34.407L173.5,88.243,159.315,99.882l-13,1.274-19.54-4.673Z" transform="translate(-18.204 -11.071)"/>
    <path id="Path_704" data-name="Path 704" class="cls-13" d="M136.709,99.2a24.182,24.182,0,0,1-1.274-4.418,10.889,10.889,0,0,1,.425-6.966,3.671,3.671,0,0,1,1.784-1.954c3.993-1.614,4.418,6.8,5.522,8.58a6.133,6.133,0,0,0,2.209,1.954c3.568,1.954,7.9,1.784,11.809,2.124a7.65,7.65,0,0,1,1.359.255,2.682,2.682,0,0,1,1.019,3.738c-1.019,1.529-2.973,1.869-4.418,2.124-1.954.255-4.163.34-6.117.595-3.568.425-8.241-.85-10.789-3.568A14.851,14.851,0,0,1,136.709,99.2Z" transform="translate(-20.32 -12.599)"/>
    <path id="Path_705" data-name="Path 705" class="cls-6" d="M205.942,155H189.8v10.7a8.829,8.829,0,0,0,8.835,8.835H206.2" transform="translate(-28.554 -23.031)"/>
    <path id="Path_706" data-name="Path 706" class="cls-6" d="M93.155,155H109.3v10.7a8.829,8.829,0,0,1-8.835,8.835H92.9" transform="translate(-13.976 -23.031)"/>
    <path id="Path_707" data-name="Path 707" class="cls-3" d="M134.066,99.879c-7.646,2.379-16.566,14.1-16.566,14.1s3.228-11.809,14.273-16.481Z" transform="translate(-17.677 -14.38)"/>
    <path id="Path_708" data-name="Path 708" class="cls-9" d="M185.5,87.346s17.586,29.989,13,89.2l6.627,1.444s7.221-63.462-14.018-98.293Z" transform="translate(-27.908 -11.702)"/>
    <path id="Path_709" data-name="Path 709" class="cls-9" d="M136.2,180.168h4.248l3.4-61.168-5.947,5.1Z" transform="translate(-20.491 -17.615)"/>
    <g id="Group_578" data-name="Group 578" transform="translate(20.878 65.364)">
      <g id="Group_574" data-name="Group 574" transform="translate(15.696)">
        <g id="Group_572" data-name="Group 572">
          <path id="Path_710" data-name="Path 710" class="cls-1" d="M51.734,121.757a6.627,6.627,0,0,1-5.692-9.94l9.345-16.226V85.057A3.308,3.308,0,0,1,56.407,78.6h8.156a3.308,3.308,0,0,1,1.019,6.457V95.676L74.927,111.9a6.627,6.627,0,0,1-5.692,9.94h-17.5Z" transform="translate(-43.366 -76.901)"/>
          <path id="Path_711" data-name="Path 711" class="cls-3" d="M64.161,80a1.614,1.614,0,0,1,0,3.228h-.68V95.8l9.6,16.566a4.893,4.893,0,0,1-4.248,7.306H51.418a4.893,4.893,0,0,1-4.248-7.306L56.77,95.8V83.227h-.68a1.614,1.614,0,0,1,0-3.228h8.071m0-3.4H56.006a4.968,4.968,0,0,0-5.012,5.012,5.155,5.155,0,0,0,2.294,4.248v9.09l-9.09,15.8a8.326,8.326,0,0,0,7.221,12.488H68.834a8.275,8.275,0,0,0,7.221-4.163,8.128,8.128,0,0,0,0-8.326L66.88,94.95V85.86a5.155,5.155,0,0,0,2.294-4.248A5.021,5.021,0,0,0,64.161,76.6Z" transform="translate(-43.05 -76.6)"/>
        </g>
        <g id="Group_573" data-name="Group 573" transform="translate(6.023 26.506)">
          <path id="Path_712" data-name="Path 712" class="cls-21" d="M71.939,120.713A2.229,2.229,0,0,1,69.9,121.9H52.485a2.485,2.485,0,0,1-2.039-1.189,2.338,2.338,0,0,1,0-2.294l5.437-9.515a.3.3,0,0,0,.085-.17c.51-.595,2.634-.935,5.182-.935s4.673.425,5.182.935h0l.085.085,5.437,9.43A2.47,2.47,0,0,1,71.939,120.713Z" transform="translate(-50.14 -107.8)"/>
        </g>
        <path id="Path_713" data-name="Path 713" class="cls-22" d="M67.534,109.089c0,.68-2.379,1.189-5.267,1.189S57,109.769,57,109.089V109a.3.3,0,0,0,.085-.17c.51-.595,2.634-.935,5.182-.935s4.673.425,5.182.935h0l.085.085C67.534,109,67.534,109,67.534,109.089Z" transform="translate(-45.149 -81.309)"/>
      </g>
      <g id="Group_577" data-name="Group 577" transform="translate(0 11.129)">
        <g id="Group_575" data-name="Group 575">
          <path id="Path_714" data-name="Path 714" class="cls-1" d="M31.779,123.728a5.042,5.042,0,0,1-4.5-2.634,5.14,5.14,0,0,1,0-5.182l6.711-11.554V97.222a2.813,2.813,0,0,1-1.7-2.634A2.865,2.865,0,0,1,35.177,91.7h5.862a2.865,2.865,0,0,1,2.888,2.888,2.9,2.9,0,0,1-1.7,2.634v7.136l6.627,11.554a5.14,5.14,0,0,1,0,5.182,5.213,5.213,0,0,1-4.5,2.634Z" transform="translate(-24.876 -90.001)"/>
          <path id="Path_715" data-name="Path 715" class="cls-3" d="M40.738,93.1a1.189,1.189,0,0,1,0,2.379h-.51v9.09l6.881,11.979a3.5,3.5,0,0,1-3.058,5.267H31.478a3.52,3.52,0,0,1-3.058-5.267L35.3,104.567v-9.09h-.51a1.189,1.189,0,0,1,0-2.379h5.947m0-3.4H34.876a4.569,4.569,0,0,0-4.588,4.588,4.347,4.347,0,0,0,1.7,3.483v5.777l-6.457,11.129a6.671,6.671,0,0,0,0,6.881,6.994,6.994,0,0,0,6.032,3.483H44.136a6.919,6.919,0,0,0,6.032-3.483,6.671,6.671,0,0,0,0-6.881l-6.542-11.044V97.856A4.59,4.59,0,0,0,40.738,89.7Z" transform="translate(-24.575 -89.7)"/>
        </g>
        <g id="Group_576" data-name="Group 576" transform="translate(5.918 21.749)">
          <path id="Path_716" data-name="Path 716" class="cls-23" d="M45.949,122.521a.933.933,0,0,1-.85.51H32.526a.977.977,0,0,1-.85-1.444l3.058-5.352c.34-.595,2.039-.935,3.993-.935s3.653.425,3.993.935l3.058,5.352A.709.709,0,0,1,45.949,122.521Z" transform="translate(-31.542 -115.3)"/>
        </g>
        <path id="Path_717" data-name="Path 717" class="cls-24" d="M43.556,116.489c0,.68-1.869,1.189-4.078,1.189-2.294,0-4.078-.51-4.078-1.189a.312.312,0,0,1,.085-.255c.34-.595,2.039-.935,3.993-.935s3.653.425,3.993.935C43.471,116.319,43.556,116.4,43.556,116.489Z" transform="translate(-26.204 -93.551)"/>
      </g>
    </g>
  </g>
</svg>
