<svg xmlns="http://www.w3.org/2000/svg" viewBox="0 0 220.401 238.69">
  <defs>
    <style>
      .cls-1 {
        fill: #fff;
      }

      .cls-2 {
        fill: #fff0ce;
      }

      .cls-3 {
        fill: #d6cfc5;
      }

      .cls-4, .cls-6 {
        fill: #cd8648;
      }

      .cls-10, .cls-17, .cls-20, .cls-21, .cls-22, .cls-4, .cls-8, .cls-9 {
        stroke: #2d1211;
      }

      .cls-10, .cls-17, .cls-19, .cls-20, .cls-21, .cls-22, .cls-4, .cls-8, .cls-9 {
        stroke-miterlimit: 10;
        stroke-width: 4px;
      }

      .cls-5 {
        fill: #ebcd96;
      }

      .cls-19, .cls-7, .cls-8 {
        fill: none;
      }

      .cls-9 {
        fill: #00aeef;
      }

      .cls-10 {
        fill: #a7a9ac;
      }

      .cls-11 {
        fill: #aa6629;
      }

      .cls-12 {
        fill: #d8c9a9;
      }

      .cls-13 {
        fill: #ceb389;
      }

      .cls-14 {
        fill: #2d1211;
      }

      .cls-15 {
        fill: #dbcbac;
      }

      .cls-16 {
        fill: #87481f;
      }

      .cls-17, .cls-21 {
        fill: #fba919;
      }

      .cls-18 {
        fill: #bcbec0;
      }

      .cls-19 {
        stroke: #fba919;
      }

      .cls-19, .cls-21 {
        stroke-linecap: round;
      }

      .cls-20 {
        fill: #4ab04d;
      }

      .cls-22 {
        fill: #edce96;
      }
    </style>
  </defs>
  <g id="Group_512" data-name="Group 512" transform="translate(0.164 0.005)">
    <circle id="Ellipse_297" data-name="Ellipse 297" class="cls-1" cx="108.265" cy="108.265" r="108.265" transform="translate(0.9 22.155)"/>
    <path id="Path_498" data-name="Path 498" class="cls-2" d="M116.008,127.637s.255,41.928,34.869,42.524c23.048.34,38.186-49.668,38.186-49.668L178.092,88.6,170.438,96,111.5,97.445Z" transform="translate(-16.538 -12.95)"/>
    <path id="Path_499" data-name="Path 499" class="cls-3" d="M21.8,180.07l17.009-7.654,4.678-14.458,18.71-3.4L77.931,143.5H97.067l21.262,19.136L93.665,182.622l-15.308,7.229-18.71-3.4H34.982Z" transform="translate(-3.125 -21.159)"/>
    <path id="Path_500" data-name="Path 500" class="cls-3" d="M230.539,253.57l-17.009-7.654-4.678-14.458-18.71-3.4L174.408,217H155.272L88.51,236.136l-3.4,8.845L69.8,256.122h31.127l19.9,7.229L136.222,254H178.66l14.033,5.953h24.664Z" transform="translate(-10.303 -32.149)"/>
    <path id="Path_501" data-name="Path 501" class="cls-4" d="M94,176.118s3.657,38.7,12.587,54l-5.868,1.446c-4.167,1.021-3.4,7.229.85,7.229l26.62.17a6.1,6.1,0,0,0,6.123-5.443l2.807-31.467h12.332l2.807,31.552a6.1,6.1,0,0,0,6.123,5.443h28.236a3.657,3.657,0,0,0,1.106-7.144l-4.167-1.361s6.379-44.054,5.953-59.448" transform="translate(-13.921 -25.286)"/>
    <path id="Path_502" data-name="Path 502" class="cls-5" d="M115.2,109.663s27.81,37.421,52.984,16.159l5.358-2.807s-1.021-10.716-3.657-18.115" transform="translate(-17.091 -15.387)"/>
    <path id="Path_503" data-name="Path 503" class="cls-4" d="M222,96.2a57.914,57.914,0,0,1-25,11.566l5.443,24.153c23.218-9.7,28.831-30.447,28.831-30.447Z" transform="translate(-29.323 -14.086)"/>
    <path id="Path_504" data-name="Path 504" class="cls-6" d="M193.785,97.37a.3.3,0,0,0-.085-.17l.085.085Z" transform="translate(-28.829 -14.236)"/>
    <g id="Group_500" data-name="Group 500" transform="translate(135.785 76.415)">
      <path id="Path_505" data-name="Path 505" class="cls-6" d="M199.472,147.162c-.085,5.7-1.786,11.822-6.293,15.394a20.884,20.884,0,0,1-8.25,3.487c-8.42,2.126-16.924,2.722-25.429,3.742,8.165-2.721,28.831-32.233,17.094-67.187,0,0,7.569-13.1,7.994-13.1.34.085,3.657,5.1,3.657,5.1l.425,1.531-.085-.085a.3.3,0,0,0,.085.17l1.191,3.912a17.851,17.851,0,0,0-1.191-3.912l-.085-.17c5.273,5.273,7.994,23.728,9.1,31.042A133.331,133.331,0,0,1,199.472,147.162Z" transform="translate(-159.5 -89.5)"/>
    </g>
    <g id="Group_501" data-name="Group 501" transform="translate(131.277 156.615)">
      <path id="Path_506" data-name="Path 506" class="cls-6" d="M154.2,184.4c1.531-.17,2.977-.425,4.507-.6A10.955,10.955,0,0,1,154.2,184.4Z" transform="translate(-154.2 -183.8)"/>
    </g>
    <g id="Group_502" data-name="Group 502" transform="translate(164.871 82.964)">
      <path id="Path_507" data-name="Path 507" class="cls-6" d="M193.785,97.37a.3.3,0,0,0-.085-.17l.085.085Z" transform="translate(-193.7 -97.2)"/>
    </g>
    <g id="Group_503" data-name="Group 503" transform="translate(97.784 38.456)">
      <path id="Path_508" data-name="Path 508" class="cls-7" d="M139.041,46.766c-1.871-1.276-5.188-1.7-11.141-1.871-3.912-.085-9.355-.17-11.651,2.807-2.892,3.742-1.106,13.948,2.722,16.414,6.889,4.422,14.543,2.466,18.285-1.106,1.786-1.7,3.657-3.742,4.167-8.93a18.9,18.9,0,0,0-.17-4.422A5.1,5.1,0,0,0,139.041,46.766Z" transform="translate(-114.817 -44.867)"/>
      <path id="Path_509" data-name="Path 509" class="cls-7" d="M162.772,46.766c1.871-1.276,5.188-1.7,11.141-1.871,3.912-.085,9.355-.17,11.651,2.807,2.892,3.742,1.106,13.948-2.721,16.414-6.889,4.422-14.543,2.466-18.285-1.106-1.786-1.7-3.657-3.742-4.167-8.93a18.9,18.9,0,0,1,.17-4.422A5.1,5.1,0,0,1,162.772,46.766Z" transform="translate(-121.624 -44.867)"/>
    </g>
    <path id="Path_510" data-name="Path 510" class="cls-8" d="M188.8,86.7s13.608,22.367,14.883,69.994" transform="translate(-28.097 -12.666)"/>
    <g id="Group_506" data-name="Group 506" transform="translate(78.548 74.034)">
      <path id="Path_511" data-name="Path 511" class="cls-6" d="M115.348,143.453s7.144,30.362,30.362,34.019l-9.355,2.3L92.3,172.795,95.277,137.5Z" transform="translate(-92.215 -94.296)"/>
      <g id="Group_505" data-name="Group 505">
        <path id="Path_512" data-name="Path 512" class="cls-6" d="M105.485,140.6s4.252,6.719,13.778,5.018c0,0-11.056-24.664-3.742-43.119,0,0-7.654-13.182-7.994-13.1s-3.572,5.1-3.572,5.1L96.3,120.187l.34,11.141,8.42,9.27" transform="translate(-92.813 -87.104)"/>
        <g id="Group_504" data-name="Group 504">
          <path id="Path_513" data-name="Path 513" class="cls-8" d="M107.083,86.7S93.476,109.067,92.2,156.694" transform="translate(-92.2 -86.7)"/>
        </g>
      </g>
    </g>
    <path id="Path_514" data-name="Path 514" class="cls-9" d="M89.7,163.236s45.84,13.182,101.8-2.636v13.182s-41.418,16.329-101.291,3.487Z" transform="translate(-13.278 -23.716)"/>
    <path id="Path_515" data-name="Path 515" class="cls-8" d="M127.7,207.409,148.622,183l23.388,23.388" transform="translate(-18.96 -27.065)"/>
    <path id="Path_516" data-name="Path 516" class="cls-9" d="M94.7,200s26.365,8.25,44.224,7.4l-1.106,11.651s-28.066-1.106-41.418-8.5Z" transform="translate(-14.026 -29.607)"/>
    <path id="Path_517" data-name="Path 517" class="cls-9" d="M201.874,196.1S176.36,206.561,158.5,207.326l.85,10.716s28.321-2.041,40.908-10.631Z" transform="translate(-23.566 -29.024)"/>
    <path id="Path_518" data-name="Path 518" class="cls-10" d="M152.2,189.562h-.6a3.412,3.412,0,0,1-3.4-3.4V171.7a3.412,3.412,0,0,1,3.4-3.4h.6a3.412,3.412,0,0,1,3.4,3.4V186.16A3.527,3.527,0,0,1,152.2,189.562Z" transform="translate(-22.026 -24.867)"/>
    <path id="Path_519" data-name="Path 519" class="cls-8" d="M141.3,197.31h0a21.013,21.013,0,0,0,20.071-.51h0" transform="translate(-20.994 -29.129)"/>
    <path id="Path_520" data-name="Path 520" class="cls-8" d="M94,176" transform="translate(-13.921 -26.019)"/>
    <g id="Group_509" data-name="Group 509" transform="translate(83.991 1.995)">
      <g id="Group_507" data-name="Group 507" transform="translate(3.381 11.838)">
        <path id="Path_521" data-name="Path 521" class="cls-2" d="M173.185,40.821s2.3-7.4,4.933-11.566c2.721-4.167-5.783-7.484-14.373-8.25,0,0-20.241-11.4-40.738-.085,0,0-9.44.17-13.182,7.059S103.192,51.2,103.192,51.2s-5.953,35.209,19.136,46.1,34.614,4.678,34.614,4.678,16.159-8.335,21.007-20.837C177.948,81.3,187.133,59.872,173.185,40.821Z" transform="translate(-102.575 -15.915)"/>
        <path id="Path_522" data-name="Path 522" class="cls-6" d="M143.605,16.8s4.422,6.379,1.276,9.185c-3.147,2.722-11.141,7.229-10.716,16.329s2.892,11.226-3.147,14.628l-1.446.51s-10.631,1.531-11.907,12.162,9.951,29,26.7,32.488l-14.883-1.616s-12.417-4.167-16.754-9.78c0,0-8.335-9.015-9.78-20.411s3.4-34.1,3.4-34.1l4.337-10.206,6.464-3.742,6.8-1.871,11.481-3.487Z" transform="translate(-102.591 -16.047)"/>
        <path id="Path_523" data-name="Path 523" class="cls-11" d="M129.9,61.972s6.719.085,7.739-3.317l-2.892-.255C134.748,58.315,134.748,60.611,129.9,61.972Z" transform="translate(-106.661 -22.267)"/>
        <path id="Path_524" data-name="Path 524" d="M136.111,49.8c.425-.085.936.34,1.191.6,1.191,1.191,1.276,2.977,1.276,4.763,0,1.446-.51,3.147-2.211,3.487-2.381.34-2.466-1.021-2.466-3.317S134.325,49.968,136.111,49.8Z" transform="translate(-107.259 -20.98)"/>
        <path id="Path_525" data-name="Path 525" class="cls-12" d="M172.915,32.1a15.085,15.085,0,0,0-6.123,13.778c.68,9.525,2.721,18.54.425,23.048,0,0,5.273-.34,6.464-9.78,0,0,9.78,5.868,1.361,37.336l1.276.765s9.015-6.293,9.78-10.121l3.572-9.525.85-10.631-1.191-10.206-3.912-8.93-4.167-7.994Z" transform="translate(-112.17 -18.335)"/>
        <path id="Path_526" data-name="Path 526" class="cls-13" d="M172,58.6h0a3.464,3.464,0,0,0,2.3,2.636,21.05,21.05,0,0,1,4.252,2.722s-1.446-3.232-3.232-4.507Z" transform="translate(-112.956 -22.297)"/>
        <path id="Path_527" data-name="Path 527" d="M173.908,50s1.276-.425,2.041,2.381c.68,2.722.34,7.229-2.126,6.379s-2.126-4.082-2.126-4.082S171.527,50.081,173.908,50Z" transform="translate(-112.908 -21.007)"/>
        <path id="Path_528" data-name="Path 528" class="cls-1" d="M174.671,52.416s-.17.936.17.936c.425,0,.765-.425.765-1.276a1.3,1.3,0,0,0-.85-1.276C174.585,50.885,174.33,50.8,174.671,52.416Z" transform="translate(-113.33 -21.131)"/>
        <path id="Path_529" data-name="Path 529" class="cls-6" d="M168.767,20.9s-.936,4.252,1.361,6.719,9.61,8.5,11.4,14.288l2.466-2.977,4.933-10.8-2.977-3.572L174.72,21.921Z" transform="translate(-112.444 -16.66)"/>
        <path id="Path_530" data-name="Path 530" class="cls-11" d="M110.719,37.08l.255-.17.6-.51,7.739,5.953s-11.822,6.464-13.693,33L104,74.331l.51-22.112,3.062-11.736" transform="translate(-102.788 -18.978)"/>
        <path id="Path_531" data-name="Path 531" class="cls-14" d="M110.232,36l1.786,1.191S109.126,40.422,107,47.566L107.765,36Z" transform="translate(-103.237 -18.918)"/>
        <path id="Path_532" data-name="Path 532" class="cls-15" d="M156.641,87.032s.17-2.3-4.082-3.572-4.337-1.786-4.167-2.892a5.425,5.425,0,0,1,1.956-1.191c1.446-.6,2.721-2.381,5.188-2.381h.17a4.523,4.523,0,0,1,3.317,1.021c1.446,1.276,3.147.51,3.912,2.211S157.407,82.694,156.641,87.032Z" transform="translate(-109.419 -25.045)"/>
        <path id="Path_533" data-name="Path 533" class="cls-14" d="M156.23,86.7c0,1.531,1.871,8.25-1.786,9.525A9.707,9.707,0,0,1,147.3,95.8s3.572,2.381,9.78,2.3,9.015-3.572,9.015-3.572-5.613,2.466-7.314.936C157.251,94.184,157.761,89.507,156.23,86.7Z" transform="translate(-109.263 -26.499)"/>
        <path id="Path_534" data-name="Path 534" class="cls-13" d="M153.573,80.14a3.137,3.137,0,0,1,2.892-.85c1.871.34,2.3.765,4.082.765s2.3.51,2.3.51l-4.337,2.381a3.012,3.012,0,0,1-2.381,1.276c-1.446-.085-2.381-1.021-3.232-1.021S148.3,80.99,148.3,80.99,149.321,80.055,153.573,80.14Z" transform="translate(-109.412 -25.382)"/>
        <path id="Path_535" data-name="Path 535" class="cls-14" d="M159.7,83.076a3.9,3.9,0,0,1,4.933-2.211C164.633,80.78,163.612,82.991,159.7,83.076Z" transform="translate(-111.117 -25.597)"/>
        <path id="Path_536" data-name="Path 536" class="cls-14" d="M148.5,81.265s3.487-1.106,5.1,1.871C153.6,83.136,150.286,83.646,148.5,81.265Z" transform="translate(-109.442 -25.656)"/>
        <path id="Path_537" data-name="Path 537" class="cls-8" d="M173.185,40.821s2.3-7.4,4.933-11.566c2.721-4.167-5.783-7.484-14.373-8.25,0,0-20.241-11.4-40.738-.085,0,0-9.44.17-13.182,7.059S103.192,51.2,103.192,51.2s-5.953,35.209,19.136,46.1,34.614,4.678,34.614,4.678,16.159-8.335,21.007-20.837C177.948,81.3,187.133,59.872,173.185,40.821Z" transform="translate(-102.575 -15.915)"/>
        <path id="Path_538" data-name="Path 538" class="cls-16" d="M110.8,35.228s2.636-8.335,16.669-2.041a4.344,4.344,0,0,0-3.572,2.126c-1.191,2.126-2.041,5.953-3.487,6.208C120.325,41.521,115.648,40.5,110.8,35.228Z" transform="translate(-103.805 -18.146)"/>
        <path id="Path_539" data-name="Path 539" class="cls-14" d="M177.01,96.8s-.51,9.44-1.531,11.311l-8.079,4.167C167.4,112.364,174.119,109.812,177.01,96.8Z" transform="translate(-112.268 -28.009)"/>
        <path id="Path_540" data-name="Path 540" class="cls-1" d="M136.985,52.514s-.085-1.276-.085-1.361c0-.51.51-.17.68.085.425.6.51,1.871-.255,2.211C136.73,53.79,136.985,52.514,136.985,52.514Z" transform="translate(-107.708 -21.144)"/>
      </g>
      <path id="Path_541" data-name="Path 541" class="cls-17" d="M98.6,51.327s13.182-17.35,47.626-17.35c0,0,22.708-3.147,36.06,14.2,0,0,4.933-46.691-38.186-46.181C108.465,2.339,98.6,23.771,98.6,51.327Z" transform="translate(-98.6 -1.995)"/>
      <path id="Path_542" data-name="Path 542" class="cls-18" d="M111.657,51.7s-5.1,52.9,35.975,59.363c0,0-39.207,6.379-39.632-56.3Z" transform="translate(-100.006 -9.427)"/>
      <path id="Path_543" data-name="Path 543" class="cls-14" d="M113.625,14.7a20.877,20.877,0,0,0,6.634,6.123l-2.551,7.484s-8.079-.68-10.376-5.1S113.625,14.7,113.625,14.7Z" transform="translate(-99.847 -3.895)"/>
      <path id="Path_544" data-name="Path 544" class="cls-14" d="M125.426,23.5,123.3,30.474s4.678,1.531,6.974.17l-.17-4.252Z" transform="translate(-102.293 -5.211)"/>
      <g id="Group_508" data-name="Group 508" transform="translate(62.51 11.656)">
        <path id="Path_545" data-name="Path 545" class="cls-14" d="M185.128,15.7a18.648,18.648,0,0,1-5.528,5.188l2.126,6.208s6.8-.51,8.76-4.252S185.128,15.7,185.128,15.7Z" transform="translate(-173.221 -15.7)"/>
        <path id="Path_546" data-name="Path 546" class="cls-14" d="M176.182,23.1l1.786,5.868s-3.912,1.276-5.868.17l.17-3.572Z" transform="translate(-172.1 -16.807)"/>
      </g>
    </g>
    <path id="Path_547" data-name="Path 547" class="cls-19" d="M216.574,3.3,207.9,42.762l-14.033,56.3a52.78,52.78,0,0,1-33.253,36.91l-19.136,6.974a3.781,3.781,0,0,0-2.3,4.678h0a3.715,3.715,0,0,0,4.933,2.3l10.716-4.337A3.086,3.086,0,0,1,159,149.156l-.51,2.381a19.917,19.917,0,0,1-17.18,15.223h0a19.83,19.83,0,0,1-16.584-6.123h0a11.488,11.488,0,0,0-15.308-1.276h0a72.944,72.944,0,0,0-22.537,27.725L82.37,196.7a20.248,20.248,0,0,1-17.18,11.566l-32.148,1.106h-19.9a4.012,4.012,0,0,1-4-4.082h0a4.066,4.066,0,0,1,4-4.082H57.025a6.824,6.824,0,0,1,6.8,6.8h0a6.824,6.824,0,0,1-6.8,6.8H27.684a10.635,10.635,0,0,1-10.631-10.631h0A10.635,10.635,0,0,1,27.684,193.55H47.245a10.635,10.635,0,0,1,10.631,10.631v5.7A10.635,10.635,0,0,1,47.245,220.51H2" transform="translate(-0.164 -0.195)"/>
    <path id="Path_548" data-name="Path 548" class="cls-20" d="M179.672,172.409h0a3.4,3.4,0,0,1-4.593-1.446l-3.147-6.038a3.4,3.4,0,0,1,1.446-4.593h0a3.4,3.4,0,0,1,4.593,1.446l3.147,6.038A3.476,3.476,0,0,1,179.672,172.409Z" transform="translate(-25.517 -23.619)"/>
    <line id="Line_58" data-name="Line 58" class="cls-21" y1="7.059" x2="17.18" transform="translate(123.538 148.025)"/>
    <g id="Group_511" data-name="Group 511" transform="translate(78.973 124.637)">
      <path id="Path_549" data-name="Path 549" class="cls-6" d="M112.921,184.3s-17.435-8.93-19.221-25.259L111.645,146.2s4.252,23.473,10.886,27.3Z" transform="translate(-92.85 -146.2)"/>
      <path id="Path_550" data-name="Path 550" class="cls-8" d="M92.7,157.2s.255,17.009,19.221,28.746" transform="translate(-92.7 -147.845)"/>
      <path id="Path_551" data-name="Path 551" class="cls-14" d="M125.84,173.556s-4.508-2.3-7.569-20.156c0,0-1.531,16.414,4.763,22.027Z" transform="translate(-96.499 -147.277)"/>
      <g id="Group_510" data-name="Group 510" transform="translate(19.871 27.863)">
        <path id="Path_552" data-name="Path 552" class="cls-22" d="M129.362,185.2s4.848-.34,4.508-2.3c-.68-4.252-10.8-6.379-16.244.51-5.868,7.484,6.549,18.88,8.675,15.308.85-1.021-1.276-6.549-1.276-6.549s5.783.425,7.144-1.531C133.614,188.6,129.362,185.2,129.362,185.2Z" transform="translate(-116.065 -178.962)"/>
      </g>
    </g>
    <path id="Path_553" data-name="Path 553" class="cls-22" d="M229.257,92.435s-3.827-2.977-2.466-4.422c2.977-3.147,12.5.85,13.182,9.525.68,9.525-15.989,11.907-15.819,7.739-.17-1.276,4.763-4.763,4.763-4.763s-5.018-2.892-5.018-5.273C223.729,92.945,229.257,92.435,229.257,92.435Z" transform="translate(-33.344 -12.702)"/>
  </g>
</svg>
