<svg id="Group_603" data-name="Group 603" xmlns="http://www.w3.org/2000/svg" viewBox="0 0 219.722 238.695">
  <defs>
    <style>
      .cls-1 {
        fill: #fff;
      }

      .cls-2 {
        fill: #d6cfc5;
        opacity: 0.5;
      }

      .cls-3, .cls-4 {
        fill: #cd8648;
      }

      .cls-17, .cls-27, .cls-4, .cls-6, .cls-8 {
        stroke: #2d1211;
        stroke-miterlimit: 10;
        stroke-width: 4px;
      }

      .cls-5, .cls-6 {
        fill: none;
      }

      .cls-7 {
        fill: #f4f0eb;
      }

      .cls-8 {
        fill: #4ab04d;
      }

      .cls-9 {
        fill: #492e1b;
        opacity: 0.2;
      }

      .cls-10 {
        fill: #fff0ce;
      }

      .cls-11 {
        fill: #aa6629;
      }

      .cls-12 {
        fill: #d8c9a9;
      }

      .cls-13 {
        fill: #ceb389;
      }

      .cls-14, .cls-18 {
        fill: #2d1211;
      }

      .cls-15 {
        fill: #dbcbac;
      }

      .cls-16 {
        fill: #87481f;
      }

      .cls-17 {
        fill: #3d4d66;
        stroke-linejoin: round;
      }

      .cls-18, .cls-19 {
        fill-rule: evenodd;
      }

      .cls-19 {
        fill: #ee252c;
      }

      .cls-20 {
        fill: #fba919;
      }

      .cls-21 {
        fill: #231f20;
      }

      .cls-22 {
        fill: #00aeef;
      }

      .cls-23 {
        fill: #108bb2;
      }

      .cls-24 {
        fill: #ed1c24;
      }

      .cls-25 {
        fill: #262262;
      }

      .cls-26 {
        fill: #dcddde;
      }

      .cls-27 {
        fill: #edce96;
      }
    </style>
  </defs>
  <circle id="Ellipse_310" data-name="Ellipse 310" class="cls-1" cx="107.497" cy="107.497" r="107.497" transform="translate(0 23.702)"/>
  <ellipse id="Ellipse_311" data-name="Ellipse 311" class="cls-2" cx="83.599" cy="16.044" rx="83.599" ry="16.044" transform="translate(52.524 196.811)"/>
  <path id="Path_718" data-name="Path 718" class="cls-1" d="M51.9,181.1v.169h0Z" transform="translate(-8.074 -27.862)"/>
  <path id="Path_719" data-name="Path 719" class="cls-1" d="M51.9,181.1v.169h0Z" transform="translate(-8.074 -27.862)"/>
  <path id="Path_720" data-name="Path 720" class="cls-3" d="M192.984,99.369a.3.3,0,0,0-.084-.169l.084.084Z" transform="translate(-30.008 -15.121)"/>
  <path id="Path_721" data-name="Path 721" class="cls-4" d="M106.66,88.7S94.5,103.9,94.5,158.2c0,0,2.533,45.177,11.4,60.377l-5.827,1.436c-4.138,1.013-3.378,7.178.844,7.178l26.431.169a6.054,6.054,0,0,0,6.08-5.4l2.787-31.244h12.244l2.787,31.329a6.054,6.054,0,0,0,6.08,5.4h28.035a3.631,3.631,0,0,0,1.1-7.093L182.321,219s6.333-43.742,5.911-59.026V158.2c-1.267-47.288-14.778-69.5-14.778-69.5" transform="translate(-14.701 -13.487)"/>
  <g id="Group_580" data-name="Group 580" transform="translate(162.892 84.079)">
    <path id="Path_722" data-name="Path 722" class="cls-3" d="M192.984,99.369a.3.3,0,0,0-.084-.169l.084.084Z" transform="translate(-192.9 -99.2)"/>
  </g>
  <g id="Group_581" data-name="Group 581" transform="translate(96.28 39.887)">
    <path id="Path_723" data-name="Path 723" class="cls-5" d="M138.069,48.753c-1.858-1.267-5.151-1.689-11.062-1.858-3.884-.084-9.289-.169-11.569,2.787-2.871,3.716-1.1,13.849,2.7,16.3,6.84,4.391,14.44,2.449,18.155-1.1,1.773-1.689,3.631-3.716,4.138-8.867a18.762,18.762,0,0,0-.169-4.391A5.068,5.068,0,0,0,138.069,48.753Z" transform="translate(-114.017 -46.867)"/>
    <path id="Path_724" data-name="Path 724" class="cls-5" d="M161.855,48.753c1.858-1.267,5.151-1.689,11.062-1.858,3.884-.084,9.289-.169,11.569,2.787,2.871,3.716,1.1,13.849-2.7,16.3-6.84,4.391-14.44,2.449-18.155-1.1-1.773-1.689-3.631-3.716-4.138-8.867a18.762,18.762,0,0,1,.169-4.391A5.067,5.067,0,0,1,161.855,48.753Z" transform="translate(-121.084 -46.867)"/>
  </g>
  <path id="Path_725" data-name="Path 725" class="cls-6" d="M93.2,178" transform="translate(-14.499 -27.379)"/>
  <path id="Path_726" data-name="Path 726" class="cls-7" d="M127.2,160.2" transform="translate(-19.788 -24.61)"/>
  <path id="Path_727" data-name="Path 727" class="cls-3" d="M192.984,99.369a.3.3,0,0,0-.084-.169l.084.084Z" transform="translate(-30.008 -15.121)"/>
  <g id="Group_582" data-name="Group 582" transform="translate(162.892 84.079)">
    <path id="Path_728" data-name="Path 728" class="cls-3" d="M192.984,99.369a.3.3,0,0,0-.084-.169l.084.084Z" transform="translate(-192.9 -99.2)"/>
  </g>
  <path id="Path_729" data-name="Path 729" class="cls-8" d="M106.06,88.7s-18.578,18.831-14.947,88.075c65.275,16.889,99.052-1.942,99.052-1.942C191.6,114.877,172.855,88.7,172.855,88.7" transform="translate(-14.101 -13.487)"/>
  <g id="Group_583" data-name="Group 583" transform="translate(96.28 39.887)">
    <path id="Path_730" data-name="Path 730" class="cls-5" d="M138.069,48.753c-1.858-1.267-5.151-1.689-11.062-1.858-3.884-.084-9.289-.169-11.569,2.787-2.871,3.716-1.1,13.849,2.7,16.3,6.84,4.391,14.44,2.449,18.155-1.1,1.773-1.689,3.631-3.716,4.138-8.867a18.762,18.762,0,0,0-.169-4.391A5.068,5.068,0,0,0,138.069,48.753Z" transform="translate(-114.017 -46.867)"/>
    <path id="Path_731" data-name="Path 731" class="cls-5" d="M161.855,48.753c1.858-1.267,5.151-1.689,11.062-1.858,3.884-.084,9.289-.169,11.569,2.787,2.871,3.716,1.1,13.849-2.7,16.3-6.84,4.391-14.44,2.449-18.155-1.1-1.773-1.689-3.631-3.716-4.138-8.867a18.762,18.762,0,0,1,.169-4.391A5.067,5.067,0,0,1,161.855,48.753Z" transform="translate(-121.084 -46.867)"/>
  </g>
  <path id="Path_732" data-name="Path 732" class="cls-6" d="M93.2,178" transform="translate(-14.499 -27.379)"/>
  <path id="Path_733" data-name="Path 733" class="cls-6" d="M93.2,178" transform="translate(-14.499 -27.379)"/>
  <path id="Path_734" data-name="Path 734" class="cls-7" d="M127.2,160.2" transform="translate(-19.788 -24.61)"/>
  <g id="Group_586" data-name="Group 586" transform="translate(111.55 133.479)">
    <g id="Group_584" data-name="Group 584">
      <path id="Path_735" data-name="Path 735" d="M136.331,180.409l-3.631-3.631v-3.631h5.067v2.111H142.5V171.88h-3.378v-5.151H142.5v-3.462h-4.729v2.2H132.7v-3.631l3.631-3.631h7.6l3.631,3.631v6.333l-1.1,1.1,1.1,1.1v6.418l-3.631,3.631Z" transform="translate(-132.193 -157.778)"/>
      <path id="Path_736" data-name="Path 736" class="cls-1" d="M143.669,158.544l3.462,3.462v6l-1.267,1.267,1.267,1.267v6l-3.462,3.462h-7.262l-3.462-3.462v-2.956h4.307v2.111h5.489V171.38h-3.378v-4.307h3.378v-4.307h-5.489v2.111h-4.307v-2.956l3.462-3.462h7.262m.338-.76h-7.938l-.253.253-3.462,3.462-.253.253v4.138h6V163.7h3.8v2.618h-3.378v6H141.9v2.618h-3.8v-2.111h-6v4.138l.253.253,3.462,3.462.253.253h7.938l.253-.253,3.462-3.462.253-.253v-6.671l-.253-.253-.676-.676.676-.676.253-.253v-6.671l-.253-.253-3.462-3.462-.253-.338Z" transform="translate(-132.1 -157.7)"/>
    </g>
    <g id="Group_585" data-name="Group 585" transform="translate(15.875)">
      <path id="Path_737" data-name="Path 737" d="M157.664,180.409v-5.151h1.52v-1.267h-7.009l-.676-4.813,7.853-10.978h4.9v10.724h1.52v5.151h-1.52v1.267h1.52v5.151h-8.107Zm1.52-11.569v-2.533l-1.858,2.533Z" transform="translate(-150.993 -157.778)"/>
      <path id="Path_738" data-name="Path 738" class="cls-1" d="M163.735,158.544v10.724h1.52v4.307h-1.52v2.111h1.52v4.307h-7.347v-4.307h1.52v-2.111H152.42l-.591-4.307,7.684-10.724h4.222m-7.347,10.64h3.04v-4.307l-3.04,4.307M164.58,157.7h-5.573l-.253.338-7.684,10.724-.169.253.084.338.591,4.307.084.76h6.924v.422h-1.52v6H166.1v-6h-1.52v-.422h1.52v-6h-1.52V157.7Zm-6.5,10.64.591-.844v.844Z" transform="translate(-150.9 -157.7)"/>
    </g>
  </g>
  <path id="path4377_1_" class="cls-1" d="M162.609,145.58c-1.436-.422-1.267-.338-2.111-1.351l-.338-.422v-2.364l.169.084a6.876,6.876,0,0,1,.76.169l.591.169v1.689l.844.253a5.314,5.314,0,0,0,1.013.253l.169.084v-5.067l-.929-.338c-.507-.169-1.1-.338-1.267-.422-.338-.084-.422-.169-.929-.76l-.591-.676v-6.333l.591-.507.591-.507,1.182.338c.676.169,1.267.338,1.351.338s.338.338.76.844l.591.844v2.2l-.76-.253-.76-.253V131.9l-.929-.253a7.591,7.591,0,0,0-1.013-.253c-.084,0-.084.507-.084,2.618v2.618l1.267.422,1.267.422.591.676.591.676v6.418l-.591.422a2.356,2.356,0,0,1-.76.422,5.667,5.667,0,0,0-1.267-.507Zm-32.933-.338-.676-.676V131.731l.591-.76c.338-.422.591-.76.591-.76a25.264,25.264,0,0,1,2.7-.676,2.356,2.356,0,0,1,.76.422l.591.422v2.364l-.676.169a6.877,6.877,0,0,1-.76.169c-.084,0-.084,0-.084-.844,0-.676,0-.844-.084-.844a5.315,5.315,0,0,0-1.013.253,5.313,5.313,0,0,1-1.013.253c-.084,0,0,2.7,0,6.08,0,5.742,0,6.08.084,6.08s.507-.169,1.013-.253a5.03,5.03,0,0,0,.929-.253,4.937,4.937,0,0,0,.084-.844v-.844l.76-.169.76-.169v2.364l-.338.422a6.141,6.141,0,0,1-.676.76l-.253.338-1.267.338-1.267.338-.76-.844Zm5.911-8.36v-7.853h.169c.084,0,1.013-.169,2.027-.338a17.953,17.953,0,0,0,2.027-.338h.169v.844c0,.676,0,.844-.084.844s-.676.084-1.351.169-1.267.169-1.351.169a10.2,10.2,0,0,0-.084,2.618c0,2.449,0,2.618.084,2.618s1.351-.253,1.689-.253c.169,0,.169,0,.169.844v.844s-.422.084-.929.169-.929.169-.929.169-.084,1.182-.084,2.618a12.046,12.046,0,0,0,.084,2.618c.084,0,2.2-.253,2.449-.253h.169v1.858l-2.027.253a20.577,20.577,0,0,0-2.2.338c0-.169,0-.507,0-7.938Zm21.026,7.515-1.351-.169-.591-.676-.591-.676V129.536l.507-.422c.253-.253.507-.507.591-.507.084-.084.422,0,1.52.084,1.351.169,1.436.169,1.52.338.084.084.338.422.591.76l.422.507v2.2h-.169c-.169,0-1.351-.253-1.436-.253v-.844c0-.676,0-.844-.084-.844s-.422-.084-.929-.169-.929-.169-.929-.169c-.084,0-.084.338-.084,6.08,0,3.378,0,6.08.084,6.08s.507.084,1.013.169.929.169,1.013.169.084-.422.084-.844c0-.676,0-.844.084-.844s.422.084.844.169l.76.169v2.364l-.507.422c-.253.253-.591.422-.591.507-.338-.084-.76-.084-1.773-.253Zm-15.284-8.275v-7.769h.169a6.547,6.547,0,0,1,.76-.084h.591v13.849h.169a10.678,10.678,0,0,0,1.351-.084h1.182v1.858l-1.942.084c-1.1.084-2.027.084-2.111.084h-.169v-7.938Zm10.218,7.684h-.338V128.1h.507a2.1,2.1,0,0,1,.76.084h.253v15.707h-.422A2.1,2.1,0,0,1,151.546,143.807Zm-4.644-7.093v-6.924h-1.689V128.1h4.9v1.689h-1.689v13.849H146.9v-6.924Z" transform="translate(-20.068 -19.617)"/>
  <path id="Path_739" data-name="Path 739" class="cls-9" d="M186.25,179.535c.676-11.991,1.436-45.177-8.36-68.653-3.124,6.671-9.035,14.778-19.844,16.973-19.169,3.8-41.546-19.422-41.546-19.422l59.364-5.911L178.9,98.3l8.275,16.382,5.658,29.217,1.267,32.342Z" transform="translate(-18.123 -14.981)"/>
  <g id="Group_588" data-name="Group 588" transform="translate(85.942 15.439)">
    <g id="Group_587" data-name="Group 587">
      <path id="Path_740" data-name="Path 740" class="cls-10" d="M171.884,42.644s2.28-7.347,4.9-11.484c2.7-4.138-5.742-7.431-14.271-8.191,0,0-20.1-11.315-40.448-.084,0,0-9.373.169-13.089,7.009-3.716,6.924-6.587,23.053-6.587,23.053s-5.911,34.96,19,45.853,34.369,4.644,34.369,4.644,16.044-8.275,20.858-20.689C176.529,82.839,185.733,61.56,171.884,42.644Z" transform="translate(-101.775 -17.915)"/>
      <path id="Path_741" data-name="Path 741" class="cls-3" d="M142.5,18.8s4.391,6.333,1.267,9.12S132.7,35.1,133.126,44.133,136,55.28,130,58.657l-1.436.507s-10.555,1.52-11.822,12.075,9.88,28.8,26.515,32.257l-14.778-1.6s-12.329-4.138-16.72-9.711c0,0-8.275-8.951-9.711-20.266s3.378-33.862,3.378-33.862l4.307-10.133,6.418-3.716,6.755-1.858,11.4-3.462Z" transform="translate(-101.776 -18.052)"/>
      <path id="Path_742" data-name="Path 742" class="cls-11" d="M129.1,63.946s6.671.084,7.684-3.293l-2.871-.253C133.913,60.315,133.913,62.6,129.1,63.946Z" transform="translate(-106.026 -24.524)"/>
      <path id="Path_743" data-name="Path 743" d="M135.294,51.8c.422-.084.929.338,1.182.591,1.182,1.182,1.267,2.956,1.267,4.729,0,1.436-.507,3.124-2.2,3.462-2.364.338-2.449-1.013-2.449-3.293C133.014,55.007,133.436,51.967,135.294,51.8Z" transform="translate(-106.646 -23.184)"/>
      <path id="Path_744" data-name="Path 744" class="cls-12" d="M171.971,34.1a14.978,14.978,0,0,0-6.08,13.68c.676,9.458,2.7,18.409.422,22.884,0,0,5.236-.338,6.418-9.711,0,0,9.711,5.827,1.351,37.071l1.267.76s8.951-6.249,9.711-10.049l3.547-9.458.844-10.555-1.182-10.133-3.884-8.867-4.138-7.938Z" transform="translate(-111.742 -20.433)"/>
      <path id="Path_745" data-name="Path 745" class="cls-13" d="M171.2,60.6h0a3.439,3.439,0,0,0,2.28,2.618A19.6,19.6,0,0,1,177.7,66s-1.436-3.209-3.209-4.476Z" transform="translate(-112.575 -24.555)"/>
      <path id="Path_746" data-name="Path 746" d="M173.093,52s1.267-.422,2.027,2.364c.676,2.7.338,7.178-2.111,6.333S170.9,56.64,170.9,56.64,170.728,52.08,173.093,52Z" transform="translate(-112.525 -23.213)"/>
      <path id="Path_747" data-name="Path 747" class="cls-1" d="M173.78,54.4s-.169.929.169.929c.422,0,.76-.422.76-1.267a1.289,1.289,0,0,0-.844-1.267C173.78,52.884,173.526,52.8,173.78,54.4Z" transform="translate(-112.959 -23.342)"/>
      <path id="Path_748" data-name="Path 748" class="cls-3" d="M167.965,22.9s-.929,4.222,1.351,6.671,9.542,8.444,11.315,14.1l2.449-2.956,4.9-10.724-2.956-3.547-11.147-2.618Z" transform="translate(-112.043 -18.69)"/>
      <path id="Path_749" data-name="Path 749" class="cls-11" d="M109.871,39.076l.169-.169.676-.507,7.684,5.911s-11.738,6.418-13.6,32.764l-1.6-1.013.507-21.955,3.04-11.653" transform="translate(-101.997 -21.101)"/>
      <path id="Path_750" data-name="Path 750" class="cls-14" d="M109.309,38l1.773,1.182s-2.871,3.209-4.982,10.3L106.86,38Z" transform="translate(-102.448 -21.039)"/>
      <path id="Path_751" data-name="Path 751" class="cls-15" d="M155.783,88.961s.169-2.28-4.053-3.547-4.307-1.773-4.138-2.871a5.386,5.386,0,0,1,1.942-1.182c1.436-.591,2.7-2.364,5.151-2.364h.169a4.491,4.491,0,0,1,3.293,1.013c1.436,1.267,3.124.507,3.884,2.2S156.543,84.654,155.783,88.961Z" transform="translate(-108.895 -27.414)"/>
      <path id="Path_752" data-name="Path 752" class="cls-14" d="M155.367,88.7c0,1.52,1.858,8.191-1.773,9.458a9.638,9.638,0,0,1-7.093-.422s3.547,2.364,9.711,2.28c6.08-.169,8.951-3.547,8.951-3.547s-5.573,2.449-7.262.929C156.38,96.131,156.887,91.487,155.367,88.7Z" transform="translate(-108.733 -28.926)"/>
      <path id="Path_753" data-name="Path 753" class="cls-13" d="M152.735,82.133a3.114,3.114,0,0,1,2.871-.844c1.858.338,2.28.76,4.053.76s2.28.507,2.28.507l-4.307,2.364a2.99,2.99,0,0,1-2.364,1.267c-1.436-.084-2.364-1.013-3.209-1.013s-4.56-2.2-4.56-2.2S148.513,82.049,152.735,82.133Z" transform="translate(-108.888 -27.764)"/>
      <path id="Path_754" data-name="Path 754" class="cls-14" d="M158.9,85.059a3.872,3.872,0,0,1,4.9-2.2C163.713,82.779,162.7,84.975,158.9,85.059Z" transform="translate(-110.662 -27.988)"/>
      <path id="Path_755" data-name="Path 755" class="cls-14" d="M147.6,83.263s3.462-1.1,5.067,1.858A5.743,5.743,0,0,1,147.6,83.263Z" transform="translate(-108.904 -28.05)"/>
      <path id="Path_756" data-name="Path 756" class="cls-6" d="M171.884,42.644s2.28-7.347,4.9-11.484c2.7-4.138-5.742-7.431-14.271-8.191,0,0-20.1-11.315-40.448-.084,0,0-9.373.169-13.089,7.009-3.716,6.924-6.587,23.053-6.587,23.053s-5.911,34.96,19,45.853,34.369,4.644,34.369,4.644,16.044-8.275,20.858-20.689C176.529,82.839,185.733,61.56,171.884,42.644Z" transform="translate(-101.775 -17.915)"/>
      <path id="Path_757" data-name="Path 757" class="cls-16" d="M109.9,37.2s2.618-8.275,16.551-2.027a4.313,4.313,0,0,0-3.547,2.111c-1.182,2.111-2.027,5.911-3.462,6.164C119.442,43.445,114.8,42.432,109.9,37.2Z" transform="translate(-103.039 -20.236)"/>
      <path id="Path_758" data-name="Path 758" class="cls-14" d="M176.042,98.8s-.507,9.373-1.52,11.231l-8.022,4.138C166.584,114.253,173.171,111.72,176.042,98.8Z" transform="translate(-111.844 -30.498)"/>
      <path id="Path_759" data-name="Path 759" class="cls-1" d="M136.184,54.5s-.084-1.267-.084-1.351c0-.507.507-.169.676.084.422.591.507,1.858-.253,2.2C135.931,55.769,136.184,54.5,136.184,54.5Z" transform="translate(-107.115 -23.355)"/>
    </g>
  </g>
  <g id="Group_590" data-name="Group 590" transform="translate(84.528 2)">
    <path id="Path_760" data-name="Path 760" class="cls-17" d="M100.1,45.657s10.555-11.907,44.755-11.907c0,0,23.222-2.787,35.8,7.938,0,0,4.982-39.688-37.915-39.688C112.513,2,100.1,18.213,100.1,45.657Z" transform="translate(-100.1 -2)"/>
    <g id="Group_589" data-name="Group 589" transform="translate(39.097 5.573)">
      <path id="Path_761" data-name="Path 761" class="cls-18" d="M160.587,21.1a.761.761,0,0,1-.084-.422,4.55,4.55,0,0,0-.676-1.436A5.667,5.667,0,0,0,160.5,17.8a3.657,3.657,0,0,0,.084-.422,4.243,4.243,0,0,1,.422-1.1l1.013-1.182-1.182-1.013-.422-.422-.253-.507a5.863,5.863,0,0,1-.422-1.1l-.169-.338a5.39,5.39,0,0,0-3.631-2.956,6.518,6.518,0,0,0-1.267-.169,5.159,5.159,0,0,0-2.533.676,3.639,3.639,0,0,0-2.027-.676,3.844,3.844,0,0,0-1.689.422c-1.773.929-1.858,2.533-1.942,3.8L146.4,14.68l1.6-1.1a1.911,1.911,0,0,1,.844-.422,1.426,1.426,0,0,1,.422.169c.169.084.169.253.253.253v3.209a1.734,1.734,0,0,1-.676,1.182L147.5,19.155l1.351,1.182a1.734,1.734,0,0,1,.676,1.182v3.209q0,.127-.253.253a1.426,1.426,0,0,1-.422.169c-.169,0-.507-.338-.844-.507l-1.52-1.267.084,2.027c0,1.351.084,2.956,1.858,3.969a3.844,3.844,0,0,0,1.689.422,3.436,3.436,0,0,0,2.027-.676,5.412,5.412,0,0,0,2.533.676,6.518,6.518,0,0,0,1.267-.169,5.22,5.22,0,0,0,3.631-2.956l.169-.338c.169-.338.253-.76.422-1.1l.253-.507a.843.843,0,0,1,.422-.338l1.182-1.013L161.009,22.2C160.924,21.942,160.671,21.351,160.587,21.1Zm-5.32,2.787c.169.253.169.422.084.507a.927.927,0,0,1-.76.338,1.2,1.2,0,0,1-.507-.169V21.6a1.2,1.2,0,0,1,.507-.169h.084a.755.755,0,0,1,.676.338c.084.084,0,.253-.084.507l-.422.76Zm0-7.853c.169.253.169.422.084.507a.927.927,0,0,1-.76.338,1.2,1.2,0,0,1-.507-.169v-3.04a1.071,1.071,0,0,1,.507-.084h.084a.755.755,0,0,1,.676.338c.084.084,0,.253-.084.507l-.422.76Z" transform="translate(-146.4 -8.6)"/>
      <path id="Path_762" data-name="Path 762" class="cls-19" d="M157.927,19.539c1.52-.929,1.351-2.956,2.2-3.969-.844-.76-.929-.929-1.689-2.956a3.926,3.926,0,0,0-6.249-.929,2.078,2.078,0,0,0-3.884.507,2.046,2.046,0,0,1,2.871,1.773v3.209a3.083,3.083,0,0,1-1.182,2.364,3.083,3.083,0,0,1,1.182,2.364v3.209a2.061,2.061,0,0,1-2.871,1.773,2.078,2.078,0,0,0,3.884.507,3.926,3.926,0,0,0,6.249-.929c.844-2.027.844-2.28,1.689-2.956-.844-1.013-.676-3.04-2.2-3.969Zm-5.067,6c1.6,2.364,5.658.591,4.138-2.111,1.52-2.7-2.533-4.476-4.138-2.111v4.222Zm0-7.853c1.6,2.364,5.658.591,4.138-2.111,1.52-2.7-2.533-4.476-4.138-2.111v4.222Z" transform="translate(-146.696 -8.9)"/>
    </g>
    <path id="Path_763" data-name="Path 763" class="cls-17" d="M119,43.347l14.1,6.333s26.853-7.093,64.008,3.969L184.95,43.516C184.95,43.6,151.257,32.792,119,43.347Z" transform="translate(-103.04 -7.712)"/>
  </g>
  <path id="Path_764" data-name="Path 764" class="cls-9" d="M202.044,193.7l-.422,10.978-4.476,31.5-7.347,2.787,1.689-3.969c2.533-10.049,3.293-28.035,3.547-39.52Z" transform="translate(-29.526 -29.822)"/>
  <path id="Path_765" data-name="Path 765" class="cls-4" d="M95.751,94.8c10.555,15.791-5.658,36.226-22.209,37.577C57.244,133.728,51.755,119.12,45,107.3l12.751-10.64,11.4,14.778C69.151,111.52,80.044,98.516,95.751,94.8Z" transform="translate(-7 -14.436)"/>
  <g id="Group_596" data-name="Group 596" transform="translate(7.002 23.449)">
    <g id="Group_591" data-name="Group 591">
      <path id="Path_766" data-name="Path 766" class="cls-20" d="M41.277,112.477a1.659,1.659,0,0,1-1.436-.76l-6.164-9.8c-3.547-1.351-8.7-4.9-13.68-13.764-1.6-1.52-7.515-7.769-8.275-8.444a5.762,5.762,0,0,1,.422-8.191l.253-.169a5.382,5.382,0,0,1,3.716-1.436,6.277,6.277,0,0,1,2.111-5.235l.084-.084a6.4,6.4,0,0,1,4.222-1.6,6.607,6.607,0,0,1,2.111-5.658l.169-.169a7.084,7.084,0,0,1,3.293-1.6L18.055,39.518a6.834,6.834,0,0,1-.844-4.982,6.2,6.2,0,0,1,2.871-4.053l.253-.169A6.163,6.163,0,0,1,23.8,29.3a6.633,6.633,0,0,1,5.573,3.04L45.584,58.264l1.013-.591a6.166,6.166,0,0,1,3.209-.929,8.4,8.4,0,0,1,4.729,1.689,12.48,12.48,0,0,1,5.151,9.035l1.858,19.844,4.729,7.853a1.6,1.6,0,0,1-.591,2.28l-23.56,14.778A1.629,1.629,0,0,1,41.277,112.477Z" transform="translate(-8.591 -27.696)"/>
      <path id="Path_767" data-name="Path 767" class="cls-14" d="M23.583,30.778a5,5,0,0,1,4.138,2.28l17.142,27.36c.338-.253,2.449-1.52,2.449-1.52a4.149,4.149,0,0,1,2.28-.676,6.959,6.959,0,0,1,3.716,1.267,10.659,10.659,0,0,1,4.476,7.853l1.773,20.266,4.9,8.191L40.978,110.492l-6.418-10.3c-3.378-1.1-8.36-4.391-13.511-13.427-1.182-1.1-8.36-8.613-8.36-8.613a4.03,4.03,0,0,1,.338-5.742l.169-.169a4.141,4.141,0,0,1,2.7-1.013,4.051,4.051,0,0,1,3.04,1.351l-.253-.338a4.854,4.854,0,0,1,.338-6.671l.084-.084A4.969,4.969,0,0,1,22.232,64.3a4.678,4.678,0,0,1,3.462,1.52l-.676-.76a4.825,4.825,0,0,1,.422-6.84l.169-.169a4.835,4.835,0,0,1,3.209-1.267,4.927,4.927,0,0,1,2.2.507L19.192,38.378a4.909,4.909,0,0,1,1.52-6.755l.253-.169a5.052,5.052,0,0,1,2.618-.676m0-3.378a8.272,8.272,0,0,0-4.391,1.267l-.253.084a8.24,8.24,0,0,0-2.618,11.4l8.867,14.187A9.041,9.041,0,0,0,23.33,55.6l-.169.169a8.149,8.149,0,0,0-2.7,5.4,8.281,8.281,0,0,0-3.631,1.858l-.084.084A7.639,7.639,0,0,0,14.125,68.1a6.957,6.957,0,0,0-3.209,1.689l-.169.169h0A7.132,7.132,0,0,0,8.3,75.111a7.817,7.817,0,0,0,1.858,5.4l.084.084c1.1,1.182,6.249,6.587,8.107,8.36,4.982,8.7,10.133,12.413,13.933,14.018l5.827,9.289a3.821,3.821,0,0,0,2.111,1.52,2.338,2.338,0,0,0,.76.084,3.323,3.323,0,0,0,1.773-.507l23.56-14.778a3.486,3.486,0,0,0,1.1-4.644l-4.476-7.515L61.16,66.92a14.356,14.356,0,0,0-5.827-10.3,10.112,10.112,0,0,0-5.742-1.942,7.735,7.735,0,0,0-3.631.929L30.676,31.116A8.686,8.686,0,0,0,23.583,27.4Z" transform="translate(-8.292 -27.4)"/>
    </g>
    <circle id="Ellipse_312" data-name="Ellipse 312" class="cls-1" cx="10.893" cy="10.893" r="10.893" transform="translate(19.936 41.04)"/>
    <g id="Group_595" data-name="Group 595" transform="translate(18.522 40.132)">
      <g id="Layer_3_copy_2_" transform="translate(8.845 8.254)">
        <g id="Group_593" data-name="Group 593">
          <g id="Group_592" data-name="Group 592">
            <path id="Path_768" data-name="Path 768" class="cls-21" d="M44.5,84.869l-.76-.169L40.7,86.558l1.351,2.111,3.04-1.858.169-.76Zm.084,1.52L42.22,87.824l-.76-1.182,2.364-1.436.338.084.507.76Zm2.7,2.871-.76-.169-3.04,1.858,1.351,2.111,3.04-1.858.169-.76Zm0,1.52-2.364,1.436-.76-1.182L46.527,89.6l.338.084.507.76Zm0-1.52-.76-.169-3.04,1.858,1.351,2.111,3.04-1.858.169-.76Zm0,1.52-2.364,1.436-.76-1.182L46.527,89.6l.338.084.507.76ZM44.5,84.869l-.76-.169L40.7,86.558l1.351,2.111,3.04-1.858.169-.76Zm.084,1.52L42.22,87.824l-.76-1.182,2.364-1.436.338.084.507.76Zm-.084-1.52-.76-.169L40.7,86.558l1.351,2.111,3.04-1.858.169-.76Zm.084,1.52L42.22,87.824l-.76-1.182,2.364-1.436.338.084.507.76Zm2.7,2.871-.76-.169-3.04,1.858,1.351,2.111,3.04-1.858.169-.76Zm0,1.52-2.364,1.436-.76-1.182L46.527,89.6l.338.084.507.76Zm0-1.52-.76-.169-3.04,1.858,1.351,2.111,3.04-1.858.169-.76Zm0,1.52-2.364,1.436-.76-1.182L46.527,89.6l.338.084.507.76ZM44.5,84.869l-.76-.169L40.7,86.558l1.351,2.111,3.04-1.858.169-.76Zm.084,1.52L42.22,87.824l-.76-1.182,2.364-1.436.338.084.507.76Zm-.084-1.52-.76-.169L40.7,86.558l1.351,2.111,3.04-1.858.169-.76Zm.084,1.52L42.22,87.824l-.76-1.182,2.364-1.436.338.084.507.76Zm2.7,2.871-.76-.169-3.04,1.858,1.351,2.111,3.04-1.858.169-.76Zm0,1.52-2.364,1.436-.76-1.182L46.527,89.6l.338.084.507.76Zm0-1.52-.76-.169-3.04,1.858,1.351,2.111,3.04-1.858.169-.76Zm0,1.52-2.364,1.436-.76-1.182L46.527,89.6l.338.084.507.76ZM44.5,84.869l-.76-.169L40.7,86.558l1.351,2.111,3.04-1.858.169-.76Zm.084,1.52L42.22,87.824l-.76-1.182,2.364-1.436.338.084.507.76Zm-.084-1.52-.76-.169L40.7,86.558l1.351,2.111,3.04-1.858.169-.76Zm.084,1.52L42.22,87.824l-.76-1.182,2.364-1.436.338.084.507.76Zm2.7,2.871-.76-.169-3.04,1.858,1.351,2.111,3.04-1.858.169-.76Zm0,1.52-2.364,1.436-.76-1.182L46.527,89.6l.338.084.507.76Zm0-1.52-.76-.169-3.04,1.858,1.351,2.111,3.04-1.858.169-.76Zm0,1.52-2.364,1.436-.76-1.182L46.527,89.6l.338.084.507.76ZM44.5,84.869l-.76-.169L40.7,86.558l1.351,2.111,3.04-1.858.169-.76Zm.084,1.52L42.22,87.824l-.76-1.182,2.364-1.436.338.084.507.76Zm-.084-1.52-.76-.169L40.7,86.558l1.351,2.111,3.04-1.858.169-.76Zm.084,1.52L42.22,87.824l-.76-1.182,2.364-1.436.338.084.507.76Zm2.7,2.871-.76-.169-3.04,1.858,1.351,2.111,3.04-1.858.169-.76Zm0,1.52-2.364,1.436-.76-1.182L46.527,89.6l.338.084.507.76Zm0-1.52-.76-.169-3.04,1.858,1.351,2.111,3.04-1.858.169-.76Zm0,1.52-2.364,1.436-.76-1.182L46.527,89.6l.338.084.507.76ZM44.5,84.869l-.76-.169L40.7,86.558l1.351,2.111,3.04-1.858.169-.76Zm.084,1.52L42.22,87.824l-.76-1.182,2.364-1.436.338.084.507.76Zm-.084-1.52-.76-.169L40.7,86.558l1.351,2.111,3.04-1.858.169-.76Zm.084,1.52L42.22,87.824l-.76-1.182,2.364-1.436.338.084.507.76Zm2.7,2.871-.76-.169-3.04,1.858,1.351,2.111,3.04-1.858.169-.76Zm0,1.52-2.364,1.436-.76-1.182L46.527,89.6l.338.084.507.76Zm0-1.52-.76-.169-3.04,1.858,1.351,2.111,3.04-1.858.169-.76Zm0,1.52-2.364,1.436-.76-1.182L46.527,89.6l.338.084.507.76ZM44.5,84.869l-.76-.169L40.7,86.558l1.351,2.111,3.04-1.858.169-.76Zm.084,1.52L42.22,87.824l-.76-1.182,2.364-1.436.338.084.507.76Zm-.084-1.52-.76-.169L40.7,86.558l1.351,2.111,3.04-1.858.169-.76Zm.084,1.52L42.22,87.824l-.76-1.182,2.364-1.436.338.084.507.76Zm2.7,2.871-.76-.169-3.04,1.858,1.351,2.111,3.04-1.858.169-.76Zm0,1.52-2.364,1.436-.76-1.182L46.527,89.6l.338.084.507.76Zm0-1.52-.76-.169-3.04,1.858,1.351,2.111,3.04-1.858.169-.76Zm0,1.52-2.364,1.436-.76-1.182L46.527,89.6l.338.084.507.76ZM44.5,84.869l-.76-.169L40.7,86.558l1.351,2.111,3.04-1.858.169-.76Zm.084,1.52L42.22,87.824l-.76-1.182,2.364-1.436.338.084.507.76Zm-.084-1.52-.76-.169L40.7,86.558l1.351,2.111,3.04-1.858.169-.76Zm.084,1.52L42.22,87.824l-.76-1.182,2.364-1.436.338.084.507.76Zm2.7,2.871-.76-.169-3.04,1.858,1.351,2.111,3.04-1.858.169-.76Zm0,1.52-2.364,1.436-.76-1.182L46.527,89.6l.338.084.507.76Zm0-1.52-.76-.169-3.04,1.858,1.351,2.111,3.04-1.858.169-.76Zm0,1.52-2.364,1.436-.76-1.182L46.527,89.6l.338.084.507.76ZM44.5,84.869l-.76-.169L40.7,86.558l1.351,2.111,3.04-1.858.169-.76Zm.084,1.52L42.22,87.824l-.76-1.182,2.364-1.436.338.084.507.76Zm-.084-1.52-.76-.169L40.7,86.558l1.351,2.111,3.04-1.858.169-.76Zm.084,1.52L42.22,87.824l-.76-1.182,2.364-1.436.338.084.507.76Zm2.7,2.871-.76-.169-3.04,1.858,1.351,2.111,3.04-1.858.169-.76Zm0,1.52-2.364,1.436-.76-1.182L46.527,89.6l.338.084.507.76Zm0-1.52-.76-.169-3.04,1.858,1.351,2.111,3.04-1.858.169-.76Zm0,1.52-2.364,1.436-.76-1.182L46.527,89.6l.338.084.507.76ZM44.5,84.869l-.76-.169L40.7,86.558l1.351,2.111,3.04-1.858.169-.76Zm.084,1.52L42.22,87.824l-.76-1.182,2.364-1.436.338.084.507.76Zm-.084-1.52-.76-.169L40.7,86.558l1.351,2.111,3.04-1.858.169-.76Zm.084,1.52L42.22,87.824l-.76-1.182,2.364-1.436.338.084.507.76Zm2.7,2.871-.76-.169-3.04,1.858,1.351,2.111,3.04-1.858.169-.76Zm0,1.52-2.364,1.436-.76-1.182L46.527,89.6l.338.084.507.76Zm0-1.52-.76-.169-3.04,1.858,1.351,2.111,3.04-1.858.169-.76Zm0,1.52-2.364,1.436-.76-1.182L46.527,89.6l.338.084.507.76ZM44.5,84.869l-.76-.169L40.7,86.558l1.351,2.111,3.04-1.858.169-.76Zm.084,1.52L42.22,87.824l-.76-1.182,2.364-1.436.338.084.507.76Zm-.084-1.52-.76-.169L40.7,86.558l1.351,2.111,3.04-1.858.169-.76Zm.084,1.52L42.22,87.824l-.76-1.182,2.364-1.436.338.084.507.76Zm2.7,2.871-.76-.169-3.04,1.858,1.351,2.111,3.04-1.858.169-.76Zm0,1.52-2.364,1.436-.76-1.182L46.527,89.6l.338.084.507.76Zm0-1.52-.76-.169-3.04,1.858,1.351,2.111,3.04-1.858.169-.76Zm0,1.52-2.364,1.436-.76-1.182L46.527,89.6l.338.084.507.76ZM44.5,84.869l-.76-.169L40.7,86.558l1.351,2.111,3.04-1.858.169-.76Zm.084,1.52L42.22,87.824l-.76-1.182,2.364-1.436.338.084.507.76Zm-.084-1.52-.76-.169L40.7,86.558l1.351,2.111,3.04-1.858.169-.76Zm.084,1.52L42.22,87.824l-.76-1.182,2.364-1.436.338.084.507.76Zm2.7,2.871-.76-.169-3.04,1.858,1.351,2.111,3.04-1.858.169-.76Zm0,1.52-2.364,1.436-.76-1.182L46.527,89.6l.338.084.507.76Zm0-1.52-.76-.169-3.04,1.858,1.351,2.111,3.04-1.858.169-.76Zm0,1.52-2.364,1.436-.76-1.182L46.527,89.6l.338.084.507.76ZM44.5,84.869l-.76-.169L40.7,86.558l1.351,2.111,3.04-1.858.169-.76Zm.084,1.52L42.22,87.824l-.76-1.182,2.364-1.436.338.084.507.76Zm2.7,2.871-.76-.169-3.04,1.858,1.351,2.111,3.04-1.858.169-.76Zm0,1.52-2.364,1.436-.76-1.182L46.527,89.6l.338.084.507.76ZM44.5,84.869l-.76-.169L40.7,86.558l1.351,2.111,3.04-1.858.169-.76Zm.084,1.52L42.22,87.824l-.76-1.182,2.364-1.436.338.084.507.76Zm2.7,2.871-.76-.169-3.04,1.858,1.351,2.111,3.04-1.858.169-.76Zm0,1.52-2.364,1.436-.76-1.182L46.527,89.6l.338.084.507.76ZM44.5,84.869l-.76-.169L40.7,86.558l1.351,2.111,3.04-1.858.169-.76Zm.084,1.52L42.22,87.824l-.76-1.182,2.364-1.436.338.084.507.76Zm2.7,2.871-.76-.169-3.04,1.858,1.351,2.111,3.04-1.858.169-.76Zm0,1.52-2.364,1.436-.76-1.182L46.527,89.6l.338.084.507.76ZM44.5,84.869l-.76-.169L40.7,86.558l1.351,2.111,3.04-1.858.169-.76Zm.084,1.52L42.22,87.824l-.76-1.182,2.364-1.436.338.084.507.76Zm2.7,2.871-.76-.169-3.04,1.858,1.351,2.111,3.04-1.858.169-.76Zm0,1.52-2.364,1.436-.76-1.182L46.527,89.6l.338.084.507.76ZM44.5,84.869l-.76-.169L40.7,86.558l1.351,2.111,3.04-1.858.169-.76Zm.084,1.52L42.22,87.824l-.76-1.182,2.364-1.436.338.084.507.76Zm2.7,2.871-.76-.169-3.04,1.858,1.351,2.111,3.04-1.858.169-.76Zm0,1.52-2.364,1.436-.76-1.182L46.527,89.6l.338.084.507.76ZM44.5,84.869l-.76-.169L40.7,86.558l1.351,2.111,3.04-1.858.169-.76Zm.084,1.52L42.22,87.824l-.76-1.182,2.364-1.436.338.084.507.76Zm2.7,2.871-.76-.169-3.04,1.858,1.351,2.111,3.04-1.858.169-.76Zm0,1.52-2.364,1.436-.76-1.182L46.527,89.6l.338.084.507.76ZM44.5,84.869l-.76-.169L40.7,86.558l1.351,2.111,3.04-1.858.169-.76Zm.084,1.52L42.22,87.824l-.76-1.182,2.364-1.436.338.084.507.76Zm2.7,2.871-.76-.169-3.04,1.858,1.351,2.111,3.04-1.858.169-.76Zm0,1.52-2.364,1.436-.76-1.182L46.527,89.6l.338.084.507.76ZM44.5,84.869l-.76-.169L40.7,86.558l1.351,2.111,3.04-1.858.169-.76Zm.084,1.52L42.22,87.824l-.76-1.182,2.364-1.436.338.084.507.76Zm-.084-1.52-.76-.169L40.7,86.558l1.351,2.111,3.04-1.858.169-.76Zm.084,1.52L42.22,87.824l-.76-1.182,2.364-1.436.338.084.507.76Zm2.7,2.871-.76-.169-3.04,1.858,1.351,2.111,3.04-1.858.169-.76Zm0,1.52-2.364,1.436-.76-1.182L46.527,89.6l.338.084.507.76ZM44.5,84.869l-.76-.169L40.7,86.558l1.351,2.111,3.04-1.858.169-.76Zm.084,1.52L42.22,87.824l-.76-1.182,2.364-1.436.338.084.507.76Zm2.7,2.871-.76-.169-3.04,1.858,1.351,2.111,3.04-1.858.169-.76Zm0,1.52-2.364,1.436-.76-1.182L46.527,89.6l.338.084.507.76ZM44.5,84.869l-.76-.169L40.7,86.558l1.351,2.111,3.04-1.858.169-.76Zm.084,1.52L42.22,87.824l-.76-1.182,2.364-1.436.338.084.507.76Zm2.7,2.871-.76-.169-3.04,1.858,1.351,2.111,3.04-1.858.169-.76Zm0,1.52-2.364,1.436-.76-1.182L46.527,89.6l.338.084.507.76ZM44.5,84.869l-.76-.169L40.7,86.558l1.351,2.111,3.04-1.858.169-.76Zm.084,1.52L42.22,87.824l-.76-1.182,2.364-1.436.338.084.507.76Zm2.7,2.871-.76-.169-3.04,1.858,1.351,2.111,3.04-1.858.169-.76Zm0,1.52-2.364,1.436-.76-1.182L46.527,89.6l.338.084.507.76ZM44.5,84.869l-.76-.169L40.7,86.558l1.351,2.111,3.04-1.858.169-.76Zm.084,1.52L42.22,87.824l-.76-1.182,2.364-1.436.338.084.507.76Zm2.7,2.871-.76-.169-3.04,1.858,1.351,2.111,3.04-1.858.169-.76Zm0,1.52-2.364,1.436-.76-1.182L46.527,89.6l.338.084.507.76ZM44.5,84.869l-.76-.169L40.7,86.558l1.351,2.111,3.04-1.858.169-.76Zm.084,1.52L42.22,87.824l-.76-1.182,2.364-1.436.338.084.507.76Zm2.7,2.871-.76-.169-3.04,1.858,1.351,2.111,3.04-1.858.169-.76Zm0,1.52-2.364,1.436-.76-1.182L46.527,89.6l.338.084.507.76ZM44.5,84.869l-.76-.169L40.7,86.558l1.351,2.111,3.04-1.858.169-.76Zm.084,1.52L42.22,87.824l-.76-1.182,2.364-1.436.338.084.507.76Zm2.7,2.871-.76-.169-3.04,1.858,1.351,2.111,3.04-1.858.169-.76Zm0,1.52-2.364,1.436-.76-1.182L46.527,89.6l.338.084.507.76ZM44.5,84.869l-.76-.169L40.7,86.558l1.351,2.111,3.04-1.858.169-.76Zm.084,1.52L42.22,87.824l-.76-1.182,2.364-1.436.338.084.507.76Zm2.7,2.871-.76-.169-3.04,1.858,1.351,2.111,3.04-1.858.169-.76Zm0,1.52-2.364,1.436-.76-1.182L46.527,89.6l.338.084.507.76Zm0-1.52-.76-.169-3.04,1.858,1.351,2.111,3.04-1.858.169-.76Zm0,1.52-2.364,1.436-.76-1.182L46.527,89.6l.338.084.507.76ZM44.5,84.869l-.76-.169L40.7,86.558l1.351,2.111,3.04-1.858.169-.76Zm.084,1.52L42.22,87.824l-.76-1.182,2.364-1.436.338.084.507.76Zm-.084-1.52-.76-.169L40.7,86.558l1.351,2.111,3.04-1.858.169-.76Zm.084,1.52L42.22,87.824l-.76-1.182,2.364-1.436.338.084.507.76Zm2.7,2.871-.76-.169-3.04,1.858,1.351,2.111,3.04-1.858.169-.76Zm0,1.52-2.364,1.436-.76-1.182L46.527,89.6l.338.084.507.76Zm0-1.52-.76-.169-3.04,1.858,1.351,2.111,3.04-1.858.169-.76Zm0,1.52-2.364,1.436-.76-1.182L46.527,89.6l.338.084.507.76ZM44.5,84.869l-.76-.169L40.7,86.558l1.351,2.111,3.04-1.858.169-.76Zm.084,1.52L42.22,87.824l-.76-1.182,2.364-1.436.338.084.507.76Zm-.084-1.52-.76-.169L40.7,86.558l1.351,2.111,3.04-1.858.169-.76Zm.084,1.52L42.22,87.824l-.76-1.182,2.364-1.436.338.084.507.76Zm2.7,2.871-.76-.169-3.04,1.858,1.351,2.111,3.04-1.858.169-.76Zm0,1.52-2.364,1.436-.76-1.182L46.527,89.6l.338.084.507.76Zm0-1.52-.76-.169-3.04,1.858,1.351,2.111,3.04-1.858.169-.76Zm0,1.52-2.364,1.436-.76-1.182L46.527,89.6l.338.084.507.76ZM44.5,84.869l-.76-.169L40.7,86.558l1.351,2.111,3.04-1.858.169-.76Zm.084,1.52L42.22,87.824l-.76-1.182,2.364-1.436.338.084.507.76Zm-.084-1.52-.76-.169L40.7,86.558l1.351,2.111,3.04-1.858.169-.76Zm.084,1.52L42.22,87.824l-.76-1.182,2.364-1.436.338.084.507.76Zm2.7,2.871-.76-.169-3.04,1.858,1.351,2.111,3.04-1.858.169-.76Zm0,1.52-2.364,1.436-.76-1.182L46.527,89.6l.338.084.507.76Zm0-1.52-.76-.169-3.04,1.858,1.351,2.111,3.04-1.858.169-.76Zm0,1.52-2.364,1.436-.76-1.182L46.527,89.6l.338.084.507.76ZM44.5,84.869l-.76-.169L40.7,86.558l1.351,2.111,3.04-1.858.169-.76Zm.084,1.52L42.22,87.824l-.76-1.182,2.364-1.436.338.084.507.76Zm-.084-1.52-.76-.169L40.7,86.558l1.351,2.111,3.04-1.858.169-.76Zm.084,1.52L42.22,87.824l-.76-1.182,2.364-1.436.338.084.507.76Zm2.7,2.871-.76-.169-3.04,1.858,1.351,2.111,3.04-1.858.169-.76Zm0,1.52-2.364,1.436-.76-1.182L46.527,89.6l.338.084.507.76Zm0-1.52-.76-.169-3.04,1.858,1.351,2.111,3.04-1.858.169-.76Zm0,1.52-2.364,1.436-.76-1.182L46.527,89.6l.338.084.507.76ZM44.5,84.869l-.76-.169L40.7,86.558l1.351,2.111,3.04-1.858.169-.76Zm.084,1.52L42.22,87.824l-.76-1.182,2.364-1.436.338.084.507.76Zm-.084-1.52-.76-.169L40.7,86.558l1.351,2.111,3.04-1.858.169-.76Zm.084,1.52L42.22,87.824l-.76-1.182,2.364-1.436.338.084.507.76Zm2.7,2.871-.76-.169-3.04,1.858,1.351,2.111,3.04-1.858.169-.76Zm0,1.52-2.364,1.436-.76-1.182L46.527,89.6l.338.084.507.76Zm0-1.52-.76-.169-3.04,1.858,1.351,2.111,3.04-1.858.169-.76Zm0,1.52-2.364,1.436-.76-1.182L46.527,89.6l.338.084.507.76ZM44.5,84.869l-.76-.169L40.7,86.558l1.351,2.111,3.04-1.858.169-.76Zm.084,1.52L42.22,87.824l-.76-1.182,2.364-1.436.338.084.507.76Zm-.084-1.52-.76-.169L40.7,86.558l1.351,2.111,3.04-1.858.169-.76Zm.084,1.52L42.22,87.824l-.76-1.182,2.364-1.436.338.084.507.76Zm2.7,2.871-.76-.169-3.04,1.858,1.351,2.111,3.04-1.858.169-.76Zm0,1.52-2.364,1.436-.76-1.182L46.527,89.6l.338.084.507.76Zm0-1.52-.76-.169-3.04,1.858,1.351,2.111,3.04-1.858.169-.76Zm0,1.52-2.364,1.436-.76-1.182L46.527,89.6l.338.084.507.76ZM44.5,84.869l-.76-.169L40.7,86.558l1.351,2.111,3.04-1.858.169-.76Zm.084,1.52L42.22,87.824l-.76-1.182,2.364-1.436.338.084.507.76Zm-.084-1.52-.76-.169L40.7,86.558l1.351,2.111,3.04-1.858.169-.76Zm.084,1.52L42.22,87.824l-.76-1.182,2.364-1.436.338.084.507.76Zm2.7,2.871-.76-.169-3.04,1.858,1.351,2.111,3.04-1.858.169-.76Zm0,1.52-2.364,1.436-.76-1.182L46.527,89.6l.338.084.507.76Zm0-1.52-.76-.169-3.04,1.858,1.351,2.111,3.04-1.858.169-.76Zm0,1.52-2.364,1.436-.76-1.182L46.527,89.6l.338.084.507.76ZM44.5,84.869l-.76-.169L40.7,86.558l1.351,2.111,3.04-1.858.169-.76Zm.084,1.52L42.22,87.824l-.76-1.182,2.364-1.436.338.084.507.76Zm-.084-1.52-.76-.169L40.7,86.558l1.351,2.111,3.04-1.858.169-.76Zm.084,1.52L42.22,87.824l-.76-1.182,2.364-1.436.338.084.507.76Zm2.7,2.871-.76-.169-3.04,1.858,1.351,2.111,3.04-1.858.169-.76Zm0,1.52-2.364,1.436-.76-1.182L46.527,89.6l.338.084.507.76Zm0-1.52-.76-.169-3.04,1.858,1.351,2.111,3.04-1.858.169-.76Zm0,1.52-2.364,1.436-.76-1.182L46.527,89.6l.338.084.507.76ZM44.5,84.869l-.76-.169L40.7,86.558l1.351,2.111,3.04-1.858.169-.76Zm.084,1.52L42.22,87.824l-.76-1.182,2.364-1.436.338.084.507.76Zm-.084-1.52-.76-.169L40.7,86.558l1.351,2.111,3.04-1.858.169-.76Zm.084,1.52L42.22,87.824l-.76-1.182,2.364-1.436.338.084.507.76Zm2.7,2.871-.76-.169-3.04,1.858,1.351,2.111,3.04-1.858.169-.76Zm0,1.52-2.364,1.436-.76-1.182L46.527,89.6l.338.084.507.76Zm0-1.52-.76-.169-3.04,1.858,1.351,2.111,3.04-1.858.169-.76Zm0,1.52-2.364,1.436-.76-1.182L46.527,89.6l.338.084.507.76ZM44.5,84.869l-.76-.169L40.7,86.558l1.351,2.111,3.04-1.858.169-.76Zm.084,1.52L42.22,87.824l-.76-1.182,2.364-1.436.338.084.507.76Zm-.084-1.52-.76-.169L40.7,86.558l1.351,2.111,3.04-1.858.169-.76Zm.084,1.52L42.22,87.824l-.76-1.182,2.364-1.436.338.084.507.76Zm2.7,2.871-.76-.169-3.04,1.858,1.351,2.111,3.04-1.858.169-.76Zm0,1.52-2.364,1.436-.76-1.182L46.527,89.6l.338.084.507.76Zm0-1.52-.76-.169-3.04,1.858,1.351,2.111,3.04-1.858.169-.76Zm0,1.52-2.364,1.436-.76-1.182L46.527,89.6l.338.084.507.76ZM44.5,84.869l-.76-.169L40.7,86.558l1.351,2.111,3.04-1.858.169-.76Zm.084,1.52L42.22,87.824l-.76-1.182,2.364-1.436.338.084.507.76Zm-.084-1.52-.76-.169L40.7,86.558l1.351,2.111,3.04-1.858.169-.76Zm.084,1.52L42.22,87.824l-.76-1.182,2.364-1.436.338.084.507.76Zm2.7,2.871-.76-.169-3.04,1.858,1.351,2.111,3.04-1.858.169-.76Zm0,1.52-2.364,1.436-.76-1.182L46.527,89.6l.338.084.507.76Zm0-1.52-.76-.169-3.04,1.858,1.351,2.111,3.04-1.858.169-.76Zm0,1.52-2.364,1.436-.76-1.182L46.527,89.6l.338.084.507.76ZM44.5,84.869l-.76-.169L40.7,86.558l1.351,2.111,3.04-1.858.169-.76Zm.084,1.52L42.22,87.824l-.76-1.182,2.364-1.436.338.084.507.76Z" transform="translate(-40.7 -84.7)"/>
          </g>
        </g>
      </g>
      <g id="Layer_6_2_">
        <g id="Group_594" data-name="Group 594">
          <path id="Path_769" data-name="Path 769" class="cls-21" d="M49.71,77.184A12.343,12.343,0,0,0,45.4,75.242a12.745,12.745,0,0,0-4.729-.169,13.39,13.39,0,0,0-4.644,1.689,11.3,11.3,0,0,0-3.547,3.378,12.343,12.343,0,0,0-1.942,4.307,12.745,12.745,0,0,0-.169,4.729,13.39,13.39,0,0,0,1.689,4.644,11.3,11.3,0,0,0,3.378,3.547,12.343,12.343,0,0,0,4.307,1.942,12.745,12.745,0,0,0,4.729.169,13.39,13.39,0,0,0,4.644-1.689,11.3,11.3,0,0,0,3.547-3.378A12.342,12.342,0,0,0,54.608,90.1a12.745,12.745,0,0,0,.169-4.729,13.39,13.39,0,0,0-1.689-4.644A14.944,14.944,0,0,0,49.71,77.184Zm1.013,3.547-3.8,2.364L45.4,80.646l.76-3.293A11.332,11.332,0,0,1,50.724,80.731Zm-5.151-3.462L44.9,80.224l-.253-.084-1.1-.253.676-2.956A6.326,6.326,0,0,1,45.573,77.268Zm1.689,7.938H47.6l1.858,3.04V88.5L49.2,89.6l-.169.591-.169.844-.084.169-7.347,4.56-1.013-1.689.084-.169.253-1.013-3.969-6.333-1.1-.253h-.169l-1.013-1.689,7.347-4.56h.169l.929.169.591.084,1.1.253h.169L46.67,83.6l-.084.169v.084l-.253,1.013Zm-9.2-7.431a10.689,10.689,0,0,1,5.573-.929l-.676,2.871-.929-.169-.422-.084-1.858,1.182Zm-1.689,1.013a3.574,3.574,0,0,1,.591-.422c.169-.084.422-.253.591-.338L39.324,80.9l-1.182.76Zm-.422.338,1.773,2.787-3.462,2.2-1.6-.338A10.478,10.478,0,0,1,35.946,79.126Zm-3.462,5.151,1.436.338L34.933,86.3l-2.787-.676A10.5,10.5,0,0,1,32.484,84.277Zm-.422,1.942,4.56,1.013,1.013,1.6-4.644,2.871A10.248,10.248,0,0,1,32.062,86.219Zm1.52,6.755c-.084-.169-.253-.422-.338-.591l4.644-2.956.76,1.182L34,93.566A3.575,3.575,0,0,0,33.582,92.975Zm.76,1.013,4.644-2.871L40,92.722l-1.013,4.56A11.188,11.188,0,0,1,34.342,93.988Zm5.151,3.462.591-2.7L41.1,96.437l-.338,1.351A13.058,13.058,0,0,0,39.493,97.45Zm7.515-.591a10.689,10.689,0,0,1-5.573.929l.338-1.6,3.462-2.2ZM48.7,95.93a3.575,3.575,0,0,1-.591.422c-.169.084-.422.253-.591.338l-1.773-2.871,1.182-.76Zm.507-.422L47.43,92.722l1.858-1.182.084-.422.253-.929,2.871.676A10.211,10.211,0,0,1,49.2,95.508Zm3.462-5.151-2.956-.676.253-1.1.084-.253,2.871.676A6.4,6.4,0,0,1,52.666,90.357ZM53,88.5l-3.293-.76-1.52-2.449,3.884-2.364A9.79,9.79,0,0,1,53,88.5Zm-1.182-6.164-3.884,2.449h0l-.422-.084-.507-.084.169-.507.084-.422h0l3.884-2.449a3.575,3.575,0,0,1,.422.591Z" transform="translate(-30.226 -74.926)"/>
          <path id="Path_770" data-name="Path 770" class="cls-21" d="M44.275,81.938l-.591-.084-.929-.253L36,85.822l.676,1.1,1.267.253,4.222,6.755L41.827,95.2l.676,1.1,6.755-4.222.253-.929.169-.591.253-1.1-1.689-2.7-.591-.169-.929-.169.253-1.013.169-.591-1.689-2.7Zm-4.9,3.969.76-.507,2.2-1.351.676-.422.338.084.844.169.929,1.436L44.867,86.5l-3.547,2.2Zm8.107,5.067-3.547,2.2L42.164,90.3l3.547-2.2h0l1.182.253.929,1.436Z" transform="translate(-31.124 -75.964)"/>
        </g>
      </g>
    </g>
  </g>
  <g id="Group_602" data-name="Group 602" transform="translate(143.593 80.617)">
    <path id="Path_771" data-name="Path 771" class="cls-4" d="M193.14,95.1a47.336,47.336,0,0,1,25.586,25c8.022,18.915-21.786,31.244-21.786,31.244L190.1,139.6l10.64-12.835C200.824,126.766,189,113.255,193.14,95.1Z" transform="translate(-173.166 -95.1)"/>
    <g id="Group_601" data-name="Group 601" transform="translate(0 8.561)">
      <g id="Group_599" data-name="Group 599" transform="translate(0.084 0.083)">
        <g id="Group_597" data-name="Group 597">
          <path id="Path_772" data-name="Path 772" class="cls-22" d="M172.387,151.412s-7.515-17.733,4.982-33.186a33.717,33.717,0,0,1,30.146-12.667" transform="translate(-170.147 -105.336)"/>
          <path id="Path_773" data-name="Path 773" class="cls-23" d="M207.913,105.5s7.093,17.311-5.573,32.933c-12.751,15.791-29.64,13-29.64,13" transform="translate(-170.544 -105.362)"/>
        </g>
        <g id="Group_598" data-name="Group 598" transform="translate(9.645 11.332)">
          <path id="Path_774" data-name="Path 774" class="cls-1" d="M196.119,119.131c.253.338,3.378,4.644,3.378,4.644l-.253,1.267,1.689.929-.084.844s.422.338.422.591a2.02,2.02,0,0,1,1.1,2.787,27.662,27.662,0,0,0-6.755,1.013,16.245,16.245,0,0,0-4.729,2.787c-.507.422-.929-.084-1.013-.422a13.056,13.056,0,0,1-2.787,3.969c-.338.338-.844.676-1.182.084a27.274,27.274,0,0,1-3.124,4.644c-.422.507-.76.422-1.013.253-.338-.169-.169-.676,0-.929a23.643,23.643,0,0,0,2.027-4.56,79.4,79.4,0,0,1,2.871-7.938c1.1-2.111,3.293-5.489,5.4-6.755a6.837,6.837,0,0,0,3.124-3.124C195.359,118.455,195.866,118.793,196.119,119.131Z" transform="translate(-181.569 -118.756)"/>
          <path id="Path_775" data-name="Path 775" class="cls-24" d="M182.2,143.944a31.537,31.537,0,0,0,2.787-6.84,33.862,33.862,0,0,1,1.858-5.4l1.351.676c-1.436,2.787-1.942,5.151-2.956,7.009A18.838,18.838,0,0,1,182.2,143.944Z" transform="translate(-181.667 -120.77)"/>
          <path id="Path_776" data-name="Path 776" class="cls-24" d="M187.3,139.5a11.491,11.491,0,0,0,1.689-4.053,16.471,16.471,0,0,1,.929-2.449l1.182.591A18.771,18.771,0,0,1,187.3,139.5Z" transform="translate(-182.461 -120.972)"/>
          <path id="Path_777" data-name="Path 777" class="cls-25" d="M188,129.518l1.351.676s.929-1.6,2.027-1.942a14.548,14.548,0,0,0-1.267,2.28l1.182.507a5.4,5.4,0,0,1,2.7-2.7,11.443,11.443,0,0,0-1.773,3.124,10.336,10.336,0,0,1-.844,1.942,16.56,16.56,0,0,1,5.658-3.209,22.517,22.517,0,0,1,5.827-.76c.084-.844-.169-1.52-1.013-1.689l-.338-.507-.338-.253.084-.76s-1.436-.844-1.689-.929l.253-1.52-3.293-4.476a5.47,5.47,0,0,1-2.364,2.7,15.884,15.884,0,0,0-3.547,3.124A29.656,29.656,0,0,0,188,129.518Z" transform="translate(-182.569 -118.841)"/>
          <path id="Path_778" data-name="Path 778" class="cls-1" d="M196.844,122.869l.253,1.013-1.1.844h1.267l.422,1.351.507-1.436,1.52-.169-1.267-.676.338-1.1-1.013.76Z" transform="translate(-183.814 -119.37)"/>
          <path id="Path_779" data-name="Path 779" class="cls-26" d="M199.58,127.513a1.053,1.053,0,0,0-.084,1.436l1.1-1.351s-.591-.676-.169-1.1l2.027,1.1-.591.76.084.253.591-.169.169.169-.338.422.084.76s.169-.253.253-.422.253-.338.338-.507l.253.338-.253.338h.76s.422.084.422.76a15.612,15.612,0,0,0-4.9.676c-.084-.422,0-.844.844-1.013a4.128,4.128,0,0,1,1.351-.084l-1.013-.507-1.858.507C198.482,129.793,197.806,128.358,199.58,127.513Z" transform="translate(-184.185 -119.961)"/>
        </g>
      </g>
      <g id="Group_600" data-name="Group 600">
        <path id="Path_780" data-name="Path 780" class="cls-6" d="M207.5,105.459s7.093,17.311-5.573,32.933c-12.751,15.791-29.64,13-29.64,13s-7.515-17.733,4.982-33.186A33.827,33.827,0,0,1,207.5,105.459Z" transform="translate(-170.047 -105.238)"/>
      </g>
    </g>
    <path id="Path_781" data-name="Path 781" class="cls-27" d="M190.386,146.908s-3.293-3.547-1.689-4.729c3.462-2.618,12.16,2.871,11.315,11.484-.929,9.373-17.649,9.12-16.72,5.067.084-1.267,5.4-3.884,5.4-3.884s-4.476-3.631-4.053-5.911C184.982,146.4,190.386,146.908,190.386,146.908Z" transform="translate(-172.102 -102.322)"/>
  </g>
</svg>
