<svg id="Group_450" data-name="Group 450" xmlns="http://www.w3.org/2000/svg" xmlns:xlink="http://www.w3.org/1999/xlink" viewBox="0 0 233.758 260.026">
  <defs>
    <style>
      .cls-1 {
        fill: #fff;
      }

      .cls-2 {
        fill: #ebcd96;
      }

      .cls-3 {
        fill: #492e1b;
        opacity: 0.2;
      }

      .cls-4 {
        fill: #cd8648;
      }

      .cls-5 {
        fill: #2d1211;
      }

      .cls-6 {
        fill: #fff0ce;
      }

      .cls-7 {
        fill: #faa819;
      }

      .cls-8 {
        clip-path: url(#clip-path);
      }

      .cls-9 {
        fill: #ef7e2f;
      }

      .cls-10 {
        fill: #aa6629;
      }

      .cls-11 {
        fill: #d8c9a9;
      }

      .cls-12 {
        fill: #ceb389;
      }

      .cls-13 {
        fill: #dbcbac;
      }

      .cls-14 {
        fill: #87481f;
      }

      .cls-15 {
        fill: #2b1211;
      }

      .cls-16 {
        fill: #59c3b9;
      }

      .cls-17, .cls-18 {
        opacity: 0.8;
      }

      .cls-17 {
        fill: url(#linear-gradient);
      }

      .cls-18 {
        fill: url(#linear-gradient-2);
      }

      .cls-19 {
        fill: none;
      }

      .cls-20 {
        fill: #edce96;
      }

      .cls-21 {
        fill: #e6e7e6;
      }

      .cls-22 {
        fill: #61c8d4;
      }

      .cls-23 {
        fill: #d2eefa;
      }

      .cls-24 {
        fill: #0089bc;
      }
    </style>
    <clipPath id="clip-path">
      <path id="Path_248" data-name="Path 248" d="M115.5,238.985c46.666,11.131,69.442-4.281,69.442-4.281,8.134-25.688,7.621-51.8,7.621-51.8-28.685,20.55-72.61,11.559-72.61,11.559Z" transform="translate(-115.5 -182.9)"/>
    </clipPath>
    <linearGradient id="linear-gradient" x1="-0.001" y1="0.5" x2="1" y2="0.5" gradientUnits="objectBoundingBox">
      <stop offset="0" stop-color="#262262"/>
      <stop offset="1" stop-color="#865ba6"/>
    </linearGradient>
    <linearGradient id="linear-gradient-2" x1="0" y1="0.5" x2="1.001" y2="0.5" xlink:href="#linear-gradient"/>
  </defs>
  <ellipse id="Ellipse_296" data-name="Ellipse 296" class="cls-1" cx="109.001" cy="109.001" rx="109.001" ry="109.001" transform="translate(0 33.908)"/>
  <path id="Path_207" data-name="Path 207" class="cls-2" d="M17.7,281.925S57,275.675,87.656,250.5s79.289,9.162,148.646,25.688C236.3,276.274,146.4,313.778,17.7,281.925Z" transform="translate(-2.544 -34.724)"/>
  <path id="Path_208" data-name="Path 208" class="cls-3" d="M77,285.669s11.388,10.532,43.412,1.113c33.137-9.676-15.241-8.391-15.241-8.391" transform="translate(-11.068 -40.009)"/>
  <g id="Group_446" data-name="Group 446" transform="translate(81.97 22.889)">
    <g id="Group_430" data-name="Group 430" transform="translate(10.485 180.386)">
      <path id="Path_209" data-name="Path 209" class="cls-4" d="M186.191,260.28c-.257,4.024-10.1,6.764-22.091,6.079-6.764-.342-12.844-1.8-16.7-3.6a51.089,51.089,0,0,1-14.556,3.511c-11.9,1.2-21.92-1.028-22.348-4.966-.171-1.969,2.055-4.11,5.823-5.823L113.752,240.5l33.48,4.281,36.391-4.281-2.74,14.728C184.308,256.6,186.277,258.4,186.191,260.28Z" transform="translate(-108.338 -237.846)"/>
      <path id="Path_210" data-name="Path 210" class="cls-5" d="M125.636,268.225c-11.559,0-17.211-3.511-17.639-7.278-.171-1.884.685-4.624,5.566-7.278l-2.74-16.269,36.048,4.624,38.96-4.624-2.911,15.926c4.281,2.226,5.138,4.709,4.966,6.508-.086,2.055-1.627,4.966-8.22,6.764a52.052,52.052,0,0,1-16.1,1.37,51.636,51.636,0,0,1-16.611-3.425,54.967,54.967,0,0,1-14.3,3.254A51.364,51.364,0,0,1,125.636,268.225Zm-9.59-25.773,2.312,13.786-1.541.685c-3.853,1.713-4.624,3.254-4.624,3.6.171,1.541,7.193,4.453,20.036,3.083a47.036,47.036,0,0,0,13.957-3.339l.856-.428.856.428c3.768,1.8,9.59,3.083,15.841,3.425a46.014,46.014,0,0,0,14.728-1.2c4.024-1.113,5.052-2.483,5.052-2.826h0c0-.342-.685-1.627-4.024-3.083l-1.541-.685,2.483-13.529L146.7,246.391Z" transform="translate(-107.977 -237.4)"/>
    </g>
    <path id="Path_211" data-name="Path 211" class="cls-6" d="M115.238,141.788S115.5,184,150.345,184.6c23.2.342,38.446-50.005,38.446-50.005l-11.046-32.2-7.706,7.449L110.7,111.305Z" transform="translate(-97.883 -37.609)"/>
    <path id="Path_212" data-name="Path 212" class="cls-2" d="M114.3,123.6s28,37.675,53.345,16.269l3.682-2.826s.685-10.789-1.884-18.238" transform="translate(-98.4 -39.966)"/>
    <path id="Path_213" data-name="Path 213" class="cls-4" d="M188.889,154.847s-.514-8.391-10.189-10.1c0,0,3.254-20.636,0-28.256,0,0,7.706-13.272,8.049-13.186s3.6,5.138,3.6,5.138l7.706,25.859-1.2,11.217-7.621,9.333" transform="translate(-107.657 -37.738)"/>
    <g id="Group_431" data-name="Group 431" transform="translate(49.379 72.241)">
      <path id="Path_214" data-name="Path 214" class="cls-4" d="M187.222,111.1c2.826,5.823,2.826,23.718.6,29.8-2.654,7.364-8.22,10.189-13.015,16.183-6.85,8.391-6.679,29.626-21.406,28.856,10.018-1.456,20.122-1.713,30.055-4.281a22.509,22.509,0,0,0,8.306-3.6c4.538-3.511,6.251-9.676,6.336-15.5a122.074,122.074,0,0,0-1.8-20.122c-1.027-7.449-3.768-26.03-9.076-31.339" transform="translate(-153.4 -111.1)"/>
    </g>
    <path id="Path_215" data-name="Path 215" class="cls-4" d="M116.212,158.4s7.193,30.568,30.568,34.25l-9.419,2.312-20.293-2.312L113.9,159.256Z" transform="translate(-98.343 -45.658)"/>
    <path id="Path_216" data-name="Path 216" class="cls-7" d="M115.5,238.985c46.666,11.131,69.442-4.281,69.442-4.281,8.134-25.688,7.621-51.8,7.621-51.8-28.685,20.55-72.61,11.559-72.61,11.559Z" transform="translate(-98.573 -49.18)"/>
    <path id="Path_217" data-name="Path 217" class="cls-3" d="M184.155,148.967c.685-12.159-3.6-26.458-7.878-32.795-3.168,6.764-9.162,14.984-20.122,17.211-19.437,3.853-42.556-13.529-42.556-13.529l60.623-12.073,3.083-4.281,4.709,6.85,6.593,28.428Z" transform="translate(-98.3 -37.767)"/>
    <g id="Group_438" data-name="Group 438" transform="translate(16.927 133.72)">
      <g id="Group_437" data-name="Group 437" class="cls-8">
        <g id="Group_432" data-name="Group 432" transform="translate(41.528 35.094)">
          <path id="Path_218" data-name="Path 218" class="cls-9" d="M187.507,234.714s-2.483,3.511-5.48,3.6a2.465,2.465,0,0,0-1.541.342.315.315,0,0,0-.086.257c0,.171.086.257.257.428a2.845,2.845,0,0,0,1.713.428h0c1.627-.685,4.453-1.627,4.8-1.37h0c0,.086-.086.342-1.2,1.027-.086,0-.514.171-.514.428,0,.171.257.342.771.6a2.655,2.655,0,0,1,.171.6c0,.171-.086.342-.171.342-.171.086-.6.171-1.541-.257-.342-.086-2.055-.514-2.312-.257-.086,0-.086.086-.086.171h0c0,.171.171.428,1.627,1.113.086.086,2.74,2.055,4.367,1.969a4.626,4.626,0,0,0,3-1.113,2.525,2.525,0,0,0,.685-2.483c.342-.171,2.141-1.027,2.055-2.312,0-.685-.685-1.37-1.884-2.055a3.1,3.1,0,0,0-1.456-2.483c-.771-.257-1.884.086-3.168,1.028Z" transform="translate(-166.357 -225.282)"/>
          <path id="Path_219" data-name="Path 219" class="cls-9" d="M179.482,232.8a10.876,10.876,0,0,1-.514,3.425,1.742,1.742,0,0,0-.086.428c0,.171.086.257.171.257.171,0,.342,0,1.027-.685a3,3,0,0,0,.685-2.312,8.911,8.911,0,0,0-.428-1.884.731.731,0,0,1,.6,0,.381.381,0,0,1,.171.514v.428a.825.825,0,0,0,.342.771,1.078,1.078,0,0,0,1.027,0c.342-.086.428-.086.428,0h0a2.815,2.815,0,0,1-.257.514c-.086.171-.171.257-.257.428a2.517,2.517,0,0,1-.685.685c-.6.514-.942.856-.856,1.027h0c0,.086,0,.086.086.171s.342.086.685,0a4.913,4.913,0,0,0,2.055-1.113,10.163,10.163,0,0,0,3.083-5.48v-.257a3.654,3.654,0,0,0-2.312-3.339v-.514c0-.685-.342-1.884-2.141-1.969a2.7,2.7,0,0,0-3,1.8h-1.284A2.235,2.235,0,0,0,177,227.665a2.49,2.49,0,0,0,1.2,1.884A5.083,5.083,0,0,1,179.482,232.8Z" transform="translate(-165.868 -223.885)"/>
          <path id="Path_220" data-name="Path 220" class="cls-9" d="M192.771,245.247h0c-.257.771-.6,1.541-.771,1.541,0,0-.171,0-.257-.6-.171-.6-.342-.942-.6-.942-.342,0-.6.6-.685.771a1.036,1.036,0,0,1-.771.514c-.342-.086-.514-.771-.6-1.028v-.086H189a1,1,0,0,0-1.028.342,1.034,1.034,0,0,1-.685.428c-2.141-.514-6.936-4.024-7.021-4.11-1.456-.771-1.8-.771-1.884-.685-.086,0-.086.086-.086.171,0,.257.342.685.685,1.113a1.249,1.249,0,0,1,.428.685c.257.685,5.138,2.826,6.165,3a4.818,4.818,0,0,1,2.141,1.969l.171.257v-.257c0-.342.086-.514.257-.6a.382.382,0,0,1,.428,0c.171.342.685,1.2,1.027,1.113.171,0,.171-.257.171-.514a1.107,1.107,0,0,1,.171-.685c.171-.086.342.086.428.171.171.257.514.856.856.771.171,0,.171-.257.171-.342.086-.514.428-.685.6-.685.086,0,.086,0,.086.086v.086c0,.342.514,1.284.856,1.284.171,0,.257-.171.342-.514a1.072,1.072,0,0,1,.428-.771.471.471,0,0,1,.428.257s.514.771.771.685c.086,0,.171-.086.171-.257s.086-.428.6-1.2a1.979,1.979,0,0,0,.685-.942l-.171-.086-.685.856h-.086c-.086,0-.171-.171-.257-.6-.257-1.284-.514-1.37-.6-1.37s-.171,0-.171.086h0a3.67,3.67,0,0,1-.342,1.456s-.086,0-.257-.514c-.257-.771-.514-1.2-.856-1.284C192.942,245.076,192.771,245.161,192.771,245.247Z" transform="translate(-166.056 -226.397)"/>
          <path id="Path_221" data-name="Path 221" class="cls-9" d="M182.137,256.046a5.125,5.125,0,0,0,2.312,0c.171-.086.171-.257.171-.428v-.086c-.086-1.028,2.226-4.2,2.226-4.2h0c-.771-4.281-6.251-5.052-6.336-5.052h0c-.086.086-.171.171-.171.257,0,.342.514.771.6.771l.171.086v-.171h0c.086,0,.257.257.856,1.37.428.771.514,1.284.257,1.456a.26.26,0,0,1-.342,0c-.086-.257-.257-.942-.6-1.027-.257,0-.428.257-.685.771-.257.685-.428.685-.428.685-.086,0-.257-.514-.257-1.028v-1.713c-.342-2.141-.514-2.141-.6-2.141s-.171.086-.171.6c0,1.113-.942,3.6-1.713,5.566-.514,1.284-.856,2.4-1.027,2.911v.342h0a1.543,1.543,0,0,0,.942,1.284,2.483,2.483,0,0,0,2.055.086A4.312,4.312,0,0,1,182.137,256.046Z" transform="translate(-165.782 -227.007)"/>
          <path id="Path_222" data-name="Path 222" class="cls-9" d="M176.673,244.081a1.243,1.243,0,0,0-.086-.514h0c-.6-.685-.856-.856-1.028-.771s-.171.428-.171,1.284c0,.342.086.771.086,1.284s-.086.856-.342,1.028c-.428.257-1.113,0-1.627-.171-.428-.171-.685-.257-.771-.086a5.016,5.016,0,0,1-.771.942c-.771.428-1.028.342-1.113.342v-.086h0c0-.342.771-1.2,1.113-1.541l.086-.086h-.171c-1.541-.171-1.541-.342-1.541-.342,0-.086.428-.257.942-.428h0c.086,0,.428-.086,1.8-.342.771-.171,1.113-.342,1.113-.6,0-.428-1.028-.771-1.113-.771l-2.654-.171c-3-.086-4.966.771-5.823,1.541a1.465,1.465,0,0,0-.6,1.113h0c0,.342.257.6.6.856.514.342.685.514.685.685,0,.342-.685.514-.942.514h-.086v.428h0c.171,2.826,1.8,2.826,1.884,2.826h0s1.027-.942,1.884-.771a1.3,1.3,0,0,1,.856.685,2.179,2.179,0,0,0,1.028.942,3.617,3.617,0,0,0,2.312-.342C176.416,248.534,176.673,245.365,176.673,244.081Z" transform="translate(-164 -226.601)"/>
          <path id="Path_223" data-name="Path 223" class="cls-9" d="M174.256,239.717c.086-.086,1.2-.856,1.2-1.37,0-.086-.086-.171-.171-.257-.257-.171-.856-.171-1.884.086-1.541.342-1.713.257-1.713.171a4.245,4.245,0,0,1,1.284-.856.59.59,0,0,0,.257-.428c0-.342-.6-.514-1.8-.6-1.028-.086-1.113-.257-1.113-.257,0-.086.171-.171.685-.428a3.361,3.361,0,0,1,1.2-.257h.257l-.171-.086c-.685-.514-1.8-1.37-1.8-1.627h0c.086,0,.342-.086,1.969.514.086,0,.685.342.942.171.171-.086.257-.342.171-.771-.086-.171,0-.342.086-.342.086-.086.257,0,.514.086a2.26,2.26,0,0,1,1.284,1.8v.171h0c0,.771.342,1.37.685,1.37s.6-.6.685-1.627v-.086a7.606,7.606,0,0,0-.942-3.254,4.991,4.991,0,0,0-4.709-2.74,4.229,4.229,0,0,0-2.74.771,5.034,5.034,0,0,1-2.055,1.284l-.171.086c-.771.257-1.284.6-1.113,2.483v.171c.086,1.2.257,4.453,2.654,5.908a9.415,9.415,0,0,0,6.508-.086Z" transform="translate(-164.153 -224.635)"/>
        </g>
        <g id="Group_433" data-name="Group 433" transform="translate(-0.733 7.402)">
          <path id="Path_224" data-name="Path 224" class="cls-9" d="M134.434,217.649s-2.74-3.339-1.969-6.251a2.707,2.707,0,0,0,.086-1.627c-.086-.086-.086-.171-.171-.171a.553.553,0,0,0-.428.171,2.306,2.306,0,0,0-.856,1.541h0c.171,1.8.342,4.709.086,4.966h0c-.086,0-.257-.171-.685-1.37,0-.086,0-.514-.257-.6-.171,0-.428.171-.771.6a1.78,1.78,0,0,1-.685,0c-.171,0-.257-.086-.342-.257s0-.6.685-1.456c.171-.342,1.028-1.8.856-2.226a.084.084,0,0,0-.086-.086h0c-.171,0-.428.086-1.541,1.284-.086.086-2.654,2.055-3.083,3.6a4.712,4.712,0,0,0,.257,3.168,2.7,2.7,0,0,0,2.226,1.37c.086.428.428,2.312,1.713,2.654.685.171,1.541-.257,2.483-1.2a2.959,2.959,0,0,0,2.74-.771,4.275,4.275,0,0,0-.257-3.339Z" transform="translate(-116.147 -194.14)"/>
          <path id="Path_225" data-name="Path 225" class="cls-9" d="M138.152,210.441a10.563,10.563,0,0,1-3.168-1.37,1.053,1.053,0,0,0-.428-.171c-.171,0-.257,0-.257.086-.086.086-.086.342.342,1.2a2.891,2.891,0,0,0,2.055,1.284,4.91,4.91,0,0,0,1.884.086.815.815,0,0,1-.171.6.5.5,0,0,1-.6,0,.931.931,0,0,0-.428-.086c-.428-.086-.685-.086-.856.086a1.448,1.448,0,0,0-.342,1.027c0,.342-.086.428-.086.428h0c-.086,0-.257-.257-.428-.428l-.342-.342a5.448,5.448,0,0,1-.514-.856c-.342-.685-.514-1.113-.771-1.113h-.171c-.086.086-.171.257-.171.685a5.174,5.174,0,0,0,.514,2.312,9.732,9.732,0,0,0,4.453,4.453.663.663,0,0,1,.257.086,3.39,3.39,0,0,0,3.768-1.37,3.367,3.367,0,0,1,.514.171,1.974,1.974,0,0,0,2.483-1.456,2.668,2.668,0,0,0-.942-3.339l.342-1.284h0a2.5,2.5,0,0,0-1.627-1.541,2.688,2.688,0,0,0-2.141.6A4.216,4.216,0,0,1,138.152,210.441Z" transform="translate(-117.382 -194.04)"/>
          <path id="Path_226" data-name="Path 226" class="cls-9" d="M123,220.112h0c-.685-.428-1.37-.942-1.284-1.2,0,0,.086-.171.685-.086q.9,0,1.028-.257c.086-.342-.428-.771-.6-.856-.257-.342-.428-.685-.257-.856.171-.342.856-.342,1.113-.342h.086v-.086s.343-.685,0-1.113a1.268,1.268,0,0,1-.257-.771c1.113-1.969,5.737-5.651,5.823-5.651,1.113-1.2,1.2-1.456,1.2-1.627,0-.086-.086-.086-.171-.171-.257-.086-.771.171-1.284.342a1.972,1.972,0,0,1-.771.257c-.685.086-4.11,4.2-4.624,5.138a4.833,4.833,0,0,1-2.483,1.541l-.257.086.257.086a1.317,1.317,0,0,1,.514.342c.086.171-.086.342-.086.428-.428.086-1.37.342-1.37.685,0,.171.171.257.428.342a1.2,1.2,0,0,1,.6.342.728.728,0,0,1-.257.428c-.343.086-.942.257-1.028.6a.273.273,0,0,0,.257.257c.428.171.6.6.514.771,0,.086-.086.086-.086,0H120.6a2,2,0,0,0-1.541.514c-.086.171.086.342.342.428.428.171.6.428.6.6a.368.368,0,0,1-.343.342s-.856.257-.856.6c0,.086.086.171.171.257a2.843,2.843,0,0,1,.942.942c.086.428.685.856.685.942l.086-.086-.685-.856v-.086c.086-.086.171-.171.685-.086,1.37.086,1.456-.171,1.541-.257v-.171h0c-.685-.257-1.284-.6-1.284-.771,0,0,.086-.086.514-.086.856,0,1.37-.171,1.456-.428A.448.448,0,0,0,123,220.112Z" transform="translate(-115.241 -193.778)"/>
          <path id="Path_227" data-name="Path 227" class="cls-9" d="M115.291,206.505c0,.086-.856,1.541-.6,2.226a.4.4,0,0,0,.428.257h.086c1.028.257,3.425,3.254,3.511,3.339h0c4.367.342,6.593-4.624,6.593-4.709h0q0-.128-.257-.257c-.343-.086-.856.342-.942.342l-.171.086.171.086h0c-.086.086-.257.257-1.541.428-.856.171-1.37.086-1.456-.171a.515.515,0,0,1,.086-.342c.257,0,1.028.086,1.113-.257.086-.257-.086-.514-.6-.856-.6-.428-.514-.6-.514-.6a2.249,2.249,0,0,1,1.113,0l1.713.428c2.226.257,2.226.086,2.226,0s-.086-.171-.6-.342a24.206,24.206,0,0,1-4.966-3.168c-1.113-.771-2.055-1.456-2.483-1.713a.315.315,0,0,0-.257-.086h0a1.512,1.512,0,0,0-1.456.6,2.268,2.268,0,0,0-.6,1.969A4.383,4.383,0,0,1,115.291,206.505Z" transform="translate(-114.644 -192.929)"/>
          <path id="Path_228" data-name="Path 228" class="cls-9" d="M128.577,204.693a2.4,2.4,0,0,0,.514.086h0c.856-.428,1.028-.6,1.028-.771,0-.257-.428-.257-1.2-.428-.342-.086-.771-.171-1.2-.257-.514-.171-.856-.342-.942-.6-.171-.428.257-1.113.6-1.541.257-.342.428-.6.257-.771a4.1,4.1,0,0,1-.685-.942,2.653,2.653,0,0,1-.086-1.113h.086c.342.086.942,1.113,1.2,1.456l.086.171.086-.171c.514-1.456.771-1.456.771-1.456.086,0,.171.514.171,1.028h0a15.892,15.892,0,0,1-.171,1.8c-.086.771,0,1.2.257,1.2.428.086.942-.771,1.028-.856l.856-2.483a9.014,9.014,0,0,0,.086-6.079,1.49,1.49,0,0,0-.942-.856h0a1.019,1.019,0,0,0-.942.342c-.428.428-.685.514-.771.428-.342-.086-.342-.771-.257-1.027v-.086h-.086c-.086,0-.171-.086-.343-.086h0c-2.74-.6-3.254,1.027-3.254,1.027h0a3.152,3.152,0,0,1,.257,2.055,1.1,1.1,0,0,1-.942.6,1.665,1.665,0,0,0-1.2.771,3.4,3.4,0,0,0-.257,2.312C124.382,203.323,127.379,204.436,128.577,204.693Z" transform="translate(-115.771 -191.545)"/>
          <path id="Path_229" data-name="Path 229" class="cls-9" d="M133.1,203.651c.086.171.514,1.37,1.027,1.541a.315.315,0,0,0,.257-.086c.257-.171.342-.771.428-1.8.086-1.541.257-1.713.257-1.713a3.955,3.955,0,0,1,.514,1.456s.086.342.342.342c.342.086.685-.428,1.113-1.541.342-1.027.514-.942.6-.942s.171.171.171.771a4.9,4.9,0,0,1-.086,1.2l-.086.257.171-.171c.685-.514,1.8-1.37,2.055-1.284h0c0,.086,0,.342-1.027,1.713-.086.086-.514.514-.428.942.086.257.257.342.685.342.171,0,.342.086.342.171a1.447,1.447,0,0,1-.171.428,2.171,2.171,0,0,1-2.055.771h-.171c-.771-.171-1.37,0-1.541.342-.086.342.428.771,1.37,1.028h.086a8.681,8.681,0,0,0,3.425,0,5.183,5.183,0,0,0,3.939-3.768c0-.086.6-1.8-.086-2.826a5.732,5.732,0,0,1-.685-2.312v-.171c-.086-.771-.257-1.37-2.141-1.8h-.171c-1.2-.257-4.367-.942-6.422.942-1.2,1.284-1.8,3.339-1.713,6.165Z" transform="translate(-117.295 -192.216)"/>
        </g>
        <g id="Group_434" data-name="Group 434" transform="translate(29.991 3.511)">
          <path id="Path_230" data-name="Path 230" class="cls-9" d="M159.6,199.1s4.024,1.541,4.8,4.538c.257.771.428,1.284.685,1.456a.315.315,0,0,0,.257.086c.086,0,.257-.171.342-.342a2.6,2.6,0,0,0,0-1.8h0c-1.028-1.456-2.569-3.939-2.483-4.367h0c.086,0,.342,0,1.284.856.086.086.257.428.514.428.171-.086.342-.342.342-.856a1.837,1.837,0,0,1,.6-.342.377.377,0,0,1,.428.086c.171.171.257.514.086,1.541a6.859,6.859,0,0,0,.257,2.312c.086,0,.086.086.171,0h0c.171,0,.342-.257.771-1.8.086-.086,1.37-3.083.942-4.709a4.668,4.668,0,0,0-1.713-2.654,2.645,2.645,0,0,0-2.654-.086c-.257-.342-1.541-1.8-2.74-1.456-.685.171-1.2.942-1.627,2.312-.257.086-1.884.685-2.055,1.969a4.672,4.672,0,0,0,1.8,2.826Z" transform="translate(-151.571 -187.71)"/>
          <path id="Path_231" data-name="Path 231" class="cls-9" d="M159.837,207.808a8.837,8.837,0,0,1,3.425-.257h.428c.171,0,.171-.086.257-.257,0-.171-.086-.342-.856-.856a3.033,3.033,0,0,0-2.483-.171,8.712,8.712,0,0,0-1.713.771,1.587,1.587,0,0,1-.171-.6c.086-.171.171-.257.514-.342a3.709,3.709,0,0,0,.428-.086c.428-.086.6-.257.685-.514a1.613,1.613,0,0,0-.171-1.028c-.171-.257-.171-.342-.171-.428h0a3.491,3.491,0,0,1,.6.171c.171.086.342.086.428.171a2.432,2.432,0,0,1,.856.514c.6.428,1.028.685,1.2.6h0a.084.084,0,0,0,.086-.086c.086-.086,0-.342-.171-.685a5.617,5.617,0,0,0-1.541-1.713,9.742,9.742,0,0,0-5.994-1.713.663.663,0,0,0-.257.086,3.485,3.485,0,0,0-2.654,3.083,1.506,1.506,0,0,0-.514.086,1.92,1.92,0,0,0-1.456,2.483,2.677,2.677,0,0,0,2.483,2.483l.342,1.284h0a2.263,2.263,0,0,0,3.768-.942A4.187,4.187,0,0,1,159.837,207.808Z" transform="translate(-150.525 -189.056)"/>
          <path id="Path_232" data-name="Path 232" class="cls-9" d="M169.016,190.768h0c.771.086,1.627.171,1.713.428,0,0,0,.171-.514.428q-.9.385-.771.771c.086.342.771.514.942.514.428.171.685.428.685.6,0,.342-.6.685-.856.771h-.086v.086a1.118,1.118,0,0,0,.514.942c.428.171.6.428.6.514,0,2.226-2.312,7.706-2.4,7.792-.428,1.541-.342,1.884-.257,2.055a.3.3,0,0,0,.171.086c.257-.086.6-.514.942-.942.257-.257.428-.514.514-.6.6-.428,1.541-5.651,1.541-6.679a5.159,5.159,0,0,1,1.37-2.569l.171-.171-.257.086a.649.649,0,0,1-.6-.086c-.086-.086-.086-.342-.086-.428.342-.257,1.027-.942.856-1.2-.086-.171-.342-.171-.514-.086-.342.086-.6.086-.685-.086-.086-.086,0-.342,0-.428.257-.257.685-.685.6-.942a.212.212,0,0,0-.342-.086.779.779,0,0,1-.856-.428c0-.086,0-.086.086-.086h.086c.342-.086,1.113-.771,1.027-1.2,0-.171-.257-.257-.514-.257-.428,0-.771-.086-.856-.257a.412.412,0,0,1,.171-.514s.685-.685.514-.942a.315.315,0,0,0-.257-.086,3.172,3.172,0,0,1-1.284-.342,2.862,2.862,0,0,0-1.027-.428v.171a9.075,9.075,0,0,0,1.027.428v.086c0,.086-.086.257-.514.428-1.2.6-1.2.856-1.2.942a.3.3,0,0,0,.086.171h0a3.518,3.518,0,0,1,1.456,0s0,.086-.428.342c-.685.428-1.113.771-1.027,1.113A.375.375,0,0,1,169.016,190.768Z" transform="translate(-153.112 -187)"/>
          <path id="Path_233" data-name="Path 233" class="cls-9" d="M182,199.911c0-.086,0-1.8-.514-2.226a.566.566,0,0,0-.514-.086h-.086c-1.027.257-4.624-1.2-4.624-1.2h0c-4.024,1.8-3.511,7.278-3.511,7.278h0c.086.086.171.086.342.086.342-.086.6-.685.685-.771l.086-.171H173.7c0-.086.171-.342,1.113-1.113.685-.6,1.2-.771,1.37-.6a.515.515,0,0,1,.086.342c-.257.086-.942.428-.856.771,0,.257.342.342.942.514.685.086.771.257.771.257a2.021,2.021,0,0,1-.942.514l-1.713.428c-2.055.856-1.969,1.027-1.969,1.113s.171.086.685,0c1.113-.257,3.768.086,5.823.342,1.37.171,2.483.342,3,.342a.315.315,0,0,0,.257-.086h0a1.64,1.64,0,0,0,1.027-1.2,2.413,2.413,0,0,0-.428-2.055A3.519,3.519,0,0,1,182,199.911Z" transform="translate(-153.684 -188.351)"/>
          <path id="Path_234" data-name="Path 234" class="cls-9" d="M171.223,207.763c-.342.086-.428.171-.514.171h0c-.514.771-.6,1.027-.514,1.2s.514.086,1.284-.171c.342-.086.771-.257,1.2-.342a1.194,1.194,0,0,1,1.113.086c.342.342.257,1.113.171,1.627-.086.428-.086.771.086.771a4.581,4.581,0,0,1,1.113.514c.6.685.6.942.6.942h-.086c-.342.086-1.37-.514-1.8-.685l-.171-.086v.171c.257,1.541.086,1.627,0,1.627s-.342-.342-.6-.856h0c-.086-.086-.171-.428-.771-1.627-.342-.685-.6-1.027-.856-.942-.342.086-.514,1.113-.514,1.284l.428,2.654c.6,2.911,1.884,4.709,2.826,5.309a1.39,1.39,0,0,0,1.2.342h0c.342-.086.514-.342.685-.771.171-.6.342-.771.514-.771.342-.086.685.514.771.771v.086h.086c.086,0,.171-.086.342-.086h0c2.74-.771,2.4-2.4,2.312-2.483h0a2.935,2.935,0,0,1-1.2-1.713,1.183,1.183,0,0,1,.514-.942,1.929,1.929,0,0,0,.685-1.2,3.327,3.327,0,0,0-.856-2.141C175.59,206.992,172.421,207.42,171.223,207.763Z" transform="translate(-153.349 -189.952)"/>
          <path id="Path_235" data-name="Path 235" class="cls-9" d="M167.637,211.013c-.086-.086-1.113-.942-1.627-.856a.184.184,0,0,0-.171.171,3.49,3.49,0,0,0,.514,1.8c.685,1.37.6,1.627.6,1.627a4.485,4.485,0,0,1-1.113-1.027s-.257-.257-.428-.171c-.342.086-.428.685-.257,1.884.171,1.027,0,1.113,0,1.113-.086,0-.257-.086-.514-.514a3.245,3.245,0,0,1-.514-1.113l-.086-.257-.086.171a7.475,7.475,0,0,1-1.2,2.141h0c-.086-.086-.171-.342.086-2.055,0-.086.171-.685-.086-1.027q-.257-.257-.771,0c-.171.086-.342.086-.342,0q-.128-.128,0-.514a2.222,2.222,0,0,1,1.456-1.713h.086c.771-.257,1.284-.685,1.113-1.028-.086-.342-.685-.428-1.713-.257H162.5a8,8,0,0,0-3,1.627,5.123,5.123,0,0,0-1.627,5.223,4.206,4.206,0,0,0,1.37,2.483,5.384,5.384,0,0,1,1.713,1.713l.086.086c.428.685.942,1.028,2.74.514l.171-.086c1.2-.342,4.281-1.284,5.138-3.939.428-1.456,0-3.6-1.456-5.994Z" transform="translate(-151.561 -190.205)"/>
        </g>
        <g id="Group_435" data-name="Group 435" transform="translate(61.944 8.477)">
          <path id="Path_236" data-name="Path 236" class="cls-9" d="M194.649,207.113s4.281.428,5.823,3c.428.685.771,1.113,1.027,1.2h.257a.654.654,0,0,0,.171-.428,2.463,2.463,0,0,0-.428-1.712h0c-1.37-1.113-3.6-3.083-3.6-3.511h0c.086,0,.342-.086,1.456.514.086.086.428.342.6.257s.171-.428.086-.942c.086-.086.257-.342.428-.428a.772.772,0,0,1,.428-.086c.171.086.428.428.514,1.456.086.342.6,1.969.942,2.141h.171c.086-.086.257-.342.171-1.969,0-.171.428-3.339-.428-4.8a4.511,4.511,0,0,0-2.4-2.055,2.692,2.692,0,0,0-2.569.6c-.342-.257-1.969-1.37-3.083-.685-.6.342-.942,1.284-.856,2.654-.257.171-1.627,1.2-1.37,2.483a4.56,4.56,0,0,0,2.654,2.312Z" transform="translate(-188.435 -193.755)"/>
          <path id="Path_237" data-name="Path 237" class="cls-9" d="M197.225,215.383a9.074,9.074,0,0,1,3.168-1.2,4.035,4.035,0,0,0,.428-.171c.086-.086.171-.171.171-.257,0-.171-.171-.342-1.113-.514a3.183,3.183,0,0,0-2.4.514,5.762,5.762,0,0,0-1.456,1.284c-.086-.086-.342-.342-.342-.514s.086-.342.428-.428c.171-.086.257-.171.428-.171.342-.257.514-.428.514-.685a1.488,1.488,0,0,0-.514-.942c-.257-.257-.257-.342-.257-.342h0c.086-.086.342,0,.6,0h.428a3.11,3.11,0,0,1,.942.257,2.481,2.481,0,0,0,1.37.257h0c.086,0,.086-.086.086-.171a1.078,1.078,0,0,0-.342-.6,4.682,4.682,0,0,0-1.969-1.284,9.932,9.932,0,0,0-6.251,0,.265.265,0,0,0-.171.086,3.44,3.44,0,0,0-1.713,3.682.782.782,0,0,0-.428.257,1.963,1.963,0,0,0-.685,2.826,2.694,2.694,0,0,0,3.083,1.712l.685,1.113h0a2.43,2.43,0,0,0,2.226-.086,2.656,2.656,0,0,0,1.113-1.969A4.15,4.15,0,0,1,197.225,215.383Z" transform="translate(-187.843 -195.261)"/>
          <path id="Path_238" data-name="Path 238" class="cls-9" d="M201.27,196.653h0c.771-.171,1.627-.257,1.713-.086,0,0,.086.171-.342.514-.514.428-.685.771-.514.942.171.342.856.257,1.027.257.428.086.771.171.856.428.086.342-.342.856-.6,1.028h0v.086s.257.685.771.771a1.07,1.07,0,0,1,.771.342c.6,2.141-.086,8.049-.086,8.134,0,1.627.171,1.884.342,1.969.086,0,.086.086.171,0a6.442,6.442,0,0,0,.685-1.2c.171-.342.257-.6.342-.771.428-.514-.086-5.908-.428-6.85-.342-1.027.6-2.826.6-2.826l.171-.257-.257.171c-.257.171-.514.171-.6.086-.171-.086-.171-.257-.257-.342.257-.342.685-1.2.514-1.456-.086-.171-.342,0-.514.086-.342.171-.514.257-.685.171-.086-.086-.086-.342-.086-.428.171-.257.514-.856.257-1.113-.086-.171-.342-.086-.342,0a.813.813,0,0,1-.942-.171v-.086h.086c.257-.171.856-1.027.685-1.456-.086-.171-.257-.171-.6-.086-.428.171-.771.171-.856,0a.546.546,0,0,1,0-.514s.428-.771.257-1.027c-.086-.086-.171-.086-.342,0-.086.086-.428.086-1.284,0a3.42,3.42,0,0,0-1.113-.171v.171s.514.086,1.113.171a.084.084,0,0,1,.086.086c0,.086,0,.257-.428.514-1.027.856-.942,1.113-.942,1.2s.086.086.171.171h0a2.858,2.858,0,0,1,1.456-.428s0,.086-.342.428c-.6.6-.856,1.113-.685,1.37A.168.168,0,0,0,201.27,196.653Z" transform="translate(-189.662 -192.8)"/>
          <path id="Path_239" data-name="Path 239" class="cls-9" d="M216.382,201.66c0-.086-.514-1.713-1.113-1.969a.4.4,0,0,0-.514.086h-.086c-.856.514-4.8.086-4.8.086h0c-3.339,2.826-1.37,7.963-1.284,7.963h0a.26.26,0,0,0,.342,0,1.8,1.8,0,0,0,.428-.942v-.171l-.171.086h0c0-.086.086-.342.771-1.37.514-.771.856-1.027,1.113-.942.086.086.171.171.171.257-.171.171-.771.685-.6,1.027.086.171.428.257,1.028.171.685-.086.771,0,.771,0,.086.086-.342.428-.771.771l-1.541.856c-1.713,1.37-1.627,1.541-1.541,1.627s.171.086.6-.171a27.653,27.653,0,0,1,5.737-1.284,11.908,11.908,0,0,0,3-.6c.086,0,.171-.086.257-.171h0a1.4,1.4,0,0,0,.6-1.456,2.387,2.387,0,0,0-.942-1.884C216.81,203.287,216.382,201.746,216.382,201.66Z" transform="translate(-190.731 -193.782)"/>
          <path id="Path_240" data-name="Path 240" class="cls-9" d="M207.984,212.236a4.451,4.451,0,0,1-.428.257h0c-.257.856-.342,1.113-.171,1.284s.514-.086,1.2-.514c.257-.171.6-.428,1.028-.685a1.117,1.117,0,0,1,1.113-.171c.428.257.514.942.685,1.541.086.428.086.685.342.685.342,0,1.113.171,1.2.171.771.514.856.685.856.771v.086h0a4.979,4.979,0,0,1-1.884-.171h-.171l.086.171c.6,1.37.514,1.541.514,1.541-.086.086-.428-.257-.856-.6h0c-.086-.086-.342-.342-1.2-1.37-.514-.6-.856-.856-1.027-.685-.342.171-.171,1.2-.171,1.37l1.2,2.4a8.848,8.848,0,0,0,4.2,4.367,1.655,1.655,0,0,0,1.284,0h0a1.1,1.1,0,0,0,.428-.942c0-.6.171-.856.257-.856.257-.171.771.342.942.514l.086.086h.086c.086-.086.171-.086.257-.171h0c2.4-1.541,1.627-3,1.541-3.083h0s-1.284-.428-1.627-1.284a1.35,1.35,0,0,1,.171-1.113,1.565,1.565,0,0,0,.257-1.37,4.077,4.077,0,0,0-1.456-1.884C212.009,210.266,209.1,211.551,207.984,212.236Z" transform="translate(-190.639 -195.453)"/>
          <path id="Path_241" data-name="Path 241" class="cls-9" d="M205.655,216.331c-.171-.086-1.37-.6-1.8-.342a.658.658,0,0,0-.171.257,3.134,3.134,0,0,0,.942,1.541c1.028,1.2,1.028,1.37,1.028,1.37-.086.086-.685-.257-1.37-.685,0,0-.342-.171-.514,0-.257.171-.171.771.342,1.884.428.942.342,1.113.257,1.113s-.257,0-.685-.342a8.525,8.525,0,0,1-.856-.942l-.086-.171v.257a6.264,6.264,0,0,1-.514,2.4h0c-.086,0-.257-.257-.514-1.969,0-.086,0-.771-.342-.942-.171-.086-.428,0-.685.257-.171.171-.257.171-.342.171a.654.654,0,0,1-.171-.428,1.961,1.961,0,0,1,.942-1.969l.086-.086h0c.685-.428,1.028-.942.856-1.284s-.771-.257-1.713.257l-.086.086a8.547,8.547,0,0,0-2.4,2.4,5.246,5.246,0,0,0-.086,5.48,4.017,4.017,0,0,0,2.055,1.969,4.175,4.175,0,0,1,2.055,1.113l.086.086c.6.514,1.2.771,2.74-.257l.171-.086c1.027-.685,3.768-2.4,3.853-5.223,0-2.141-1.027-4.024-3.082-5.908Z" transform="translate(-189.166 -196.123)"/>
        </g>
        <g id="Group_436" data-name="Group 436" transform="translate(3.975 38.532)">
          <path id="Path_242" data-name="Path 242" class="cls-9" d="M126.949,242.113s4.281.428,5.823,3c.428.685.771,1.113,1.027,1.2h.257a.654.654,0,0,0,.171-.428,2.463,2.463,0,0,0-.428-1.713h0c-1.37-1.113-3.6-3.083-3.6-3.511h0c.086,0,.342-.086,1.456.514.086.086.428.342.6.257s.171-.428.086-.942c.086-.086.257-.342.428-.428a.772.772,0,0,1,.428-.086c.171.086.428.428.514,1.456.086.342.6,1.969.942,2.141h.171c.086-.086.257-.342.171-1.969,0-.171.428-3.339-.428-4.8a4.511,4.511,0,0,0-2.4-2.055,2.692,2.692,0,0,0-2.569.6c-.342-.257-1.969-1.37-3.083-.685-.6.342-.942,1.284-.856,2.654-.257.171-1.627,1.2-1.37,2.483a4.56,4.56,0,0,0,2.654,2.312Z" transform="translate(-120.735 -228.841)"/>
          <path id="Path_243" data-name="Path 243" class="cls-9" d="M129.525,250.383a9.074,9.074,0,0,1,3.168-1.2,4.031,4.031,0,0,0,.428-.171c.086-.086.171-.171.171-.257,0-.171-.171-.342-1.113-.514a3.183,3.183,0,0,0-2.4.514,5.761,5.761,0,0,0-1.456,1.284c-.086-.086-.342-.342-.342-.514s.086-.342.428-.428c.171-.086.257-.171.428-.171.342-.257.514-.428.514-.685a1.488,1.488,0,0,0-.514-.942c-.257-.257-.257-.342-.257-.342h0c.086-.086.342,0,.6,0h.428a3.11,3.11,0,0,1,.942.257,2.481,2.481,0,0,0,1.37.257h0c.086,0,.086-.086.086-.171a1.078,1.078,0,0,0-.342-.6,4.682,4.682,0,0,0-1.969-1.284,9.932,9.932,0,0,0-6.251,0,.265.265,0,0,0-.171.086,3.44,3.44,0,0,0-1.713,3.682.782.782,0,0,0-.428.257,1.963,1.963,0,0,0-.685,2.826,2.694,2.694,0,0,0,3.083,1.713l.685,1.113h0a2.43,2.43,0,0,0,2.226-.086,2.656,2.656,0,0,0,1.113-1.969A4.15,4.15,0,0,1,129.525,250.383Z" transform="translate(-120.143 -230.347)"/>
          <path id="Path_244" data-name="Path 244" class="cls-9" d="M133.57,231.753h0c.771-.171,1.627-.257,1.713-.086,0,0,.086.171-.342.514-.514.428-.685.771-.514.942.171.342.856.257,1.028.257.428.086.771.171.856.428.086.342-.342.856-.6,1.027h0v.086s.257.685.771.771a1.07,1.07,0,0,1,.771.342c.6,2.141-.086,8.049-.086,8.134,0,1.627.171,1.884.342,1.969.086,0,.086.086.171,0a6.44,6.44,0,0,0,.685-1.2c.171-.342.257-.6.342-.771.428-.514-.086-5.908-.428-6.85-.342-1.027.6-2.826.6-2.826l.171-.257-.257.171c-.257.171-.514.171-.6.086-.171-.086-.171-.257-.257-.342.257-.342.685-1.2.514-1.456-.086-.171-.342,0-.514.086-.342.171-.514.257-.685.171-.086-.086-.086-.342-.086-.428.171-.257.514-.856.257-1.113-.086-.171-.342-.086-.342,0a.813.813,0,0,1-.942-.171v-.086h.086c.257-.171.856-1.027.685-1.456-.086-.171-.257-.171-.6-.086-.428.171-.771.171-.856,0a.546.546,0,0,1,0-.514s.428-.771.257-1.027c-.086-.086-.171-.086-.342,0-.086.086-.428.086-1.284,0a3.421,3.421,0,0,0-1.113-.171v.171s.514.086,1.113.171a.084.084,0,0,1,.086.086c0,.086,0,.257-.428.514-1.028.856-.942,1.113-.942,1.2s.086.086.171.171h0a2.858,2.858,0,0,1,1.456-.428s0,.086-.342.428c-.6.6-.856,1.113-.685,1.37A.184.184,0,0,0,133.57,231.753Z" transform="translate(-121.962 -227.9)"/>
          <path id="Path_245" data-name="Path 245" class="cls-9" d="M148.682,236.76c0-.086-.514-1.712-1.113-1.969a.4.4,0,0,0-.514.086h-.086c-.856.514-4.8.086-4.8.086h0c-3.339,2.826-1.37,7.963-1.284,7.963h0a.26.26,0,0,0,.342,0,1.8,1.8,0,0,0,.428-.942v-.171l-.171.086h0c0-.086.086-.342.771-1.37.514-.771.856-1.028,1.113-.942.086.086.171.171.171.257-.171.171-.771.685-.6,1.028.086.171.428.257,1.027.171.685-.086.771,0,.771,0,.086.086-.342.428-.771.771l-1.541.856c-1.713,1.37-1.627,1.541-1.541,1.627s.171.086.6-.171a27.654,27.654,0,0,1,5.737-1.284,11.908,11.908,0,0,0,3-.6c.086,0,.171-.086.257-.171h0a1.4,1.4,0,0,0,.6-1.456,2.387,2.387,0,0,0-.942-1.884C149.11,238.3,148.682,236.76,148.682,236.76Z" transform="translate(-123.031 -228.882)"/>
          <path id="Path_246" data-name="Path 246" class="cls-9" d="M140.284,247.24a4.448,4.448,0,0,1-.428.257h0c-.257.856-.342,1.113-.171,1.284s.514-.086,1.2-.514c.257-.171.6-.428,1.028-.685a1.117,1.117,0,0,1,1.113-.171c.428.257.514.942.685,1.541.086.428.086.685.342.685.342,0,1.113.171,1.2.171.771.514.856.685.856.771v.086h0a4.979,4.979,0,0,1-1.884-.171h-.171l.086.171c.6,1.37.514,1.541.514,1.541-.086.086-.428-.257-.856-.6h0c-.086-.086-.342-.342-1.2-1.37-.514-.6-.856-.856-1.027-.685-.342.171-.171,1.2-.171,1.37l1.2,2.4a8.848,8.848,0,0,0,4.2,4.367,1.655,1.655,0,0,0,1.284,0h0a1.1,1.1,0,0,0,.428-.942c0-.6.171-.856.257-.856.257-.171.771.342.942.514l.086.086h.086c.086-.086.171-.086.257-.171h0c2.4-1.541,1.627-3,1.541-3.083h0s-1.284-.428-1.627-1.284a1.35,1.35,0,0,1,.171-1.113,1.565,1.565,0,0,0,.257-1.37,4.077,4.077,0,0,0-1.456-1.884C144.309,245.271,141.4,246.641,140.284,247.24Z" transform="translate(-122.939 -230.543)"/>
          <path id="Path_247" data-name="Path 247" class="cls-9" d="M137.955,251.331c-.171-.086-1.37-.6-1.8-.342a.659.659,0,0,0-.171.257,3.134,3.134,0,0,0,.942,1.541c1.027,1.2,1.027,1.37,1.027,1.37-.086.086-.685-.257-1.37-.685,0,0-.342-.171-.514,0-.257.171-.171.771.342,1.884.428.942.342,1.113.257,1.113s-.257,0-.685-.342a8.525,8.525,0,0,1-.856-.942l-.086-.171v.257a6.264,6.264,0,0,1-.514,2.4h0c-.086,0-.257-.257-.514-1.969,0-.086,0-.771-.342-.942-.171-.086-.428,0-.685.257-.171.171-.257.171-.342.171a.654.654,0,0,1-.171-.428,1.961,1.961,0,0,1,.942-1.969l.086-.086h0c.685-.428,1.027-.942.856-1.284s-.771-.257-1.713.257l-.086.086a8.546,8.546,0,0,0-2.4,2.4,5.246,5.246,0,0,0-.086,5.48,4.016,4.016,0,0,0,2.055,1.969,4.175,4.175,0,0,1,2.055,1.113l.086.086c.6.514,1.2.771,2.74-.257l.171-.086c1.028-.685,3.768-2.4,3.853-5.223,0-2.141-1.027-3.939-3.082-5.908Z" transform="translate(-121.466 -231.209)"/>
        </g>
      </g>
    </g>
    <path id="Path_249" data-name="Path 249" class="cls-3" d="M191.853,161.859a2.676,2.676,0,0,1,.171.6c1.113,3.425,5.908,22.691-4.024,69.442l8.134-1.884s10.7-41.1,4.453-80.317" transform="translate(-108.994 -44.408)"/>
    <path id="Path_250" data-name="Path 250" class="cls-5" d="M147.465,244.261a142.238,142.238,0,0,1-32.709-4.11l-1.456-.342,4.8-47.865,1.884.342c.428.086,43.583,8.563,71.326-11.3l2.654-1.884.086,3.254c0,.257.428,26.715-7.706,52.4l-.171.6-.514.342C184.883,236.041,172.382,244.261,147.465,244.261Zm-30.4-7.193c40.843,9.333,62.678-2.055,66.1-4.024,6.165-19.78,7.193-39.816,7.364-47.437-14.728,9.333-32.538,11.645-45.3,11.988a134.894,134.894,0,0,1-24.061-1.627Z" transform="translate(-98.256 -48.634)"/>
    <g id="Group_439" data-name="Group 439">
      <path id="Path_251" data-name="Path 251" class="cls-6" d="M168.866,53.89s2.312-7.449,4.966-11.645c2.74-4.2-5.823-7.535-14.471-8.306,0,0-20.379-11.474-41.015-.086,0,0-9.5.171-13.272,7.107S98.4,64.337,98.4,64.337,92.4,99.786,117.662,110.746s34.85,4.709,34.85,4.709,16.269-8.391,21.15-20.978C173.575,94.648,182.908,73.156,168.866,53.89Z" transform="translate(-96.025 -27.031)"/>
      <path id="Path_252" data-name="Path 252" class="cls-4" d="M139.069,29.7s4.453,6.422,1.284,9.248-11.217,7.278-10.789,16.44,2.911,11.3-3.168,14.728l-1.456.514s-10.7,1.541-11.988,12.244,10.018,29.2,26.886,32.709l-14.984-1.627s-12.5-4.2-16.954-9.847c0,0-8.391-9.076-9.847-20.55s3.425-34.336,3.425-34.336l4.367-10.275,6.508-3.768L119.2,33.3l11.559-3.511Z" transform="translate(-96.026 -27.158)"/>
      <path id="Path_253" data-name="Path 253" class="cls-10" d="M125.1,74.9s6.764.086,7.792-3.339l-2.911-.257S129.981,73.526,125.1,74.9Z" transform="translate(-99.953 -33.138)"/>
      <path id="Path_254" data-name="Path 254" d="M131.325,62.7c.428-.086.942.343,1.2.6,1.2,1.2,1.284,3,1.284,4.8,0,1.456-.514,3.168-2.226,3.511-2.4.342-2.483-1.028-2.483-3.339C129.013,65.952,129.441,62.869,131.325,62.7Z" transform="translate(-100.526 -31.9)"/>
      <path id="Path_255" data-name="Path 255" class="cls-11" d="M168.057,45a15.188,15.188,0,0,0-6.165,13.871c.685,9.59,2.74,18.581.428,23.2,0,0,5.309-.343,6.508-9.847,0,0,9.847,5.908,1.37,37.59l1.284.771s9.076-6.336,9.847-10.189l3.6-9.59.856-10.7-1.2-10.275-3.939-8.991-4.2-8.049Z" transform="translate(-105.234 -29.358)"/>
      <path id="Path_256" data-name="Path 256" class="cls-12" d="M167.2,71.5h0a3.488,3.488,0,0,0,2.312,2.654,21.192,21.192,0,0,1,4.281,2.74s-1.456-3.254-3.254-4.538Z" transform="translate(-106.004 -33.167)"/>
      <path id="Path_257" data-name="Path 257" d="M169.124,62.9s1.284-.428,2.055,2.312c.685,2.74.342,7.278-2.141,6.422s-2.141-4.11-2.141-4.11S166.726,63.067,169.124,62.9Z" transform="translate(-105.958 -31.927)"/>
      <path id="Path_258" data-name="Path 258" class="cls-1" d="M169.781,65.327s-.171.942.171.942c.428,0,.771-.428.771-1.284a1.307,1.307,0,0,0-.856-1.284C169.781,63.786,169.524,63.7,169.781,65.327Z" transform="translate(-106.359 -32.046)"/>
      <path id="Path_259" data-name="Path 259" class="cls-4" d="M163.968,33.8s-.942,4.281,1.37,6.764,9.676,8.563,11.474,14.385l2.483-3,4.966-10.874-3-3.6-11.388-2.654Z" transform="translate(-105.512 -27.748)"/>
      <path id="Path_260" data-name="Path 260" class="cls-10" d="M105.964,49.985l.257-.171.6-.514,7.792,5.994s-11.9,6.508-13.786,33.223L99.2,87.489l.514-22.263L102.8,53.5" transform="translate(-96.23 -29.976)"/>
      <path id="Path_261" data-name="Path 261" class="cls-5" d="M105.354,48.9l1.8,1.2s-2.911,3.254-5.052,10.446l.771-11.559Z" transform="translate(-96.647 -29.918)"/>
      <path id="Path_262" data-name="Path 262" class="cls-13" d="M151.8,100.1s.171-2.312-4.11-3.6-4.367-1.8-4.2-2.911a5.461,5.461,0,0,1,1.969-1.2c1.456-.6,2.74-2.4,5.223-2.4h.171a4.554,4.554,0,0,1,3.339,1.028c1.456,1.284,3.168.514,3.939,2.226S152.654,95.648,151.8,100.1Z" transform="translate(-102.59 -35.823)"/>
      <path id="Path_263" data-name="Path 263" class="cls-5" d="M151.491,99.6c0,1.541,1.884,8.306-1.8,9.59a9.773,9.773,0,0,1-7.193-.428s3.6,2.4,9.847,2.312c6.165-.171,9.076-3.6,9.076-3.6s-5.651,2.483-7.364.942C152.518,107.135,153.032,102.426,151.491,99.6Z" transform="translate(-102.454 -37.206)"/>
      <path id="Path_264" data-name="Path 264" class="cls-12" d="M148.809,93.146a3.158,3.158,0,0,1,2.911-.856c1.884.342,2.312.771,4.11.771s2.312.514,2.312.514l-4.367,2.4a3.032,3.032,0,0,1-2.4,1.284c-1.456-.086-2.4-1.028-3.254-1.028S143.5,94,143.5,94,144.527,92.975,148.809,93.146Z" transform="translate(-102.598 -36.146)"/>
      <path id="Path_265" data-name="Path 265" class="cls-5" d="M154.9,95.993a3.926,3.926,0,0,1,4.966-2.226C159.781,93.766,158.753,95.907,154.9,95.993Z" transform="translate(-104.236 -36.339)"/>
      <path id="Path_266" data-name="Path 266" class="cls-5" d="M143.6,94.166s3.511-1.113,5.138,1.884C148.738,96.05,145.484,96.564,143.6,94.166Z" transform="translate(-102.612 -36.396)"/>
      <path id="Path_267" data-name="Path 267" class="cls-5" d="M143.055,118.838c-5.823,0-14.471-1.456-26.373-6.593C105.808,107.535,98.873,97.6,96.561,83.56a65.122,65.122,0,0,1-.171-19.694c.086-.685,2.911-16.783,6.85-23.975,3.768-6.936,12.244-7.878,14.3-8.049,19.865-10.789,39.131-1.37,42.042.086,6.165.6,13.871,2.654,15.755,6.508a4.232,4.232,0,0,1-.342,4.367c-2.055,3.168-3.853,8.391-4.538,10.446,13.7,19.523,4.881,40.843,4.453,41.7-4.881,12.673-20.636,21.15-21.835,21.835C152.474,117.211,149.392,118.838,143.055,118.838ZM137.661,30.3a38.471,38.471,0,0,0-18.838,4.8l-.342.171h-.428c-.086,0-8.563.257-11.816,6.251-3.6,6.679-6.422,22.691-6.422,22.862a64.125,64.125,0,0,0,.171,18.666c2.141,12.929,8.22,21.663,18.067,25.945,23.718,10.361,33.137,4.881,33.223,4.881l.171-.086c.171-.086,15.755-8.306,20.293-20.036.086-.257,8.734-20.978-4.538-39.131l-.514-.685.257-.856c.086-.343,2.4-7.706,5.223-12.073a.979.979,0,0,0,.171-1.028c-.856-1.713-6.079-3.939-13.358-4.624h-.342l-.342-.171A49.065,49.065,0,0,0,137.661,30.3Z" transform="translate(-95.731 -26.732)"/>
      <path id="Path_268" data-name="Path 268" class="cls-14" d="M105.9,48.158s2.654-8.391,16.783-2.055a4.374,4.374,0,0,0-3.6,2.141c-1.2,2.141-2.055,5.994-3.511,6.251C115.576,54.494,110.866,53.466,105.9,48.158Z" transform="translate(-97.193 -29.176)"/>
      <path id="Path_269" data-name="Path 269" class="cls-5" d="M172.176,109.7s-.514,9.5-1.541,11.388l-8.134,4.2C162.586,125.369,169.264,122.886,172.176,109.7Z" transform="translate(-105.329 -38.658)"/>
      <path id="Path_270" data-name="Path 270" class="cls-1" d="M132.186,65.525s-.086-1.284-.086-1.37c0-.514.514-.171.685.086.428.6.514,1.884-.257,2.226C131.929,66.724,132.186,65.525,132.186,65.525Z" transform="translate(-100.959 -32.073)"/>
    </g>
    <g id="Group_442" data-name="Group 442" transform="translate(9.392 21.551)">
      <g id="Group_440" data-name="Group 440" transform="translate(65.161)">
        <path id="Path_271" data-name="Path 271" class="cls-15" d="M182.8,51.9c5.138.171,12.244.6,13.786,1.2l2.483.942-.514,9.59-2.141.6a1.877,1.877,0,0,0-.257.685c-.428,3.083-2.141,13.614-7.535,17.211" transform="translate(-182.8 -51.9)"/>
      </g>
      <g id="Group_441" data-name="Group 441" transform="translate(0 2.74)">
        <path id="Path_272" data-name="Path 272" class="cls-16" d="M184.362,56.3c-1.541-.6-15.241-1.2-17.81-1.2-3,0-11.645.942-14.128,2.312A9.831,9.831,0,0,1,149,58.782h-6.251a7.21,7.21,0,0,1-3.425-1.37C136.84,55.956,128.192,55.1,125.2,55.1c-2.569,0-16.269.6-17.81,1.2l-.685.257.257,5.052.086.685.685.171c.086,0,1.456.514,1.713,2.654.257,1.969,1.8,11.988,6.251,14.984a16.726,16.726,0,0,0,9.5,2.654,23.132,23.132,0,0,0,9.076-1.969,15.774,15.774,0,0,0,4.11-2.911,22.029,22.029,0,0,0,5.566-10.446v-.086s.257-2.569,2.055-2.569c1.713,0,2.055,2.4,2.055,2.569v.171a22.945,22.945,0,0,0,5.566,10.446,16.406,16.406,0,0,0,4.11,2.911,23.132,23.132,0,0,0,9.076,1.969,17.441,17.441,0,0,0,9.5-2.654c4.453-3,5.994-13.015,6.251-14.984.257-2.226,1.627-2.654,1.713-2.654l.685-.171.257-5.737ZM139.751,67.516c-.6,5.223-2.4,7.278-4.2,8.991-3.768,3.6-11.474,5.566-18.409,1.113-3.853-2.483-5.651-12.758-2.74-16.526,2.312-3,7.792-2.911,11.731-2.826,5.994.171,9.333.6,11.217,1.884a5.418,5.418,0,0,1,2.226,2.911A19.217,19.217,0,0,1,139.751,67.516Zm34.764,10.1c-6.936,4.453-14.642,2.483-18.41-1.113-1.8-1.713-3.682-3.768-4.2-8.991a25.169,25.169,0,0,1,.171-4.453,5.418,5.418,0,0,1,2.226-2.911c1.884-1.284,5.223-1.713,11.217-1.884,3.939-.086,9.419-.171,11.731,2.826C180.167,64.861,178.369,75.136,174.515,77.62Z" transform="translate(-106.7 -55.1)"/>
      </g>
      <path id="Path_273" data-name="Path 273" class="cls-17" d="M138.406,60.679c-1.884-1.284-5.223-1.713-11.217-1.884-3.939-.086-9.419-.171-11.731,2.826-2.911,3.768-1.113,14.043,2.74,16.526,6.936,4.453,14.642,2.483,18.41-1.113,1.8-1.713,3.682-3.768,4.2-8.991a19.024,19.024,0,0,0-.171-4.453A5.418,5.418,0,0,0,138.406,60.679Z" transform="translate(-107.752 -52.887)"/>
      <path id="Path_274" data-name="Path 274" class="cls-18" d="M161.889,60.679c1.884-1.284,5.223-1.713,11.217-1.884,3.939-.086,9.419-.171,11.731,2.826,2.911,3.768,1.113,14.043-2.74,16.526-6.936,4.453-14.642,2.483-18.409-1.113-1.8-1.713-3.682-3.768-4.2-8.991a19.024,19.024,0,0,1,.171-4.453A5.418,5.418,0,0,1,161.889,60.679Z" transform="translate(-114.281 -52.887)"/>
      <path id="Path_275" data-name="Path 275" class="cls-19" d="M138.406,60.679c-1.884-1.284-5.223-1.713-11.217-1.884-3.939-.086-9.419-.171-11.731,2.826-2.911,3.768-1.113,14.043,2.74,16.526,6.936,4.453,14.642,2.483,18.41-1.113,1.8-1.713,3.682-3.768,4.2-8.991a19.024,19.024,0,0,0-.171-4.453A5.418,5.418,0,0,0,138.406,60.679Z" transform="translate(-107.752 -52.887)"/>
      <path id="Path_276" data-name="Path 276" class="cls-19" d="M161.889,60.679c1.884-1.284,5.223-1.713,11.217-1.884,3.939-.086,9.419-.171,11.731,2.826,2.911,3.768,1.113,14.043-2.74,16.526-6.936,4.453-14.642,2.483-18.409-1.113-1.8-1.713-3.682-3.768-4.2-8.991a19.024,19.024,0,0,1,.171-4.453A5.418,5.418,0,0,1,161.889,60.679Z" transform="translate(-114.281 -52.887)"/>
    </g>
    <path id="Path_277" data-name="Path 277" class="cls-5" d="M201.028,171.012c-1.284-46.923-14.556-69.442-14.728-69.614l2.911-1.8c.6.942,13.957,23.461,15.241,71.326Z" transform="translate(-108.75 -37.206)"/>
    <g id="Group_443" data-name="Group 443" transform="translate(43.985 170.539)">
      <path id="Path_278" data-name="Path 278" class="cls-20" d="M147.5,228.242a36.34,36.34,0,0,0,12.416-.342" transform="translate(-147.157 -226.188)"/>
      <path id="Path_279" data-name="Path 279" class="cls-5" d="M152.494,230.01a25.189,25.189,0,0,1-5.394-.428l.6-3.339a35.241,35.241,0,0,0,11.731-.342l.685,3.339A36.983,36.983,0,0,1,152.494,230.01Z" transform="translate(-147.1 -225.9)"/>
    </g>
    <g id="Group_444" data-name="Group 444" transform="translate(48.647 172.921)">
      <line id="Line_43" data-name="Line 43" class="cls-20" x1="0.428" y2="32.281" transform="translate(1.674 0.016)"/>
      <rect id="Rectangle_1563" data-name="Rectangle 1563" class="cls-5" width="32.281" height="3.425" transform="translate(0 32.278) rotate(-89.245)"/>
    </g>
    <g id="Group_445" data-name="Group 445" transform="translate(59.693 105.847)">
      <path id="Path_280" data-name="Path 280" class="cls-20" d="M172.447,159.582s-4.709,1.113-5.052-.942c-.6-4.367,8.648-9.248,15.841-4.11,7.792,5.566-.942,20.122-4.024,17.211-1.113-.685-.6-6.764-.6-6.764s-5.48,2.055-7.278.6C169.279,164.12,172.447,159.582,172.447,159.582Z" transform="translate(-165.721 -150.632)"/>
      <path id="Path_281" data-name="Path 281" class="cls-5" d="M179.877,173.6a3.053,3.053,0,0,1-1.969-.685c-.514-.342-1.456-1.284-1.37-5.737-2.141.514-4.966.856-6.593-.514-1.8-1.37-1.456-3.511-.771-5.394a5.614,5.614,0,0,1-2.483-.685,2.549,2.549,0,0,1-1.2-1.969c-.342-2.4,1.2-4.8,3.939-6.422a13.449,13.449,0,0,1,14.642.685c3,2.141,4.281,5.566,3.768,9.761-.685,4.709-3.682,9.59-6.593,10.7A5.252,5.252,0,0,1,179.877,173.6Zm.342-11.388-.171,2.74a23.617,23.617,0,0,0,.086,5.138c.942-.428,3-2.826,3.939-6.422.514-2.055,1.028-5.908-2.055-8.049a10.08,10.08,0,0,0-10.874-.514,4.693,4.693,0,0,0-2.312,2.654,12.143,12.143,0,0,0,2.911-.171l4.281-.942-2.483,3.6c-1.027,1.456-1.713,3.339-1.456,3.768.6.428,3.339,0,5.651-.856Z" transform="translate(-165.445 -150.348)"/>
    </g>
    <path id="Path_282" data-name="Path 282" class="cls-5" d="M175.4,147.925c3.853-7.535,4.281-17.125,4.281-17.125s2.055,11.645.257,19.095" transform="translate(-107.183 -41.691)"/>
    <path id="Path_283" data-name="Path 283" class="cls-5" d="M190.484,163.165l-1.884-2.911.942,1.456-.942-1.456a24.264,24.264,0,0,0,9.5-17.553l3.425.257A27.228,27.228,0,0,1,190.484,163.165Z" transform="translate(-109.08 -43.401)"/>
    <path id="Path_284" data-name="Path 284" class="cls-3" d="M189.268,256.4,171.8,260l18.581-.856" transform="translate(-106.666 -59.745)"/>
    <path id="Path_285" data-name="Path 285" class="cls-3" d="M117.5,258.9l14.128,1.884L118.356,255.9" transform="translate(-98.86 -59.673)"/>
  </g>
  <path id="Path_286" data-name="Path 286" class="cls-21" d="M38.35,127.5s15.241,2.141,4.281,9.248c0,0,8.991,6.85-1.541,9.248,0,0,5.309,9.248-3.6,8.563L31.5,154.13V132.723Z" transform="translate(-4.528 -18.327)"/>
  <g id="Group_448" data-name="Group 448" transform="translate(22.945)">
    <g id="Group_447" data-name="Group 447">
      <path id="Path_287" data-name="Path 287" class="cls-1" d="M84.6,248.16c11.559-1.113,13.614-8.563,13.614-8.563C134.268,80.077,50.354,3.1,50.354,3.1s-59.6,97.014,18.666,240.522C69.106,243.708,73.131,250.3,84.6,248.16Z" transform="translate(-27.062 -0.446)"/>
      <path id="Path_288" data-name="Path 288" class="cls-5" d="M79.973,249.855c-8.991,0-12.416-5.48-12.587-5.737C49.4,211.153,37.246,177.93,31.252,145.392a253.666,253.666,0,0,1-2.74-76.464C33.65,26.886,48.12,2.826,48.72,1.8L49.747,0l1.541,1.37c.856.771,21.406,19.951,37.847,59a254.308,254.308,0,0,1,18.238,74.323c3.083,32.966.514,68.244-7.792,104.806-.086.428-2.483,8.648-15.07,9.847A22.332,22.332,0,0,1,79.973,249.855ZM70.3,242.32c.343.514,3.939,5.48,13.7,3.682h.171c9.847-.942,11.988-6.764,12.159-7.278,8.134-36.22,10.789-71.069,7.706-103.607a250.021,250.021,0,0,0-17.981-73.3C72.438,29.455,55.655,10.7,50.518,5.48c-3.511,6.508-14.556,29.2-18.752,64.048a249.125,249.125,0,0,0,2.826,75.351C40.585,177.074,52.573,209.783,70.3,242.32Z" transform="translate(-26.797)"/>
    </g>
    <path id="Path_289" data-name="Path 289" class="cls-22" d="M41,189.938s23.975,0,28-46.238L86.81,268.97l-16.1-3.6L55.728,233.007Z" transform="translate(-28.839 -20.656)"/>
    <path id="Path_290" data-name="Path 290" class="cls-23" d="M88.25,248.16c11.559-1.113,13.614-8.563,13.614-8.563C137.913,80.077,54,3.1,54,3.1" transform="translate(-30.707 -0.446)"/>
    <path id="Path_291" data-name="Path 291" class="cls-24" d="M73.7,143.7s13.1,41.1,40.244,34.507c0,0-2.569,65.332-9.676,82.457a17.148,17.148,0,0,1-13.186,7.621Z" transform="translate(-33.539 -20.656)"/>
    <path id="Path_292" data-name="Path 292" class="cls-22" d="M113.018,212.595l1.113-31.681S86.474,182.883,75.6,152.4c0,0,4.281,52.488,37.675,61.051" transform="translate(-33.812 -21.907)"/>
    <path id="Path_293" data-name="Path 293" class="cls-24" d="M69.37,152.1S65.345,186.093,40,192.6l11.731,30.226S77.675,208.87,69.37,152.1Z" transform="translate(-28.695 -21.863)"/>
    <path id="Path_294" data-name="Path 294" class="cls-5" d="M79.973,249.855c-8.991,0-12.416-5.48-12.587-5.737C49.4,211.153,37.246,177.93,31.252,145.392a253.666,253.666,0,0,1-2.74-76.464C33.65,26.886,48.12,2.826,48.72,1.8L49.747,0l1.541,1.37c.856.771,21.406,19.951,37.847,59a254.308,254.308,0,0,1,18.238,74.323c3.083,32.966.514,68.244-7.792,104.806-.086.428-2.483,8.648-15.07,9.847A22.332,22.332,0,0,1,79.973,249.855ZM70.3,242.32c.343.514,3.939,5.48,13.7,3.682h.171c9.847-.942,11.988-6.764,12.159-7.278,8.134-36.22,10.789-71.069,7.706-103.607a250.021,250.021,0,0,0-17.981-73.3C72.438,29.455,55.655,10.7,50.518,5.48c-3.511,6.508-14.556,29.2-18.752,64.048a249.125,249.125,0,0,0,2.826,75.351C40.585,177.074,52.573,209.783,70.3,242.32Z" transform="translate(-26.797)"/>
    <rect id="Rectangle_1564" data-name="Rectangle 1564" class="cls-5" width="3.425" height="247.458" transform="matrix(0.99, -0.138, 0.138, 0.99, 21.631, 2.878)"/>
    <path id="Path_295" data-name="Path 295" class="cls-5" d="M41.071,190.026,40.9,186.6l.086,1.713L40.9,186.6c.942-.086,23.633-1.8,26.373-44.611l.6-9.59,2.74,9.248c.086.428,12.416,40.5,38.1,33.394l.942,3.339c-12.073,3.339-23.29-1.884-32.366-15.07a83.482,83.482,0,0,1-7.364-13.529C64.875,188.485,42.1,190.026,41.071,190.026Z" transform="translate(-28.824 -19.032)"/>
    <path id="Path_296" data-name="Path 296" class="cls-5" d="M54.884,223.8,53.6,220.63l.685,1.541L53.6,220.63c.257-.086,22.177-10.275,17.81-66.788l3.425-.342c.086.514,6.508,51.889,34.593,57.284l-.685,3.339c-12.758-2.483-23.29-13.7-30.4-32.623-1.2-3.083-2.141-6.165-3-9.076C74.15,215.236,55.741,223.37,54.884,223.8Z" transform="translate(-30.65 -22.065)"/>
  </g>
  <g id="Group_449" data-name="Group 449" transform="translate(13.527 104.292)">
    <path id="Path_297" data-name="Path 297" class="cls-20" d="M29.873,140.384s6.422,5.651,4.8,7.621c-.6,4.11-17.125-1.027-16.868-10.1.343-15.926,18.666-16.7,18.752-11.217.343,1.713-5.651,4.538-5.651,4.538s7.193,1.627,7.364,4.709C38.692,139.185,29.873,140.384,29.873,140.384Z" transform="translate(-16.085 -122.06)"/>
    <path id="Path_298" data-name="Path 298" class="cls-5" d="M31.64,151h-.856c-5.309-.428-15.156-5.394-14.984-13.272C16.057,126,25.047,121.8,31.041,121.8h0c4.024,0,6.85,1.884,6.936,4.624.171,1.37-.942,2.74-3.168,4.281,2.312,1.028,4.709,2.569,4.881,4.966.343,3.168-3.425,4.8-6.593,5.651,3.6,3.853,3.511,6.079,2.826,7.278C35.665,149.371,34.809,151,31.64,151Zm-.6-25.859c-8.391,0-11.645,7.535-11.816,12.587-.086,4.367,4.8,7.278,6.336,8.049,3.425,1.8,6.422,1.969,7.193,1.627l.086-.342.171-.171c-.171-.942-2.226-3.511-4.453-5.48l-2.826-2.483,3.682-.514c3.511-.514,6.764-1.8,6.936-2.569-.086-1.027-3.083-2.569-6.079-3.254l-4.8-1.113,4.453-2.141a18.321,18.321,0,0,0,4.709-3.083c-.171-.428-1.627-1.113-3.6-1.113Z" transform="translate(-15.797 -121.8)"/>
  </g>
</svg>
