<svg xmlns="http://www.w3.org/2000/svg" viewBox="0 0 179.18 40">
  <defs>
    <style>
      .cls-1 {
        fill: #fba919;
      }

      .cls-2 {
        fill: #4ab04d;
      }

      .cls-3 {
        fill: #ee252c;
      }

      .cls-4 {
        fill: #2d1211;
      }
    </style>
  </defs>
  <g id="Group_485" data-name="Group 485" transform="translate(-0.06)">
    <g id="Group_482" data-name="Group 482" transform="translate(0.06 0)">
      <g id="Group_478" data-name="Group 478" transform="translate(0.973 1.297)">
        <path id="Path_309" data-name="Path 309" class="cls-1" d="M56.347,36.034,28.6,22.566V1.3a2.3,2.3,0,0,1,2.025.81L56.144,33.5A2.33,2.33,0,0,1,56.347,36.034Z" transform="translate(-0.672 -1.281)"/>
        <path id="Path_310" data-name="Path 310" class="cls-2" d="M28.949,1.3V22.465L1.3,36.034a2.153,2.153,0,0,1,.2-2.43L27.43,2.211A2.041,2.041,0,0,1,28.949,1.3Z" transform="translate(-1.021 -1.281)"/>
        <path id="Path_311" data-name="Path 311" class="cls-3" d="M56.691,35.768a2.221,2.221,0,0,1-1.823,1.114H3.223A1.913,1.913,0,0,1,1.4,35.768L29.046,22.3Z" transform="translate(-1.016 -1.015)"/>
      </g>
      <path id="Path_312" data-name="Path 312" class="cls-4" d="M55.088,38.177H2.835A2.67,2.67,0,0,1,.3,36.557a3.244,3.244,0,0,1,.3-3.038L26.632,1.114A3.028,3.028,0,0,1,28.961,0h0A2.881,2.881,0,0,1,31.29,1.114L57.316,33.519a2.777,2.777,0,0,1,.3,3.038A2.833,2.833,0,0,1,55.088,38.177ZM28.151,2.43,2.126,34.835a.784.784,0,0,0-.1.911c.1.1.3.506.709.506H54.987c.506,0,.709-.3.709-.506a.779.779,0,0,0-.1-.911L29.569,2.43c0-.3-.3-.405-.608-.405h0a.921.921,0,0,0-.81.405Z" transform="translate(-0.06 0)"/>
      <g id="Group_480" data-name="Group 480" transform="translate(0.875 1.316)">
        <g id="Group_479" data-name="Group 479" transform="translate(0 20.498)">
          <rect id="Rectangle_1570" data-name="Rectangle 1570" class="cls-4" width="30.886" height="1.519" transform="matrix(0.899, -0.439, 0.439, 0.899, 0, 13.585)"/>
          <rect id="Rectangle_1571" data-name="Rectangle 1571" class="cls-4" width="1.519" height="30.886" transform="translate(27.732 1.365) rotate(-64.004)"/>
        </g>
        <rect id="Rectangle_1572" data-name="Rectangle 1572" class="cls-4" width="1.519" height="21.57" transform="translate(27.317)"/>
      </g>
      <g id="Group_481" data-name="Group 481" transform="translate(10.471 10.937)">
        <path id="Path_313" data-name="Path 313" class="cls-4" d="M28.638,15.256,25.9,12.522A1,1,0,0,1,27.322,11.1l1.316,1.316L29.954,11.1a1,1,0,0,1,1.418,1.418Z" transform="translate(-10.208 -10.8)"/>
        <path id="Path_314" data-name="Path 314" class="cls-4" d="M45.362,19.962H41.413a1.013,1.013,0,0,1,0-2.025h1.924V16.013a1.013,1.013,0,1,1,2.025,0Z" transform="translate(-10.02 -10.747)"/>
        <path id="Path_315" data-name="Path 315" class="cls-4" d="M14.349,21.462a.957.957,0,0,1-1.013-1.013V18.525H11.413a1.013,1.013,0,1,1,0-2.025h3.949v3.949A1.089,1.089,0,0,1,14.349,21.462Z" transform="translate(-10.4 -10.728)"/>
        <path id="Path_316" data-name="Path 316" class="cls-4" d="M27.613,39.576a.919.919,0,0,1-.709-.3.979.979,0,0,1,0-1.418l1.316-1.316L26.9,35.222A1,1,0,0,1,28.322,33.8l2.734,2.734-2.734,2.734A.919.919,0,0,1,27.613,39.576Z" transform="translate(-10.195 -10.513)"/>
        <path id="Path_317" data-name="Path 317" class="cls-4" d="M37.913,29.869A1.219,1.219,0,0,1,36.9,29.16a1.041,1.041,0,0,1,.709-1.215l1.823-.506-.506-1.823a.995.995,0,1,1,1.924-.506l1.013,3.747-3.747,1.013Z" transform="translate(-10.065 -10.628)"/>
        <path id="Path_318" data-name="Path 318" class="cls-4" d="M19.938,29.969h-.3a1.041,1.041,0,0,1-.709-1.215l.506-1.823-1.823-.506a.995.995,0,0,1,.506-1.924l3.747,1.013L20.85,29.26A.818.818,0,0,1,19.938,29.969Z" transform="translate(-10.318 -10.627)"/>
      </g>
    </g>
    <g id="Group_483" data-name="Group 483" transform="translate(69.265 10.329)">
      <path id="Path_319" data-name="Path 319" class="cls-4" d="M68.4,13.025a2.025,2.025,0,0,1,4.051,0V19.2l7.494-7.392A2.318,2.318,0,0,1,81.666,11a1.813,1.813,0,0,1,1.823,1.823,2.154,2.154,0,0,1-.709,1.519L77.615,19.2l5.671,7.089a2.2,2.2,0,0,1,.506,1.418,2.031,2.031,0,0,1-2.025,2.025,2.089,2.089,0,0,1-1.722-1.013L74.78,21.835l-2.329,2.127v3.646a2.025,2.025,0,0,1-4.051,0V13.025Z" transform="translate(-68.4 -10.19)"/>
      <path id="Path_320" data-name="Path 320" class="cls-4" d="M92.392,29.785A7.045,7.045,0,0,1,85,22.494v-.1C85,18.342,87.835,15,91.987,15a6.62,6.62,0,0,1,6.785,6.785,1.84,1.84,0,0,1-1.823,1.924h-7.9a3.223,3.223,0,0,0,3.443,2.734,4.527,4.527,0,0,0,2.835-.911,1.594,1.594,0,0,1,2.532,1.316,1.677,1.677,0,0,1-.506,1.215A7.385,7.385,0,0,1,92.392,29.785Zm2.532-8.506c-.2-1.823-1.316-3.038-2.937-3.038s-2.734,1.215-3.038,3.038Z" transform="translate(-68.19 -10.139)"/>
      <path id="Path_321" data-name="Path 321" class="cls-4" d="M101.6,17.225a2.025,2.025,0,1,1,4.051,0v.608c.608-1.418,1.519-2.633,2.734-2.633a1.807,1.807,0,0,1,1.924,1.924,1.779,1.779,0,0,1-1.519,1.823c-2.025.506-3.139,2.025-3.139,4.861v3.747a2.025,2.025,0,1,1-4.051,0Z" transform="translate(-67.98 -10.137)"/>
      <path id="Path_322" data-name="Path 322" class="cls-4" d="M111.4,22.492h0a7.652,7.652,0,0,1,15.291-.1v.1a7.65,7.65,0,0,1-15.291,0Zm11.342,0h0a3.785,3.785,0,0,0-3.747-3.949,3.561,3.561,0,0,0-3.646,3.848v.1a3.7,3.7,0,0,0,3.747,3.848A3.619,3.619,0,0,0,122.742,22.492Z" transform="translate(-67.856 -10.138)"/>
      <path id="Path_323" data-name="Path 323" class="cls-4" d="M143.585,27.719a2.025,2.025,0,1,1-4.051,0v-.2a5.261,5.261,0,0,1-4.354,2.329c-3.24,0-6.38-2.532-6.38-7.291v-.1c0-4.759,3.038-7.291,6.38-7.291a5.35,5.35,0,0,1,4.354,2.127V12.225a2.025,2.025,0,1,1,4.051,0Zm-10.835-5.266h0c0,2.43,1.62,3.949,3.443,3.949a3.586,3.586,0,0,0,3.443-3.848v-.1a3.464,3.464,0,1,0-6.886,0Z" transform="translate(-67.635 -10.2)"/>
      <path id="Path_324" data-name="Path 324" class="cls-4" d="M146.2,22.492h0a7.652,7.652,0,0,1,15.291-.1v.1a7.65,7.65,0,0,1-15.291,0Zm11.342,0h0a3.785,3.785,0,0,0-3.747-3.949,3.561,3.561,0,0,0-3.646,3.848v.1a3.7,3.7,0,0,0,3.747,3.848A3.561,3.561,0,0,0,157.542,22.492Z" transform="translate(-67.415 -10.138)"/>
      <path id="Path_325" data-name="Path 325" class="cls-4" d="M164.2,17.225a2.025,2.025,0,0,1,4.051,0v.2A4.915,4.915,0,0,1,172.4,15.2c3.038,0,4.76,2.025,4.76,5.266v7.291a2.025,2.025,0,0,1-4.051,0V21.681c0-1.924-.911-2.835-2.43-2.835s-2.532,1.013-2.532,2.835v6.076a2.025,2.025,0,1,1-4.051,0V17.225Z" transform="translate(-67.189 -10.137)"/>
    </g>
  </g>
</svg>
